<svg width="12" height="20" viewBox="0 0 12 20" fill="none" xmlns="http://www.w3.org/2000/svg">
<path d="M11.0603 19.5459C11.3415 19.2646 11.4995 18.8832 11.4995 18.4854C11.4995 18.0877 11.3415 17.7062 11.0603 17.4249L3.63533 9.99993L11.0603 2.57493C11.3336 2.29202 11.4848 1.91312 11.4813 1.51983C11.4779 1.12653 11.3202 0.750313 11.0421 0.4722C10.7639 0.194088 10.3877 0.0363368 9.99444 0.0329188C9.60114 0.0295008 9.22224 0.180692 8.93933 0.45393L0.453829 8.93943C0.172623 9.22072 0.0146493 9.60218 0.0146493 9.99993C0.0146493 10.3977 0.172623 10.7791 0.453829 11.0604L8.93933 19.5459C9.22062 19.8271 9.60209 19.9851 9.99983 19.9851C10.3976 19.9851 10.779 19.8271 11.0603 19.5459Z" fill="#FF5C00"/>
</svg>
