<svg width="12" height="20" viewBox="0 0 12 20" fill="none" xmlns="http://www.w3.org/2000/svg">
<path d="M0.939668 0.454072C0.658462 0.735364 0.500488 1.11683 0.500488 1.51457C0.500488 1.91232 0.658462 2.29378 0.939668 2.57507L8.36467 10.0001L0.939668 17.4251C0.666431 17.708 0.515239 18.0869 0.518656 18.4802C0.522074 18.8735 0.679828 19.2497 0.95794 19.5278C1.23605 19.8059 1.61227 19.9637 2.00557 19.9671C2.39886 19.9705 2.77777 19.8193 3.06067 19.5461L11.5462 11.0606C11.8274 10.7793 11.9854 10.3978 11.9854 10.0001C11.9854 9.60233 11.8274 9.22086 11.5462 8.93957L3.06067 0.454072C2.77938 0.172866 2.39791 0.0148926 2.00017 0.0148926C1.60242 0.0148926 1.22096 0.172866 0.939668 0.454072Z" fill="#F37833"/>
</svg>
