<svg width="37" height="37" viewBox="0 0 37 37" fill="none" xmlns="http://www.w3.org/2000/svg">
<path d="M18.5031 8.00003C15.7188 8.00282 13.0492 9.10967 11.0801 11.0777C9.11108 13.0458 8.00336 15.7144 8.00001 18.4979C7.9979 20.4798 8.55469 22.4112 9.605 24.0831L9.85387 24.4795L8.79301 28.3527L12.7686 27.3111L13.1503 27.5389C14.7691 28.4967 16.6158 29.0013 18.4968 29H18.4989C21.2824 28.9961 23.9508 27.8891 25.9192 25.9217C27.8876 23.9542 28.9955 21.2869 28.9999 18.5042C29.0048 17.1249 28.7358 15.7584 28.2087 14.4837C27.6816 13.2091 26.9068 12.0516 25.9291 11.0783C24.9565 10.0997 23.7994 9.32371 22.5247 8.79531C21.25 8.26691 19.8831 7.9966 18.5031 8.00003ZM24.6785 23.0078C24.4148 23.7458 23.1536 24.4163 22.5483 24.5069C21.8847 24.6213 21.2036 24.5787 20.5595 24.3825C19.9484 24.1934 19.3478 23.9717 18.7604 23.7184C15.5926 22.3521 13.5257 19.1663 13.3655 18.9533C13.2094 18.7425 12.0789 17.2413 12.0789 15.6895C12.0789 14.1356 12.893 13.3723 13.182 13.056C13.2881 12.9362 13.4177 12.8395 13.5629 12.7721C13.708 12.7046 13.8656 12.6678 14.0256 12.6639C14.2365 12.6639 14.4453 12.666 14.6309 12.6744C14.8249 12.6829 15.0843 12.6006 15.3395 13.2163C15.6032 13.8488 16.2359 15.4006 16.3139 15.5588C16.392 15.7148 16.4447 15.9003 16.3413 16.1112C16.2359 16.3241 16.1853 16.4527 16.025 16.6383C15.8689 16.8238 15.6939 17.0494 15.5526 17.1928C15.3944 17.3488 15.2299 17.5196 15.4134 17.8359C15.599 18.15 16.2317 19.1853 17.1681 20.0223C18.3745 21.0976 19.3932 21.4286 19.7074 21.5889C20.0238 21.7449 20.2073 21.7217 20.3929 21.5087C20.5763 21.2958 21.1816 20.5874 21.3925 20.2732C21.6035 19.9569 21.8123 20.0097 22.1033 20.113C22.3922 20.2205 23.9445 20.9816 24.2588 21.1398C24.5709 21.2958 24.7839 21.3759 24.8641 21.5087C24.94 21.6395 24.94 22.2699 24.6785 23.0078Z" fill="#248B00"/>
<path d="M34.9444 0H2.05556C1.51039 0 0.98755 0.216567 0.602058 0.602058C0.216567 0.98755 0 1.51039 0 2.05556V34.9444C0 35.4896 0.216567 36.0125 0.602058 36.3979C0.98755 36.7834 1.51039 37 2.05556 37H34.9444C35.4896 37 36.0125 36.7834 36.3979 36.3979C36.7834 36.0125 37 35.4896 37 34.9444V2.05556C37 1.51039 36.7834 0.98755 36.3979 0.602058C36.0125 0.216567 35.4896 0 34.9444 0ZM18.5822 30.6196H18.5781C16.5227 30.6198 14.5 30.1046 12.6951 29.1211L6.16667 30.8333L7.91389 24.4529C6.83468 22.5807 6.26711 20.4576 6.26817 18.2966C6.26922 16.1357 6.83888 14.0131 7.91992 12.142C9.00096 10.2709 10.5553 8.7172 12.4269 7.63696C14.2984 6.55672 16.4213 5.98797 18.5822 5.98783C20.201 5.98336 21.8046 6.30029 23.3 6.92026C24.7954 7.54022 26.1529 8.45089 27.2937 9.59944C28.4398 10.741 29.348 12.0986 29.9658 13.5936C30.5836 15.0885 30.8988 16.6912 30.8929 18.3088C30.8881 21.5723 29.5895 24.7008 27.2818 27.0084C24.9742 29.3161 21.8457 30.6147 18.5822 30.6196Z" fill="#248B00"/>
</svg>
