<svg width="78" height="79" viewBox="0 0 78 79" fill="none" xmlns="http://www.w3.org/2000/svg">
<path fill-rule="evenodd" clip-rule="evenodd" d="M0 0H78V79H0V0Z" fill="white"/>
<path fill-rule="evenodd" clip-rule="evenodd" d="M39.0174 54.5261C42.5245 57.7992 47.2343 59.7845 52.3573 59.7845C63.3595 59.7845 72.2644 50.6957 72.2644 39.5172C72.2644 28.3047 63.3595 19.2156 52.3573 19.2156C47.2343 19.2156 42.5245 21.2005 39.0174 24.4739C34.9947 28.1998 32.4502 33.5626 32.4502 39.5172C32.4506 45.4719 34.9947 50.8351 39.0174 54.5261Z" fill="#E9B040"/>
<path fill-rule="evenodd" clip-rule="evenodd" d="M69.6172 50.7998C69.6172 50.4514 69.8924 50.1732 70.2359 50.1732C70.6139 50.1732 70.8886 50.4519 70.8886 50.7998C70.8886 51.1834 70.6135 51.4617 70.2359 51.4617C69.8924 51.4617 69.6172 51.1834 69.6172 50.7998ZM70.2359 51.3228C70.5111 51.3228 70.751 51.0785 70.751 50.8002C70.751 50.5219 70.5107 50.3129 70.2359 50.3129C69.9947 50.3129 69.7548 50.5219 69.7548 50.8002C69.7548 51.0785 69.9951 51.3228 70.2359 51.3228ZM70.1671 51.1137H70.0295V50.5215H70.2699C70.3047 50.5215 70.3735 50.5215 70.4075 50.5568C70.4763 50.5912 70.4763 50.6264 70.4763 50.6961C70.4763 50.7658 70.4423 50.8355 70.3735 50.8355L70.5111 51.1142H70.3387L70.2699 50.8699H70.1671V51.1137V50.7654H70.3047C70.3387 50.7654 70.3387 50.7301 70.3387 50.6957C70.3387 50.6605 70.3387 50.6605 70.3047 50.626H70.1671V51.1137Z" fill="#E9B040"/>
<path fill-rule="evenodd" clip-rule="evenodd" d="M45.4463 37.3586C45.3775 36.6274 45.24 35.9311 45.1024 35.1995H32.9311C33.0687 34.4684 33.2751 33.772 33.481 33.0753H44.5181C44.2785 32.3422 44.0031 31.6216 43.693 30.9162H34.3409C34.6849 30.1786 35.0636 29.4581 35.4756 28.7572H42.5243C42.0708 28.0135 41.5653 27.3036 41.0117 26.6329H36.9886C37.6109 25.8632 38.289 25.1415 39.0171 24.4739C35.476 21.2353 30.7998 19.2156 25.6424 19.2156C14.6746 19.2156 5.73535 28.3047 5.73535 39.5172C5.73535 50.6957 14.6746 59.7845 25.6424 59.7845C30.7998 59.7845 35.4756 57.7992 39.0171 54.5261C39.7342 53.8702 40.401 53.1599 41.0117 52.4015H36.9886C36.4383 51.7052 35.9571 51.0089 35.4756 50.2424H42.5243C42.9675 49.5539 43.3583 48.8321 43.6934 48.0834H34.3409C34.0314 47.3871 33.7222 46.6907 33.481 45.9588H44.5181C44.7584 45.2624 44.9308 44.5317 45.102 43.7997C45.2396 43.1034 45.3771 42.3726 45.4459 41.6406C45.5156 40.9346 45.5502 40.2255 45.5495 39.516C45.5495 38.7861 45.5151 38.0549 45.4463 37.3586Z" fill="#CC2131"/>
<path fill-rule="evenodd" clip-rule="evenodd" d="M69.6172 44.2185C69.6172 43.8357 69.8924 43.5574 70.2359 43.5574C70.6139 43.5574 70.8886 43.8361 70.8886 44.2185C70.8886 44.5669 70.6135 44.8804 70.2359 44.8804C69.8924 44.8804 69.6172 44.5665 69.6172 44.2185ZM70.2359 44.7058C70.5111 44.7058 70.751 44.4968 70.751 44.2185C70.751 43.9402 70.5107 43.7312 70.2359 43.7312C69.9947 43.7312 69.7548 43.9402 69.7548 44.2185C69.7548 44.4968 69.9951 44.7058 70.2359 44.7058ZM70.1671 44.4968H70.0295V43.9398H70.4075C70.4763 43.9751 70.4763 44.0447 70.4763 44.1144C70.4763 44.1488 70.4423 44.2185 70.3735 44.2538L70.5111 44.4972H70.3387L70.2699 44.2882H70.1671V44.4968V44.1837H70.2359C70.2699 44.1837 70.3047 44.1837 70.3047 44.1484C70.3387 44.1484 70.3387 44.114 70.3387 44.0788C70.3387 44.0788 70.3387 44.0443 70.3047 44.0443C70.3047 44.0091 70.2699 44.0443 70.2359 44.0443H70.1671V44.4968Z" fill="white"/>
<path fill-rule="evenodd" clip-rule="evenodd" d="M32.2442 45.3678C31.5911 45.5415 31.1096 45.6465 30.6284 45.6465C29.597 45.6465 28.9778 44.9846 28.9778 43.8005C28.9778 43.5571 29.0122 43.3132 29.0466 43.0345L29.1842 42.2341L29.2874 41.5722L30.2157 35.8614H32.2786L32.0378 37.1151H33.3445L33.0349 39.2045H31.7283L31.1784 42.6169C31.144 42.7915 31.144 42.8956 31.144 42.9653C31.144 43.4181 31.3503 43.5919 31.8659 43.5919C32.1066 43.5919 32.3126 43.5575 32.519 43.5222L32.2442 45.3678ZM38.9146 45.2981C38.1583 45.5071 37.4708 45.6112 36.7141 45.6112C34.376 45.6112 33.0349 44.3575 33.0349 41.8857C33.0349 38.9951 34.6167 36.9057 36.8168 36.9057C38.5702 36.9057 39.7049 38.0898 39.7049 39.9349C39.7049 40.5623 39.6361 41.1542 39.4645 41.9898H35.1667C35.1323 42.1292 35.1323 42.1989 35.1323 42.2685C35.1323 43.2435 35.7854 43.7309 37.0232 43.7309C37.8139 43.7309 38.5014 43.5571 39.2581 43.2091L38.9146 45.2981ZM37.6423 40.3185V39.9004C37.6423 39.2041 37.264 38.8209 36.6109 38.8209C35.923 38.8209 35.4418 39.3431 35.2354 40.3181H37.6423V40.3185ZM15.7407 45.4719H13.609L14.8468 37.5676L12.062 45.4719H10.5838L10.4118 37.6024L9.10515 45.4719H7.00781L8.6924 35.1995H11.8212L11.89 41.5378L13.9873 35.1995H17.4257L15.7407 45.4719ZM20.9329 41.7464C20.7265 41.7111 20.6577 41.7111 20.5201 41.7111C19.2823 41.7111 18.6635 42.1984 18.6635 42.9649C18.6635 43.4874 18.9731 43.8358 19.4542 43.8358C20.4857 43.8358 20.8981 42.9649 20.9329 41.7464ZM22.6518 45.4719H20.7953L20.8297 44.6018C20.3481 45.2628 19.695 45.6112 18.5604 45.6112C17.5289 45.6112 16.635 44.6714 16.635 43.3132C16.635 42.9304 16.7038 42.5825 16.807 42.2341C17.1505 40.9451 18.4228 40.1447 20.3825 40.1095C20.6233 40.1095 21.0012 40.1095 21.3452 40.1447C21.4136 39.866 21.4136 39.7611 21.4136 39.5873C21.4136 39.0299 20.9668 38.8558 19.9698 38.8558C19.3511 38.8558 18.6631 38.9603 18.182 39.1344L17.8724 39.2041L17.7349 39.2385L18.0444 37.3582C19.0415 37.0446 19.7634 36.9057 20.5545 36.9057C22.4111 36.9057 23.4081 37.7762 23.4081 39.3779C23.4081 39.7959 23.4425 40.1095 23.305 41.0148L22.8238 44.0095L22.755 44.5321L22.7206 44.9501L22.6862 45.2288L22.6518 45.4719ZM49.2981 37.1844C49.9168 37.1844 50.4671 37.3586 51.2234 37.7414L51.6014 35.5127C51.395 35.4081 51.3262 35.4081 51.0514 35.3036L50.1924 35.0598C49.9172 34.9901 49.5736 34.9553 49.1949 34.9553C48.1286 34.9553 47.5099 34.9901 46.8572 35.3733C46.5132 35.6172 46.0661 35.9307 45.5845 36.4877L45.3094 36.418L43.1088 37.9848L43.2124 37.1143H40.9427L39.6025 45.4715H41.769L42.5593 40.98C42.5593 40.98 42.8693 40.3525 43.0065 40.1443C43.4192 39.6217 43.7628 39.6218 44.2095 39.6218H44.3819C44.3097 40.1525 44.2751 40.6877 44.2783 41.2234C44.2783 43.9395 45.7909 45.6461 48.129 45.6461C48.7137 45.6461 49.2301 45.5764 50.0204 45.3674L50.3991 42.9997C49.7116 43.3825 49.0925 43.5567 48.5766 43.5567C47.3047 43.5567 46.5476 42.5816 46.5476 41.0496C46.5468 38.7861 47.6819 37.1844 49.2981 37.1844ZM67.5542 35.1995L67.0734 38.1246C66.5575 37.3238 65.9384 36.9405 65.1133 36.9405C63.9782 36.9405 62.9127 37.602 62.2592 38.8558V38.8213L60.8842 37.9852L61.0218 37.1147H58.7181L57.4114 45.4719H59.5432L60.2655 40.9804C60.2655 40.9804 60.8154 40.3529 60.953 40.1447C61.297 39.7267 61.6405 39.6566 61.9157 39.6222C61.6753 40.3185 61.5377 41.1542 61.5377 42.0948C61.5377 44.1841 62.6032 45.5768 64.1846 45.5768C64.9757 45.5768 65.5944 45.2981 66.1787 44.6362L66.0759 45.4719H68.1049L69.7551 35.1995H67.5542ZM64.9073 43.4874C64.185 43.4874 63.807 42.9304 63.807 41.8505C63.807 40.2136 64.4945 39.0299 65.4912 39.0299C66.2475 39.0299 66.6263 39.6222 66.6263 40.6669C66.6263 42.3382 65.9388 43.4874 64.9073 43.4874ZM54.9714 41.7464C54.765 41.7111 54.6962 41.7111 54.5586 41.7111C53.32 41.7111 52.7012 42.1984 52.7012 42.9649C52.7012 43.4874 53.0112 43.8358 53.4923 43.8358C54.5238 43.8358 54.9366 42.9649 54.9714 41.7464ZM56.6903 45.4719H54.799L54.8678 44.6018C54.3866 45.2628 53.7327 45.6112 52.5989 45.6112C51.5326 45.6112 50.6047 44.7059 50.6047 43.3132C50.6047 41.3288 52.0825 40.1099 54.4206 40.1099C54.6618 40.1099 55.0393 40.1099 55.3493 40.1451C55.4181 39.8664 55.4529 39.7615 55.4529 39.5877C55.4529 39.0303 55.0058 38.8562 53.9743 38.8562C53.3896 38.8562 52.6676 38.9607 52.1865 39.1349L51.9113 39.2045L51.7738 39.239L52.0829 37.3586C53.0804 37.0451 53.8027 36.9061 54.593 36.9061C56.4496 36.9061 57.4122 37.7766 57.4122 39.3783C57.4122 39.7963 57.481 40.1099 57.3095 41.0152L56.8623 44.01L56.7935 44.5325L56.7247 44.9506L56.6907 45.2292V45.4719H56.6903ZM27.1557 38.8906C27.5684 38.8906 28.1527 38.9254 28.7719 39.0299L29.0814 37.0799C28.4623 37.0102 27.6372 36.9057 27.1557 36.9057C24.7492 36.9057 23.9585 38.2291 23.9585 39.7611C23.9585 40.7714 24.4052 41.5021 25.5743 42.0591C26.4338 42.4771 26.5713 42.5464 26.5713 42.93C26.5713 43.4517 26.1246 43.7657 25.2991 43.7657C24.646 43.7657 24.0269 43.6608 23.3393 43.4173L23.0986 45.3321L23.1326 45.3674L23.5453 45.437C23.6829 45.4715 23.8549 45.5067 24.0957 45.5411C24.6112 45.5764 25.0583 45.6108 25.3335 45.6108C27.7404 45.6108 28.7375 44.671 28.7375 42.8251C28.7375 41.6763 28.1871 40.98 27.1213 40.4927C26.193 40.0742 26.0898 40.0054 26.0898 39.6218C26.0898 39.239 26.5026 38.8906 27.1557 38.8906Z" fill="#1B3771"/>
<path fill-rule="evenodd" clip-rule="evenodd" d="M52.1859 34.8511L51.8071 37.0799C51.0508 36.6967 50.5005 36.5229 49.8818 36.5229C48.2656 36.5229 47.1313 38.1245 47.1313 40.3881C47.1313 41.9554 47.8876 42.8951 49.1603 42.8951C49.6754 42.8951 50.2945 42.7214 50.9821 42.3734L50.6041 44.7058C49.813 44.9149 49.2975 45.0198 48.7127 45.0198C46.375 45.0198 44.9308 43.3132 44.9308 40.5627C44.9308 36.9061 46.925 34.329 49.7786 34.329C50.1566 34.329 50.5001 34.3638 50.7753 34.4335L51.6352 34.6425C51.9107 34.747 51.9795 34.7819 52.1859 34.8511ZM45.2404 36.3835H45.034C44.3125 36.3835 43.8998 36.7319 43.2462 37.7413L43.4526 36.4528H41.4925L40.1522 44.8103H42.3188C43.1091 39.6914 43.3154 38.8209 44.3469 38.8209H44.4845C44.6909 37.811 44.9656 37.0794 45.3096 36.418L45.2404 36.3835ZM32.7944 44.7058C32.21 44.9149 31.7285 44.9845 31.2474 44.9845C30.1471 44.9845 29.528 44.3579 29.528 43.1394C29.528 42.9304 29.5624 42.6521 29.5968 42.4078L29.7343 41.5722L29.8375 40.9111L30.7658 35.1995H32.8975L32.6568 36.4532H33.757L33.4819 38.5078H32.3816L31.7973 41.9902C31.7629 42.1296 31.7629 42.2345 31.7629 42.3386C31.7629 42.7566 31.9693 42.9308 32.4848 42.9308C32.7256 42.9308 32.9315 42.9308 33.0691 42.8611L32.7944 44.7058ZM24.5082 39.0996C24.5082 40.1447 24.9893 40.8754 26.124 41.4328C27.0179 41.8509 27.1555 41.9898 27.1555 42.3382C27.1555 42.8607 26.7771 43.1042 25.9176 43.1042C25.2645 43.1042 24.6798 43.0001 23.9923 42.791L23.6827 44.7058L23.7859 44.7411L24.1642 44.8108C24.3014 44.8452 24.4738 44.8804 24.7486 44.8804C25.2297 44.9501 25.6425 44.9501 25.9176 44.9501C28.1865 44.9501 29.2528 44.0792 29.2528 42.1644C29.2528 41.0148 28.8061 40.3529 27.7402 39.8311C26.8119 39.4131 26.7087 39.309 26.7087 38.9258C26.7087 38.4733 27.0871 38.2643 27.7746 38.2643C28.1873 38.2643 28.7717 38.2991 29.322 38.3688L29.6312 36.4536C29.0812 36.3491 28.2217 36.2794 27.7402 36.2794C25.3333 36.279 24.4738 37.5676 24.5082 39.0996ZM68.655 44.8108H66.6261L66.7297 44.0095C66.145 44.6362 65.5258 44.9149 64.7347 44.9149C63.1533 44.9149 62.1218 43.5574 62.1218 41.4681C62.1218 38.6819 63.738 36.3139 65.6286 36.3139C66.4885 36.3139 67.1072 36.6971 67.6924 37.4631L68.1735 34.538H70.3052L68.655 44.8108ZM65.4914 42.8607C66.4889 42.8607 67.1764 41.6767 67.1764 40.0398C67.1764 38.9602 66.7977 38.4028 66.0414 38.4028C65.0787 38.4028 64.3572 39.552 64.3572 41.189C64.3572 42.3037 64.7351 42.8607 65.4914 42.8607ZM39.3955 44.6362C38.6388 44.8804 37.9513 44.9845 37.1606 44.9845C34.7537 44.9845 33.5159 43.6964 33.5159 41.2238C33.5159 38.3684 35.0977 36.2442 37.2638 36.2442C39.0516 36.2442 40.1858 37.4282 40.1858 39.2738C40.1858 39.9008 40.117 40.493 39.9106 41.3631H35.648C35.6136 41.4681 35.6136 41.5377 35.6136 41.6074C35.6136 42.5824 36.2671 43.0697 37.5046 43.0697C38.2953 43.0697 38.9828 42.9304 39.7395 42.5472L39.3955 44.6362ZM38.1921 39.6565V39.2389C38.1921 38.5426 37.8137 38.1594 37.1606 38.1594C36.4731 38.1594 35.9915 38.6819 35.7852 39.6565H38.1921ZM16.2908 44.8108H14.1591L15.397 36.9057L12.6121 44.8108H11.1335L10.9615 36.9753L9.65528 44.8108H7.66113L9.34572 34.538H12.4401L12.5433 40.9107L14.6059 34.538H17.9754L16.2908 44.8108ZM21.6202 41.0844C21.4138 41.0844 21.3106 41.05 21.1386 41.05C19.9352 41.05 19.3165 41.5025 19.3165 42.3382C19.3165 42.8607 19.5916 43.1738 20.0728 43.1738C20.9666 43.1738 21.5858 42.3382 21.6202 41.0844ZM23.2016 44.8108H21.4134L21.4478 43.9398C20.8975 44.6362 20.1755 44.9501 19.1785 44.9501C18.0094 44.9501 17.2187 44.0448 17.2187 42.6865C17.2187 40.6324 18.5937 39.4483 21.0006 39.4483C21.2414 39.4483 21.551 39.4832 21.8945 39.5176C21.9633 39.2393 21.9633 39.1348 21.9633 38.9955C21.9633 38.4385 21.585 38.2295 20.5879 38.2295C19.9692 38.2295 19.2813 38.2991 18.8001 38.4385L18.4906 38.543L18.2842 38.5778L18.5937 36.6975C19.6596 36.3839 20.3815 36.2794 21.1726 36.2794C23.0292 36.2794 24.0263 37.1151 24.0263 38.7168C24.0263 39.1348 23.9919 39.4483 23.8543 40.3885L23.3727 43.3488L23.3039 43.8706L23.2696 44.2886L23.2352 44.6026L23.2016 44.8108ZM55.6587 41.0844C55.4175 41.0844 55.3147 41.05 55.1775 41.05C53.9397 41.05 53.3202 41.5025 53.3202 42.3382C53.3202 42.8607 53.6301 43.1738 54.1113 43.1738C54.9712 43.1738 55.6239 42.3382 55.6587 41.0844ZM57.2401 44.8108H55.4523L55.4863 43.9398C54.9364 44.6362 54.2145 44.9501 53.2174 44.9501C52.0483 44.9501 51.2572 44.0448 51.2572 42.6865C51.2572 40.6324 52.6322 39.4483 55.0391 39.4483C55.2803 39.4483 55.5899 39.4832 55.899 39.5176C55.9678 39.2393 56.0026 39.1348 56.0026 38.9955C56.0026 38.4385 55.6239 38.2295 54.6276 38.2295C54.0081 38.2295 53.2866 38.2991 52.805 38.4385L52.5299 38.543L52.3235 38.5778L52.6326 36.6975C53.6989 36.3839 54.4204 36.2794 55.2115 36.2794C57.0681 36.2794 58.0308 37.1151 58.0308 38.7168C58.0308 39.1348 58.0308 39.4483 57.8592 40.3885L57.4121 43.3488L57.3433 43.8706L57.2745 44.2886L57.2405 44.6026V44.8108H57.2401ZM63.0161 36.3835H62.8098C62.0883 36.3835 61.6755 36.7319 61.022 37.7413L61.2284 36.4528H59.2682L57.9616 44.8103H60.0933C60.8844 39.6914 61.0908 38.8209 62.1223 38.8209H62.2598C62.4662 37.811 62.741 37.0794 63.0849 36.418L63.0161 36.3835Z" fill="white"/>
</svg>
