<svg width="100" height="64" viewBox="0 0 100 64" fill="none" xmlns="http://www.w3.org/2000/svg">
<g clip-path="url(#clip0_1465_944)">
<path d="M95.0641 0.018942L70.4401 0.0125122H70.4334C70.4141 0.0125122 70.3958 0.0158963 70.3772 0.0158963C66.9945 0.119449 62.7809 2.83281 62.0138 6.17831L50.3688 57.7054C49.6013 61.0824 51.6886 63.8299 55.047 63.8803H80.9159C84.2225 63.7169 87.4367 61.0346 88.1907 57.727L99.8363 6.19963C100.616 2.78881 98.4786 0.018942 95.0641 0.018942Z" fill="#01798A"/>
<path d="M50.3693 57.7051L62.0142 6.178C62.7814 2.83249 66.9949 0.119132 70.3777 0.0155789L60.5868 0.0094876L42.9473 0.00610352C39.5551 0.0754772 35.2871 2.80779 34.5199 6.17833L22.8716 57.7051C22.1013 61.0821 24.192 63.8296 27.548 63.88H55.0474C51.6891 63.8296 49.6018 61.0821 50.3693 57.7051Z" fill="#024381"/>
<path d="M22.8709 57.7051L34.5192 6.17798C35.2864 2.80744 39.5544 0.0751267 42.9466 0.00575295L20.3494 0C16.9382 0 12.5646 2.76378 11.785 6.17798L0.136601 57.7051C0.0658736 58.0194 0.0262799 58.3277 0.00292969 58.6289V59.5846C0.231017 62.0462 2.11088 63.8387 4.81307 63.8797H27.5473C24.1913 63.8296 22.1007 61.082 22.8709 57.7051Z" fill="#DD0228"/>
<path d="M43.4237 37.5522H43.8514C44.2443 37.5522 44.5086 37.4198 44.6328 37.1589L45.7442 35.496H48.7198L48.0995 36.5897H51.6673L51.2145 38.2659H46.9689C46.4799 39.0016 45.8778 39.3471 45.1543 39.3061H42.9428L43.4237 37.5522ZM42.935 39.9538H50.7526L50.2541 41.7745H47.11L46.6305 43.5315H49.6897L49.1915 45.3521H46.1323L45.4217 47.9487C45.2457 48.3829 45.4772 48.5778 46.112 48.5338H48.6051L48.1431 50.2259H43.3564C42.4491 50.2259 42.1377 49.7068 42.4223 48.6662L43.331 45.3525H41.3756L41.8724 43.5318H43.8281L44.3076 41.7748H42.4382L42.935 39.9538ZM55.9008 33.0814L55.778 34.1474C55.778 34.1474 57.2524 33.0405 58.5915 33.0405H63.5401L61.6477 39.8912C61.4906 40.6743 60.8176 41.0638 59.6291 41.0638H54.0199L52.7062 45.8743C52.6301 46.1322 52.7374 46.2641 53.0203 46.2641H54.1242L53.7184 47.7575H50.9127C49.8359 47.7575 49.3878 47.4337 49.5655 46.7829L53.2781 33.0814H55.9008ZM60.0917 35.0181H55.6744L55.1458 36.8669C55.1458 36.8669 55.8815 36.3359 57.111 36.317C58.337 36.2977 59.7363 36.317 59.7363 36.317L60.0917 35.0181ZM58.491 39.3065C58.8176 39.3508 59.0006 39.2219 59.0223 38.9166L59.2927 37.9423H54.869L54.4981 39.3065H58.491ZM55.5076 41.52H58.0575L58.0098 42.6235H58.6886C59.0318 42.6235 59.202 42.5136 59.202 42.2966L59.403 41.5829H61.5225L61.2395 42.6235C61 43.4912 60.3654 43.944 59.334 43.9883H57.9756L57.9692 45.8743C57.9445 46.1765 58.2172 46.3305 58.78 46.3305H60.0565L59.6446 47.8242H56.5824C55.7238 47.8648 55.3028 47.456 55.312 46.5883L55.5076 41.52ZM24.1195 26.3562C23.7737 28.051 22.972 29.3525 21.7283 30.2767C20.4958 31.1853 18.9067 31.6412 16.9605 31.6412C15.129 31.6412 13.7866 31.1759 12.9297 30.2422C12.3355 29.5789 12.04 28.7363 12.04 27.7177C12.04 27.2963 12.0905 26.8436 12.191 26.3566L14.2644 16.359H17.3957L15.351 26.2429C15.2925 26.4911 15.2641 26.7455 15.2664 27.0006C15.263 27.5068 15.3889 27.9217 15.6434 28.2456C16.0143 28.7268 16.6163 28.9654 17.4546 28.9654C18.418 28.9654 19.2119 28.7298 19.8282 28.2547C20.4444 27.783 20.8468 27.1136 21.0275 26.2425L23.0789 16.358H26.1946L24.1195 26.3562ZM37.2708 22.4229H39.7232L37.8021 31.3457H35.3543L37.2708 22.4229ZM38.0427 19.1722H40.5171L40.0548 21.338H37.5807L38.0427 19.1722ZM41.8941 30.6666C41.2525 30.0534 40.9286 29.2266 40.9256 28.1765C40.9256 27.9972 40.9364 27.7931 40.9604 27.5698C40.9841 27.3434 41.0139 27.1234 41.0562 26.919C41.3469 25.4696 41.9665 24.319 42.9205 23.47C43.8731 22.6179 45.0223 22.1904 46.3682 22.1904C47.47 22.1904 48.3442 22.4987 48.9841 23.1146C49.6237 23.7343 49.9441 24.5701 49.9441 25.6331C49.9441 25.8151 49.9303 26.026 49.9066 26.2524C49.8791 26.4755 49.845 26.6979 49.8044 26.919C49.5201 28.3464 48.9025 29.4845 47.9482 30.3177C46.9939 31.1569 45.8477 31.5748 44.5117 31.5748C43.4051 31.5752 42.534 31.2733 41.8941 30.6666ZM46.5679 28.8997C47.0003 28.4314 47.3096 27.7207 47.4985 26.7745C47.5269 26.6266 47.5519 26.4727 47.5675 26.3187C47.5831 26.1678 47.5895 26.0263 47.5895 25.8974C47.5895 25.3471 47.4494 24.9197 47.1682 24.6178C46.8887 24.3129 46.491 24.162 45.977 24.162C45.2978 24.162 44.7442 24.4006 44.3107 24.8788C43.8734 25.3569 43.5635 26.0798 43.3685 27.0419C43.3418 27.1897 43.3198 27.3376 43.2995 27.4821C43.2839 27.63 43.2792 27.7681 43.2822 27.894C43.2822 28.4412 43.4223 28.8625 43.7036 29.161C43.9834 29.4598 44.3794 29.6073 44.8998 29.6073C45.5824 29.607 46.1354 29.3711 46.5679 28.8997Z" fill="white"/>
<path d="M70.4339 0.0125061L60.5869 0.00946045L70.3777 0.0158902C70.396 0.0158902 70.4146 0.0125061 70.4339 0.0125061Z" fill="#E02F41"/>
<path d="M60.5868 0.00947543L43.0826 0C43.0386 0 42.993 0.00304568 42.9473 0.00609135L60.5868 0.00947543Z" fill="#2E4F7D"/>
<path d="M65.8555 37.6273L66.4467 35.5461H69.4369L69.3079 36.3102C69.3079 36.3102 70.8355 35.5461 71.936 35.5461H75.6331L75.0457 37.6273H74.4639L71.6751 47.4432H72.2568L71.7035 49.3924H71.1218L70.8799 50.2381H67.9841L68.2257 49.3924H62.5134L63.0701 47.4432H63.6423L66.4338 37.6273H65.8555ZM69.0816 37.6273L68.3208 40.2838C68.3208 40.2838 69.623 39.784 70.7452 39.6425C70.9929 38.7153 71.3167 37.6273 71.3167 37.6273H69.0816ZM64.7425 41.5291L63.9787 44.3119C63.9787 44.3119 65.4217 43.6012 66.4118 43.5416C66.6978 42.4662 66.9841 41.5295 66.9841 41.5295H64.7425V41.5291ZM65.3019 47.4432L65.8738 45.4245H63.6423L63.0667 47.4432H65.3019ZM72.533 35.4171H75.3441L75.4636 36.4544C75.4446 36.7183 75.602 36.8445 75.9353 36.8445H76.4321L75.9296 38.6016H73.8636C73.0751 38.6422 72.6694 38.3406 72.6315 37.6899L72.533 35.4171ZM71.7093 39.187H80.8142L80.2798 41.0736H77.381L76.8839 42.8276H79.7803L79.2423 44.7108H76.0169L75.2873 45.8147H76.8663L77.2308 48.0249C77.2741 48.2448 77.469 48.3518 77.8027 48.3518H78.2927L77.7776 50.1717H76.0419C75.1424 50.2161 74.6778 49.9142 74.6396 49.2635L74.2213 47.2448L72.7848 49.3924C72.445 49.9992 71.9228 50.2821 71.2189 50.2381H68.5685L69.0839 48.4174H69.911C70.2508 48.4174 70.5333 48.2668 70.7878 47.9616L73.0365 44.7108H70.1377L70.6751 42.8276H73.8193L74.3191 41.0736H71.1722L71.7093 39.187ZM27.0035 22.4199H29.2154L28.9622 23.7089L29.2797 23.341C29.9967 22.5739 30.8675 22.1935 31.8955 22.1935C32.8262 22.1935 33.4972 22.4639 33.9189 23.0077C34.3338 23.5515 34.4471 24.3031 34.2505 25.2683L33.0319 31.3488H30.7588L31.859 25.8375C31.9724 25.2683 31.9409 24.8439 31.7663 24.5701C31.5937 24.2967 31.2634 24.1617 30.7869 24.1617C30.2022 24.1617 29.7101 24.3437 29.3091 24.7055C28.9067 25.0703 28.6411 25.5766 28.5104 26.2209L27.4966 31.3488H25.2188L27.0035 22.4199ZM52.3676 22.4199H54.5814L54.33 23.7089L54.6437 23.341C55.3615 22.5739 56.2352 22.1935 57.2603 22.1935C58.1909 22.1935 58.863 22.4639 59.2816 23.0077C59.6941 23.5515 59.8129 24.3031 59.6119 25.2683L58.398 31.3488H56.1219L57.2227 25.8375C57.3357 25.2683 57.3039 24.8439 57.131 24.5701C56.9516 24.2967 56.6278 24.1617 56.1533 24.1617C55.5682 24.1617 55.0782 24.3437 54.6725 24.7055C54.2701 25.0703 54.0028 25.5766 53.8772 26.2209L52.8583 31.3488H50.5835L52.3676 22.4199ZM63.3093 16.8862H69.7357C70.9709 16.8862 71.9269 17.1661 72.5837 17.716C73.2375 18.273 73.5648 19.0713 73.5648 20.1119V20.1434C73.5648 20.3414 73.5519 20.5647 73.533 20.8067C73.5003 21.0524 73.4584 21.2968 73.4074 21.5393C73.1242 22.9163 72.4673 24.0233 71.4521 24.8625C70.4328 25.6987 69.2261 26.12 67.8365 26.12H64.3902L63.3245 31.3485H60.3408L63.3093 16.8862ZM64.9154 23.6053H67.7733C68.5181 23.6053 69.1093 23.4321 69.5408 23.0896C69.9685 22.7437 70.2514 22.2155 70.4078 21.4987C70.4328 21.3664 70.4487 21.247 70.4677 21.137C70.4771 21.0334 70.4897 20.9292 70.4897 20.829C70.4897 20.3163 70.3076 19.9454 69.9425 19.7126C69.578 19.4764 69.0057 19.3637 68.2135 19.3637H65.7865L64.9154 23.6053ZM86.9204 33.075C85.9769 35.0808 85.0781 36.25 84.5502 36.7938C84.0216 37.3319 82.9746 38.5829 80.4531 38.4885L80.6707 36.9579C82.7925 36.3038 83.9397 33.3576 84.5942 32.053L83.8142 22.4449L85.4554 22.4229H86.8324L86.9806 28.45L89.5614 22.4229H92.1745L86.9204 33.075ZM79.6142 23.1492L78.5763 23.8629C77.4917 23.0141 76.5015 22.4889 74.5902 23.3756C71.9868 24.5827 69.8112 33.8422 76.9797 30.7924L77.3881 31.2767L80.2084 31.3491L82.0605 22.9356L79.6142 23.1492ZM78.0101 27.7488C77.5573 29.0852 76.5455 29.9684 75.7529 29.717C74.9607 29.4716 74.6775 28.1826 75.137 26.8432C75.5898 25.5038 76.6084 24.6236 77.3942 24.875C78.1864 25.1204 78.4724 26.4094 78.0101 27.7488Z" fill="white"/>
</g>
<defs>
<clipPath id="clip0_1465_944">
<rect width="100" height="63.88" fill="white"/>
</clipPath>
</defs>
</svg>
