<svg width="67" height="23" viewBox="0 0 67 23" fill="none" xmlns="http://www.w3.org/2000/svg">
<path d="M29.0789 21.926H23.6538L27.0444 1.08852H32.4701L29.0789 21.926ZM19.0899 1.08852L13.9179 15.4207L13.3059 12.3344L13.3065 12.3355L11.481 2.9647C11.481 2.9647 11.2603 1.08852 8.90753 1.08852H0.357166L0.256836 1.44135C0.256836 1.44135 2.87155 1.98536 5.93162 3.82308L10.6449 21.9265H16.2974L24.9286 1.08852H19.0899ZM61.7609 21.926H66.7423L62.3991 1.08797H58.0381C56.0243 1.08797 55.5338 2.64085 55.5338 2.64085L47.4427 21.926H53.098L54.2289 18.8308H61.1255L61.7609 21.926ZM55.7913 14.5551L58.6418 6.75718L60.2454 14.5551H55.7913ZM47.8669 6.09946L48.6411 1.62473C48.6411 1.62473 46.2521 0.716187 43.7617 0.716187C41.0695 0.716187 34.6762 1.89284 34.6762 7.61444C34.6762 12.9977 42.1798 13.0646 42.1798 15.8922C42.1798 18.7199 35.4493 18.2132 33.2281 16.4301L32.4216 21.1089C32.4216 21.1089 34.844 22.2855 38.5451 22.2855C42.2473 22.2855 47.8323 20.3686 47.8323 15.1515C47.8323 9.73364 40.2613 9.2292 40.2613 6.87367C40.2618 4.51759 45.5453 4.82025 47.8669 6.09946Z" fill="#2566AF"/>
</svg>
