<svg width="21" height="24" viewBox="0 0 21 24" fill="none" xmlns="http://www.w3.org/2000/svg">
<path d="M19.1304 0H3.47826C3.01701 0 2.57466 0.180612 2.24851 0.502103C1.92236 0.823593 1.73913 1.25963 1.73913 1.71429V5.14286H0V6.85714H1.73913V11.1429H0V12.8571H1.73913V17.1429H0V18.8571H1.73913V22.2857C1.73913 22.7404 1.92236 23.1764 2.24851 23.4979C2.57466 23.8194 3.01701 24 3.47826 24H19.1304C19.5917 24 20.034 23.8194 20.3602 23.4979C20.6863 23.1764 20.8696 22.7404 20.8696 22.2857V1.71429C20.8696 1.25963 20.6863 0.823593 20.3602 0.502103C20.034 0.180612 19.5917 0 19.1304 0ZM19.1304 22.2857H3.47826V18.8571H5.21739V17.1429H3.47826V12.8571H5.21739V11.1429H3.47826V6.85714H5.21739V5.14286H3.47826V1.71429H19.1304V22.2857Z" fill="white"/>
<path d="M8.34766 5.21741H15.652V6.91306H8.34766V5.21741ZM8.34766 11.1522H15.652V12.8478H8.34766V11.1522ZM8.34766 17.087H15.652V18.7826H8.34766V17.087Z" fill="white"/>
</svg>
