<svg width="21" height="21" viewBox="0 0 21 21" fill="none" xmlns="http://www.w3.org/2000/svg">
<path fill-rule="evenodd" clip-rule="evenodd" d="M20.7435 0.257031C20.8249 0.338301 20.8896 0.434846 20.9337 0.541136C20.9778 0.647427 21.0005 0.761375 21.0005 0.876453C21.0005 0.991531 20.9778 1.10548 20.9337 1.21177C20.8896 1.31806 20.8249 1.4146 20.7435 1.49587L1.4959 20.7434C1.33162 20.9077 1.10881 21 0.876482 21C0.644154 21 0.421342 20.9077 0.257061 20.7434C0.09278 20.5791 0.000488281 20.3563 0.000488281 20.124C0.000488281 19.8917 0.09278 19.6689 0.257061 19.5046L19.5046 0.257031C19.5859 0.175556 19.6824 0.110914 19.7887 0.0668088C19.895 0.0227031 20.009 0 20.124 0C20.2391 0 20.3531 0.0227031 20.4594 0.0668088C20.5656 0.110914 20.6622 0.175556 20.7435 0.257031Z" fill="white"/>
<path fill-rule="evenodd" clip-rule="evenodd" d="M0.257031 0.257031C0.175556 0.338301 0.110914 0.434846 0.0668088 0.541136C0.0227031 0.647427 0 0.761375 0 0.876453C0 0.991531 0.0227031 1.10548 0.0668088 1.21177C0.110914 1.31806 0.175556 1.4146 0.257031 1.49587L19.5046 20.7434C19.6689 20.9077 19.8917 21 20.124 21C20.3563 21 20.5791 20.9077 20.7434 20.7434C20.9077 20.5791 21 20.3563 21 20.124C21 19.8917 20.9077 19.6689 20.7434 19.5046L1.49587 0.257031C1.4146 0.175556 1.31806 0.110914 1.21177 0.0668088C1.10548 0.0227031 0.991531 0 0.876453 0C0.761375 0 0.647427 0.0227031 0.541136 0.0668088C0.434846 0.110914 0.338301 0.175556 0.257031 0.257031Z" fill="white"/>
</svg>
