<svg width="225" height="14" viewBox="0 0 225 14" fill="none" xmlns="http://www.w3.org/2000/svg">
<path d="M17.8015 1.50873V10.7015H16.4738V2.60974H11.9156V10.7015H10.5878V1.50873H17.8015Z" fill="#00365B"/>
<path d="M25.0182 7.26583C25.0182 6.46108 24.8129 5.84203 24.4022 5.4087C23.9916 4.97537 23.4441 4.75871 22.7596 4.75871C22.3764 4.75871 22.0752 4.77197 21.8562 4.7985C21.6463 4.82503 21.4775 4.85598 21.3498 4.89136V9.24235C21.5049 9.36616 21.7285 9.48555 22.0205 9.60051C22.3125 9.71548 22.6319 9.77296 22.9787 9.77296C23.3437 9.77296 23.6539 9.71105 23.9095 9.58724C24.1741 9.45459 24.3885 9.27772 24.5528 9.05664C24.7171 8.82671 24.8357 8.5614 24.9087 8.26072C24.9817 7.9512 25.0182 7.61957 25.0182 7.26583ZM26.346 7.26583C26.346 7.7876 26.273 8.26957 26.1269 8.71174C25.9901 9.15391 25.7847 9.53418 25.511 9.85255C25.2372 10.1709 24.8996 10.4185 24.4981 10.5954C24.1057 10.7723 23.6539 10.8607 23.1429 10.8607C22.7323 10.8607 22.3673 10.8076 22.0479 10.7015C21.7376 10.5954 21.5049 10.4937 21.3498 10.3964V13.1556H20.0768V4.01585C20.3779 3.94511 20.752 3.86994 21.1992 3.79035C21.6555 3.70191 22.1802 3.65769 22.7733 3.65769C23.3209 3.65769 23.8136 3.74171 24.2517 3.90973C24.6897 4.07776 25.0638 4.31653 25.3741 4.62605C25.6844 4.93558 25.9216 5.31585 26.0859 5.76686C26.2593 6.20904 26.346 6.70869 26.346 7.26583Z" fill="#00365B"/>
<path d="M34.4202 7.25257C34.4202 7.80086 34.3381 8.2961 34.1738 8.73827C34.0095 9.18044 33.7768 9.56071 33.4757 9.87908C33.1837 10.1974 32.8324 10.4451 32.4217 10.6219C32.0111 10.79 31.5639 10.874 31.0803 10.874C30.5966 10.874 30.1495 10.79 29.7388 10.6219C29.3282 10.4451 28.9723 10.1974 28.6711 9.87908C28.3791 9.56071 28.151 9.18044 27.9867 8.73827C27.8225 8.2961 27.7403 7.80086 27.7403 7.25257C27.7403 6.71311 27.8225 6.2223 27.9867 5.78013C28.151 5.32911 28.3791 4.94442 28.6711 4.62605C28.9723 4.30769 29.3282 4.06449 29.7388 3.89647C30.1495 3.7196 30.5966 3.63116 31.0803 3.63116C31.5639 3.63116 32.0111 3.7196 32.4217 3.89647C32.8324 4.06449 33.1837 4.30769 33.4757 4.62605C33.7768 4.94442 34.0095 5.32911 34.1738 5.78013C34.3381 6.2223 34.4202 6.71311 34.4202 7.25257ZM33.0924 7.25257C33.0924 6.47434 32.9099 5.85972 32.5449 5.4087C32.189 4.94884 31.7008 4.71891 31.0803 4.71891C30.4597 4.71891 29.967 4.94884 29.6019 5.4087C29.246 5.85972 29.0681 6.47434 29.0681 7.25257C29.0681 8.03079 29.246 8.64984 29.6019 9.1097C29.967 9.56071 30.4597 9.78622 31.0803 9.78622C31.7008 9.78622 32.189 9.56071 32.5449 9.1097C32.9099 8.64984 33.0924 8.03079 33.0924 7.25257Z" fill="#00365B"/>
<path d="M42.193 3.80361V10.7015H40.961V5.4485C40.6873 5.78455 40.3861 6.17808 40.0576 6.6291C39.7291 7.08012 39.4006 7.54882 39.072 8.03521C38.7435 8.51276 38.4287 8.98589 38.1276 9.45459C37.8264 9.9233 37.5663 10.3389 37.3473 10.7015H36.2112V3.80361H37.4431V8.7648C37.6804 8.38453 37.9496 7.96889 38.2507 7.51787C38.5519 7.05801 38.8622 6.60699 39.1815 6.16482C39.5101 5.7138 39.834 5.28489 40.1534 4.87809C40.4819 4.46245 40.7876 4.10429 41.0705 3.80361H42.193Z" fill="#00365B"/>
<path d="M46.1855 3.63116C46.5962 3.63116 46.9794 3.67096 47.3353 3.75055C47.6912 3.83014 47.9969 3.94953 48.2524 4.10871C48.508 4.26789 48.7087 4.46687 48.8547 4.70565C49.0007 4.94442 49.0737 5.22299 49.0737 5.54135C49.0737 5.74475 49.0372 5.93047 48.9642 6.09849C48.8912 6.26652 48.8 6.41686 48.6905 6.54951C48.581 6.68216 48.4578 6.79713 48.3209 6.89441C48.1931 6.98284 48.0699 7.04474 47.9513 7.08012C48.3711 7.20393 48.6996 7.42501 48.9369 7.74338C49.1833 8.0529 49.3064 8.44644 49.3064 8.92398C49.3064 9.5784 49.0327 10.0648 48.4851 10.3832C47.9376 10.7015 47.1939 10.8607 46.254 10.8607C45.6791 10.8607 45.1817 10.8165 44.762 10.7281C44.3513 10.6396 44.0593 10.5556 43.8859 10.476L44.1049 9.42806C44.2509 9.48112 44.511 9.55629 44.8851 9.65357C45.2684 9.74201 45.7247 9.78622 46.254 9.78622C46.8289 9.78622 47.2669 9.70221 47.568 9.53418C47.8692 9.35732 48.0197 9.09643 48.0197 8.75154C48.0197 8.50392 47.9604 8.30494 47.8418 8.1546C47.7323 7.99542 47.5909 7.87603 47.4175 7.79644C47.2441 7.71685 47.057 7.66379 46.8562 7.63726C46.6555 7.61073 46.4684 7.59746 46.295 7.59746H45.1042V6.61584H46.254C46.4182 6.61584 46.587 6.60699 46.7604 6.58931C46.9429 6.56278 47.1072 6.51414 47.2532 6.44339C47.4083 6.37264 47.5361 6.27536 47.6365 6.15155C47.7369 6.0189 47.7871 5.84645 47.7871 5.63421C47.7871 5.46618 47.7414 5.32469 47.6502 5.20972C47.568 5.08591 47.454 4.98421 47.308 4.90462C47.162 4.82503 46.9886 4.76755 46.7878 4.73218C46.5962 4.68796 46.3954 4.66585 46.1855 4.66585C46.0213 4.66585 45.8433 4.67911 45.6517 4.70565C45.46 4.73218 45.273 4.76755 45.0905 4.81177C44.908 4.84714 44.7437 4.88694 44.5977 4.93115C44.4517 4.97537 44.3467 5.01517 44.2829 5.05054L44.0502 3.98932C44.1232 3.96279 44.2372 3.92742 44.3924 3.8832C44.5475 3.83898 44.7209 3.79919 44.9125 3.76382C45.1133 3.72844 45.3232 3.69749 45.5422 3.67096C45.7612 3.64443 45.9756 3.63116 46.1855 3.63116Z" fill="#00365B"/>
<path d="M52.3214 9.77296C52.3761 9.7818 52.4537 9.79064 52.5541 9.79949C52.6545 9.80833 52.7685 9.81718 52.8963 9.82602C53.024 9.82602 53.1564 9.83044 53.2932 9.83928C53.4392 9.83928 53.5761 9.83928 53.7039 9.83928C53.9685 9.83928 54.2195 9.8216 54.4567 9.78622C54.7031 9.75085 54.913 9.68894 55.0864 9.60051C55.2689 9.51208 55.4103 9.39711 55.5107 9.25562C55.6202 9.10528 55.675 8.91514 55.675 8.68521C55.675 8.46412 55.6248 8.28283 55.5244 8.14134C55.4332 7.991 55.3054 7.87161 55.1411 7.78317C54.9769 7.69474 54.7807 7.63284 54.5526 7.59746C54.3335 7.56209 54.0963 7.5444 53.8408 7.5444H52.3214V9.77296ZM53.6765 6.6291C53.9229 6.6291 54.1465 6.61584 54.3472 6.58931C54.5571 6.55393 54.7351 6.49645 54.8811 6.41686C55.0362 6.33727 55.1548 6.23115 55.237 6.09849C55.3282 5.96584 55.3738 5.79781 55.3738 5.59441C55.3738 5.38217 55.3191 5.21415 55.2096 5.09034C55.1001 4.96653 54.9541 4.87367 54.7716 4.81177C54.5982 4.74102 54.3974 4.6968 54.1693 4.67911C53.9503 4.65258 53.7267 4.63932 53.4986 4.63932C53.2887 4.63932 53.0742 4.64374 52.8552 4.65258C52.6453 4.66143 52.4674 4.67027 52.3214 4.67911V6.6291H53.6765ZM53.6491 10.8209C53.1107 10.8209 52.6134 10.7944 52.1571 10.7413C51.7008 10.6971 51.3404 10.644 51.0757 10.5821V3.86994C51.3404 3.80803 51.7008 3.75497 52.1571 3.71075C52.6134 3.65769 53.1107 3.63116 53.6491 3.63116C54.0233 3.63116 54.3883 3.66211 54.7442 3.72402C55.1001 3.78592 55.4149 3.89204 55.6887 4.04238C55.9624 4.18388 56.1815 4.38286 56.3457 4.63932C56.5191 4.88694 56.6058 5.19646 56.6058 5.56788C56.6058 5.90394 56.5191 6.19135 56.3457 6.43012C56.1723 6.6689 55.9396 6.85461 55.6476 6.98726C56.04 7.11991 56.3503 7.31889 56.5784 7.5842C56.8157 7.84066 56.9343 8.20324 56.9343 8.67194C56.9343 9.08759 56.8476 9.43248 56.6742 9.70663C56.51 9.98078 56.2773 10.2019 55.9761 10.3699C55.6841 10.5379 55.3373 10.6529 54.9358 10.7148C54.5343 10.7855 54.1054 10.8209 53.6491 10.8209Z" fill="#00365B"/>
<path d="M64.8577 7.25257C64.8577 7.80086 64.7756 8.2961 64.6114 8.73827C64.4471 9.18044 64.2144 9.56071 63.9133 9.87908C63.6212 10.1974 63.2699 10.4451 62.8593 10.6219C62.4486 10.79 62.0015 10.874 61.5178 10.874C61.0342 10.874 60.587 10.79 60.1764 10.6219C59.7657 10.4451 59.4098 10.1974 59.1087 9.87908C58.8167 9.56071 58.5885 9.18044 58.4243 8.73827C58.26 8.2961 58.1779 7.80086 58.1779 7.25257C58.1779 6.71311 58.26 6.2223 58.4243 5.78013C58.5885 5.32911 58.8167 4.94442 59.1087 4.62605C59.4098 4.30769 59.7657 4.06449 60.1764 3.89647C60.587 3.7196 61.0342 3.63116 61.5178 3.63116C62.0015 3.63116 62.4486 3.7196 62.8593 3.89647C63.2699 4.06449 63.6212 4.30769 63.9133 4.62605C64.2144 4.94442 64.4471 5.32911 64.6114 5.78013C64.7756 6.2223 64.8577 6.71311 64.8577 7.25257ZM63.53 7.25257C63.53 6.47434 63.3475 5.85972 62.9825 5.4087C62.6266 4.94884 62.1384 4.71891 61.5178 4.71891C60.8973 4.71891 60.4045 4.94884 60.0395 5.4087C59.6836 5.85972 59.5057 6.47434 59.5057 7.25257C59.5057 8.03079 59.6836 8.64984 60.0395 9.1097C60.4045 9.56071 60.8973 9.78622 61.5178 9.78622C62.1384 9.78622 62.6266 9.56071 62.9825 9.1097C63.3475 8.64984 63.53 8.03079 63.53 7.25257Z" fill="#00365B"/>
<path d="M65.7727 9.69337H66.5393C66.8404 9.26888 67.0777 8.83113 67.251 8.38011C67.4336 7.92909 67.5704 7.46481 67.6617 6.98726C67.7529 6.50087 67.8123 5.99679 67.8396 5.47503C67.867 4.94442 67.8853 4.38728 67.8944 3.80361H72.5621V9.69337H73.5202V12.625H72.3157V10.7015H66.9773V12.625H65.7727V9.69337ZM71.2891 9.69337V4.8383H69.0579C69.0488 5.25394 69.0259 5.67401 68.9894 6.09849C68.9529 6.51414 68.8936 6.92978 68.8115 7.34542C68.7294 7.75222 68.6107 8.1546 68.4556 8.55256C68.3096 8.94167 68.1225 9.32194 67.8944 9.69337H71.2891Z" fill="#00365B"/>
<path d="M77.99 10.8607C77.4151 10.8607 76.9086 10.7723 76.4706 10.5954C76.0417 10.4185 75.6767 10.1709 75.3755 9.85255C75.0835 9.53418 74.8645 9.15834 74.7185 8.72501C74.5725 8.28283 74.4995 7.79644 74.4995 7.26583C74.4995 6.73522 74.5771 6.24883 74.7322 5.80666C74.8964 5.36448 75.1246 4.98421 75.4166 4.66585C75.7086 4.33864 76.0645 4.0866 76.4843 3.90973C76.9132 3.72402 77.3877 3.63116 77.9079 3.63116C78.2272 3.63116 78.5466 3.65769 78.866 3.71075C79.1854 3.76381 79.4911 3.84783 79.7831 3.96279L79.4957 5.01075C79.304 4.92231 79.0805 4.85156 78.825 4.7985C78.5786 4.74544 78.3139 4.71891 78.031 4.71891C77.3193 4.71891 76.7717 4.93558 76.3885 5.36891C76.0143 5.80224 75.8272 6.43455 75.8272 7.26583C75.8272 7.63726 75.8683 7.97773 75.9504 8.28725C76.0417 8.59678 76.1786 8.86208 76.3611 9.08317C76.5527 9.30425 76.7945 9.4767 77.0866 9.60051C77.3786 9.71548 77.7345 9.77296 78.1542 9.77296C78.4919 9.77296 78.7976 9.74201 79.0714 9.6801C79.3451 9.6182 79.5596 9.55187 79.7147 9.48112L79.8926 10.5158C79.8196 10.56 79.7147 10.6042 79.5778 10.6485C79.4409 10.6838 79.2858 10.7148 79.1124 10.7413C78.939 10.7767 78.752 10.8032 78.5512 10.8209C78.3596 10.8474 78.1725 10.8607 77.99 10.8607Z" fill="#00365B"/>
<path d="M86.4834 3.80361V4.8383H84.1701V10.7015H82.8971V4.8383H80.5838V3.80361H86.4834Z" fill="#00365B"/>
<path d="M89.0416 9.77296C89.0964 9.7818 89.1739 9.79064 89.2743 9.79949C89.3747 9.80833 89.4888 9.81718 89.6165 9.82602C89.7443 9.82602 89.8766 9.83044 90.0135 9.83928C90.1595 9.83928 90.2964 9.83928 90.4241 9.83928C90.6888 9.83928 90.9397 9.8216 91.177 9.78622C91.4234 9.75085 91.6332 9.68894 91.8066 9.60051C91.9891 9.51208 92.1306 9.39711 92.231 9.25562C92.3405 9.10528 92.3952 8.91514 92.3952 8.68521C92.3952 8.46412 92.345 8.28283 92.2447 8.14134C92.1534 7.991 92.0256 7.87161 91.8614 7.78317C91.6971 7.69474 91.5009 7.63284 91.2728 7.59746C91.0538 7.56209 90.8165 7.5444 90.561 7.5444H89.0416V9.77296ZM90.3967 6.6291C90.6431 6.6291 90.8667 6.61584 91.0675 6.58931C91.2774 6.55393 91.4553 6.49645 91.6013 6.41686C91.7564 6.33727 91.8751 6.23115 91.9572 6.09849C92.0485 5.96584 92.0941 5.79781 92.0941 5.59441C92.0941 5.38217 92.0393 5.21415 91.9298 5.09034C91.8203 4.96653 91.6743 4.87367 91.4918 4.81177C91.3184 4.74102 91.1177 4.6968 90.8895 4.67911C90.6705 4.65258 90.4469 4.63932 90.2188 4.63932C90.0089 4.63932 89.7945 4.64374 89.5754 4.65258C89.3656 4.66143 89.1876 4.67027 89.0416 4.67911V6.6291H90.3967ZM90.3694 10.8209C89.831 10.8209 89.3336 10.7944 88.8773 10.7413C88.4211 10.6971 88.0606 10.644 87.796 10.5821V3.86994C88.0606 3.80803 88.4211 3.75497 88.8773 3.71075C89.3336 3.65769 89.831 3.63116 90.3694 3.63116C90.7435 3.63116 91.1085 3.66211 91.4644 3.72402C91.8203 3.78592 92.1351 3.89204 92.4089 4.04238C92.6827 4.18388 92.9017 4.38286 93.0659 4.63932C93.2393 4.88694 93.326 5.19646 93.326 5.56788C93.326 5.90394 93.2393 6.19135 93.0659 6.43012C92.8926 6.6689 92.6599 6.85461 92.3678 6.98726C92.7602 7.11991 93.0705 7.31889 93.2986 7.5842C93.5359 7.84066 93.6545 8.20324 93.6545 8.67194C93.6545 9.08759 93.5679 9.43248 93.3945 9.70663C93.2302 9.98078 92.9975 10.2019 92.6964 10.3699C92.4043 10.5379 92.0576 10.6529 91.6561 10.7148C91.2545 10.7855 90.8256 10.8209 90.3694 10.8209Z" fill="#00365B"/>
<path d="M101.578 7.25257C101.578 7.80086 101.496 8.2961 101.332 8.73827C101.167 9.18044 100.935 9.56071 100.633 9.87908C100.341 10.1974 99.9902 10.4451 99.5795 10.6219C99.1689 10.79 98.7217 10.874 98.2381 10.874C97.7544 10.874 97.3073 10.79 96.8966 10.6219C96.486 10.4451 96.1301 10.1974 95.8289 9.87908C95.5369 9.56071 95.3088 9.18044 95.1445 8.73827C94.9803 8.2961 94.8981 7.80086 94.8981 7.25257C94.8981 6.71311 94.9803 6.2223 95.1445 5.78013C95.3088 5.32911 95.5369 4.94442 95.8289 4.62605C96.1301 4.30769 96.486 4.06449 96.8966 3.89647C97.3073 3.7196 97.7544 3.63116 98.2381 3.63116C98.7217 3.63116 99.1689 3.7196 99.5795 3.89647C99.9902 4.06449 100.341 4.30769 100.633 4.62605C100.935 4.94442 101.167 5.32911 101.332 5.78013C101.496 6.2223 101.578 6.71311 101.578 7.25257ZM100.25 7.25257C100.25 6.47434 100.068 5.85972 99.7027 5.4087C99.3468 4.94884 98.8586 4.71891 98.2381 4.71891C97.6175 4.71891 97.1247 4.94884 96.7597 5.4087C96.4038 5.85972 96.2259 6.47434 96.2259 7.25257C96.2259 8.03079 96.4038 8.64984 96.7597 9.1097C97.1247 9.56071 97.6175 9.78622 98.2381 9.78622C98.8586 9.78622 99.3468 9.56071 99.7027 9.1097C100.068 8.64984 100.25 8.03079 100.25 7.25257Z" fill="#00365B"/>
<path d="M107.892 5.62094C107.801 6.49645 107.733 7.37195 107.687 8.24746C107.641 9.11412 107.605 9.93214 107.577 10.7015H106.359C106.377 10.1621 106.405 9.60051 106.441 9.01684C106.478 8.42433 106.519 7.83182 106.564 7.2393C106.61 6.63795 106.66 6.04985 106.715 5.47503C106.77 4.89136 106.829 4.33422 106.893 3.80361H108.056C108.348 4.26347 108.691 4.89578 109.083 5.70054C109.475 6.49645 109.927 7.41617 110.438 8.4597C110.949 7.41617 111.401 6.49645 111.793 5.70054C112.186 4.89578 112.528 4.26347 112.82 3.80361H113.997C114.061 4.33422 114.12 4.89136 114.175 5.47503C114.23 6.04985 114.28 6.63795 114.326 7.2393C114.371 7.83182 114.412 8.42433 114.449 9.01684C114.485 9.60051 114.513 10.1621 114.531 10.7015H113.272C113.244 9.93214 113.208 9.11412 113.162 8.24746C113.117 7.37195 113.048 6.49645 112.957 5.62094C112.811 5.89509 112.642 6.22672 112.45 6.61584C112.259 6.99611 112.067 7.38522 111.875 7.78317C111.693 8.18113 111.52 8.5614 111.355 8.92398C111.191 9.28657 111.063 9.57398 110.972 9.78622H109.904C109.804 9.56514 109.667 9.2733 109.494 8.91072C109.329 8.54814 109.152 8.16787 108.96 7.76991C108.777 7.36311 108.59 6.96958 108.399 6.58931C108.207 6.20019 108.038 5.87741 107.892 5.62094Z" fill="#00365B"/>
<path d="M116.152 7.26583C116.152 6.65563 116.244 6.12502 116.426 5.67401C116.609 5.21414 116.85 4.83388 117.152 4.5332C117.453 4.23252 117.799 4.00701 118.192 3.85667C118.584 3.70633 118.986 3.63116 119.396 3.63116C120.355 3.63116 121.089 3.923 121.6 4.50667C122.111 5.08149 122.367 5.96142 122.367 7.14645C122.367 7.19951 122.367 7.27025 122.367 7.35869C122.367 7.43828 122.362 7.51345 122.353 7.5842H117.48C117.535 8.30052 117.749 8.84439 118.123 9.21582C118.498 9.58724 119.082 9.77296 119.875 9.77296C120.323 9.77296 120.697 9.73759 120.998 9.66684C121.308 9.58725 121.541 9.51208 121.696 9.44133L121.874 10.476C121.719 10.5556 121.445 10.6396 121.053 10.7281C120.669 10.8165 120.231 10.8607 119.739 10.8607C119.118 10.8607 118.58 10.7723 118.123 10.5954C117.676 10.4097 117.307 10.1576 117.015 9.83928C116.723 9.52092 116.504 9.14507 116.358 8.71174C116.221 8.26957 116.152 7.7876 116.152 7.26583ZM121.039 6.58931C121.048 6.03217 120.902 5.57673 120.601 5.22299C120.309 4.86041 119.903 4.67911 119.383 4.67911C119.091 4.67911 118.831 4.7366 118.602 4.85156C118.383 4.95768 118.196 5.09918 118.041 5.27605C117.886 5.45292 117.763 5.65632 117.672 5.88625C117.59 6.11618 117.535 6.35053 117.507 6.58931H121.039Z" fill="#00365B"/>
<path d="M125.345 4.59952C125.628 4.37844 125.957 4.21041 126.331 4.09544C126.714 3.97164 127.079 3.90973 127.426 3.90973C128.448 3.90973 129.219 4.21483 129.739 4.82503C130.268 5.42639 130.533 6.26652 130.533 7.34542C130.533 7.80528 130.469 8.24746 130.341 8.67194C130.214 9.09643 130.013 9.47228 129.739 9.79949C129.474 10.1267 129.137 10.3876 128.726 10.5821C128.316 10.7767 127.827 10.874 127.262 10.874C126.614 10.874 126.075 10.759 125.646 10.5291C125.217 10.2991 124.875 9.9852 124.62 9.58724C124.373 9.18929 124.2 8.72501 124.1 8.1944C123.999 7.66379 123.949 7.10223 123.949 6.50971C123.949 5.74033 124.004 5.02401 124.113 4.36075C124.232 3.69749 124.442 3.11382 124.743 2.60974C125.044 2.10566 125.459 1.69002 125.989 1.36281C126.527 1.02676 127.216 0.801249 128.055 0.686284C128.302 0.65091 128.516 0.62438 128.699 0.606693C128.89 0.580162 129.055 0.558054 129.192 0.540367C129.338 0.52268 129.47 0.504993 129.589 0.487306C129.707 0.460775 129.83 0.434245 129.958 0.407715L130.095 1.52199C130.031 1.53968 129.963 1.55295 129.89 1.56179C129.826 1.57063 129.73 1.5839 129.602 1.60158C129.484 1.61927 129.319 1.64138 129.109 1.66791C128.909 1.69444 128.644 1.72539 128.316 1.76077C127.412 1.85805 126.719 2.12335 126.235 2.55668C125.751 2.99001 125.455 3.67096 125.345 4.59952ZM125.263 6.70869C125.263 7.12434 125.29 7.51787 125.345 7.8893C125.409 8.26072 125.514 8.58793 125.66 8.87092C125.815 9.15391 126.02 9.37942 126.276 9.54745C126.532 9.70663 126.86 9.78622 127.262 9.78622C127.608 9.78622 127.905 9.72432 128.151 9.60051C128.398 9.46786 128.598 9.29099 128.754 9.0699C128.909 8.84881 129.023 8.59235 129.096 8.30052C129.169 7.99984 129.205 7.68148 129.205 7.34542C129.205 7.04475 129.173 6.75291 129.109 6.46992C129.055 6.18693 128.95 5.93489 128.795 5.7138C128.639 5.49271 128.43 5.31585 128.165 5.18319C127.909 5.05054 127.586 4.98421 127.193 4.98421C126.81 4.98421 126.44 5.06381 126.084 5.22299C125.738 5.38217 125.468 5.57673 125.277 5.80666C125.268 5.90394 125.263 6.04101 125.263 6.21788C125.263 6.39475 125.263 6.55835 125.263 6.70869Z" fill="#00365B"/>
<path d="M131.939 7.26583C131.939 6.65563 132.03 6.12502 132.213 5.67401C132.395 5.21414 132.637 4.83388 132.938 4.5332C133.24 4.23252 133.586 4.00701 133.979 3.85667C134.371 3.70633 134.773 3.63116 135.183 3.63116C136.141 3.63116 136.876 3.923 137.387 4.50667C137.898 5.08149 138.154 5.96142 138.154 7.14645C138.154 7.19951 138.154 7.27025 138.154 7.35869C138.154 7.43828 138.149 7.51345 138.14 7.5842H133.267C133.322 8.30052 133.536 8.84439 133.91 9.21582C134.284 9.58724 134.868 9.77296 135.662 9.77296C136.11 9.77296 136.484 9.73759 136.785 9.66684C137.095 9.58725 137.328 9.51208 137.483 9.44133L137.661 10.476C137.506 10.5556 137.232 10.6396 136.84 10.7281C136.456 10.8165 136.018 10.8607 135.525 10.8607C134.905 10.8607 134.367 10.7723 133.91 10.5954C133.463 10.4097 133.094 10.1576 132.802 9.83928C132.51 9.52092 132.291 9.14507 132.145 8.71174C132.008 8.26957 131.939 7.7876 131.939 7.26583ZM136.826 6.58931C136.835 6.03217 136.689 5.57673 136.388 5.22299C136.096 4.86041 135.69 4.67911 135.17 4.67911C134.878 4.67911 134.618 4.7366 134.389 4.85156C134.17 4.95768 133.983 5.09918 133.828 5.27605C133.673 5.45292 133.55 5.65632 133.459 5.88625C133.376 6.11618 133.322 6.35053 133.294 6.58931H136.826Z" fill="#00365B"/>
<path d="M142.46 4.8383C142.46 5.13013 142.451 5.44408 142.432 5.78013C142.423 6.10734 142.401 6.43897 142.364 6.77502C142.328 7.10223 142.277 7.42944 142.213 7.75665C142.15 8.07501 142.067 8.37569 141.967 8.65868C141.867 8.94167 141.739 9.20697 141.584 9.45459C141.438 9.70221 141.255 9.9233 141.036 10.1179C140.817 10.3036 140.562 10.4627 140.27 10.5954C139.978 10.7192 139.636 10.7988 139.243 10.8342L139.065 9.79949C139.512 9.71105 139.864 9.54745 140.119 9.30868C140.384 9.0699 140.594 8.77807 140.749 8.43317C140.886 8.13249 140.986 7.79202 141.05 7.41175C141.114 7.03148 141.159 6.63795 141.187 6.23115C141.214 5.8155 141.228 5.39986 141.228 4.98421C141.237 4.56857 141.242 4.17504 141.242 3.80361H145.978V10.7015H144.705V4.8383H142.46Z" fill="#00365B"/>
<path d="M154.145 3.80361V10.7015H152.913V5.4485C152.639 5.78455 152.338 6.17808 152.01 6.6291C151.681 7.08012 151.352 7.54882 151.024 8.03521C150.695 8.51276 150.381 8.98589 150.079 9.45459C149.778 9.9233 149.518 10.3389 149.299 10.7015H148.163V3.80361H149.395V8.7648C149.632 8.38453 149.902 7.96889 150.203 7.51787C150.504 7.05801 150.814 6.60699 151.133 6.16482C151.462 5.7138 151.786 5.28489 152.105 4.87809C152.434 4.46245 152.74 4.10429 153.022 3.80361H154.145Z" fill="#00365B"/>
<path d="M165.48 3.80361V10.7015H164.248V5.4485C163.975 5.78455 163.674 6.17808 163.345 6.6291C163.017 7.08012 162.688 7.54882 162.36 8.03521C162.031 8.51276 161.716 8.98589 161.415 9.45459C161.114 9.9233 160.854 10.3389 160.635 10.7015H159.499V3.80361H160.731V8.7648C160.968 8.38453 161.237 7.96889 161.538 7.51787C161.839 7.05801 162.15 6.60699 162.469 6.16482C162.798 5.7138 163.121 5.28489 163.441 4.87809C163.769 4.46245 164.075 4.10429 164.358 3.80361H165.48Z" fill="#00365B"/>
<path d="M169.958 9.69337H170.725C171.026 9.26888 171.263 8.83113 171.437 8.38011C171.619 7.92909 171.756 7.46481 171.847 6.98726C171.938 6.50087 171.998 5.99679 172.025 5.47503C172.052 4.94442 172.071 4.38728 172.08 3.80361H176.748V9.69337H177.706V12.625H176.501V10.7015H171.163V12.625H169.958V9.69337ZM175.475 9.69337V4.8383H173.243C173.234 5.25394 173.211 5.67401 173.175 6.09849C173.138 6.51414 173.079 6.92978 172.997 7.34542C172.915 7.75222 172.796 8.1546 172.641 8.55256C172.495 8.94167 172.308 9.32194 172.08 9.69337H175.475Z" fill="#00365B"/>
<path d="M178.685 7.26583C178.685 6.65563 178.776 6.12502 178.959 5.67401C179.141 5.21414 179.383 4.83388 179.684 4.5332C179.985 4.23252 180.332 4.00701 180.725 3.85667C181.117 3.70633 181.518 3.63116 181.929 3.63116C182.887 3.63116 183.622 3.923 184.133 4.50667C184.644 5.08149 184.899 5.96142 184.899 7.14645C184.899 7.19951 184.899 7.27025 184.899 7.35869C184.899 7.43828 184.895 7.51345 184.886 7.5842H180.013C180.067 8.30052 180.282 8.84439 180.656 9.21582C181.03 9.58724 181.614 9.77296 182.408 9.77296C182.855 9.77296 183.229 9.73759 183.531 9.66684C183.841 9.58725 184.074 9.51208 184.229 9.44133L184.407 10.476C184.252 10.5556 183.978 10.6396 183.585 10.7281C183.202 10.8165 182.764 10.8607 182.271 10.8607C181.651 10.8607 181.112 10.7723 180.656 10.5954C180.209 10.4097 179.839 10.1576 179.547 9.83928C179.255 9.52092 179.036 9.14507 178.89 8.71174C178.753 8.26957 178.685 7.7876 178.685 7.26583ZM183.572 6.58931C183.581 6.03217 183.435 5.57673 183.134 5.22299C182.842 4.86041 182.436 4.67911 181.915 4.67911C181.623 4.67911 181.363 4.7366 181.135 4.85156C180.916 4.95768 180.729 5.09918 180.574 5.27605C180.419 5.45292 180.296 5.65632 180.204 5.88625C180.122 6.11618 180.067 6.35053 180.04 6.58931H183.572Z" fill="#00365B"/>
<path d="M189.329 6.94747C189.612 7.14202 189.917 7.38964 190.246 7.69032C190.574 7.98215 190.894 8.30052 191.204 8.64541C191.524 8.99031 191.82 9.34405 192.094 9.70663C192.368 10.0604 192.6 10.392 192.792 10.7015H191.286C191.085 10.4008 190.848 10.0957 190.574 9.78622C190.31 9.46786 190.032 9.16276 189.739 8.87092C189.447 8.57909 189.151 8.30936 188.85 8.06175C188.549 7.81413 188.266 7.60631 188.001 7.43828V10.7015H186.728V3.80361H188.001V6.76175C188.22 6.55835 188.471 6.324 188.754 6.0587C189.037 5.78455 189.32 5.5104 189.603 5.23625C189.895 4.95326 190.164 4.68796 190.41 4.44034C190.657 4.18388 190.857 3.97164 191.012 3.80361H192.491C192.29 4.01585 192.053 4.25905 191.779 4.5332C191.514 4.7985 191.236 5.07265 190.944 5.35564C190.661 5.63863 190.378 5.92162 190.095 6.20461C189.812 6.47876 189.557 6.72638 189.329 6.94747Z" fill="#00365B"/>
<path d="M199.962 7.25257C199.962 7.80086 199.88 8.2961 199.716 8.73827C199.551 9.18044 199.319 9.56071 199.018 9.87908C198.726 10.1974 198.374 10.4451 197.964 10.6219C197.553 10.79 197.106 10.874 196.622 10.874C196.138 10.874 195.691 10.79 195.281 10.6219C194.87 10.4451 194.514 10.1974 194.213 9.87908C193.921 9.56071 193.693 9.18044 193.529 8.73827C193.364 8.2961 193.282 7.80086 193.282 7.25257C193.282 6.71311 193.364 6.2223 193.529 5.78013C193.693 5.32911 193.921 4.94442 194.213 4.62605C194.514 4.30769 194.87 4.06449 195.281 3.89647C195.691 3.7196 196.138 3.63116 196.622 3.63116C197.106 3.63116 197.553 3.7196 197.964 3.89647C198.374 4.06449 198.726 4.30769 199.018 4.62605C199.319 4.94442 199.551 5.32911 199.716 5.78013C199.88 6.2223 199.962 6.71311 199.962 7.25257ZM198.634 7.25257C198.634 6.47434 198.452 5.85972 198.087 5.4087C197.731 4.94884 197.243 4.71891 196.622 4.71891C196.002 4.71891 195.509 4.94884 195.144 5.4087C194.788 5.85972 194.61 6.47434 194.61 7.25257C194.61 8.03079 194.788 8.64984 195.144 9.1097C195.509 9.56071 196.002 9.78622 196.622 9.78622C197.243 9.78622 197.731 9.56071 198.087 9.1097C198.452 8.64984 198.634 8.03079 198.634 7.25257Z" fill="#00365B"/>
<path d="M206.694 7.26583C206.694 6.46108 206.489 5.84203 206.079 5.4087C205.668 4.97537 205.12 4.75871 204.436 4.75871C204.053 4.75871 203.752 4.77197 203.533 4.7985C203.323 4.82503 203.154 4.85598 203.026 4.89136V9.24235C203.181 9.36616 203.405 9.48555 203.697 9.60051C203.989 9.71548 204.308 9.77296 204.655 9.77296C205.02 9.77296 205.33 9.71105 205.586 9.58724C205.85 9.45459 206.065 9.27772 206.229 9.05664C206.393 8.82671 206.512 8.5614 206.585 8.26072C206.658 7.9512 206.694 7.61957 206.694 7.26583ZM208.022 7.26583C208.022 7.7876 207.949 8.26957 207.803 8.71174C207.666 9.15391 207.461 9.53418 207.187 9.85255C206.913 10.1709 206.576 10.4185 206.174 10.5954C205.782 10.7723 205.33 10.8607 204.819 10.8607C204.409 10.8607 204.044 10.8076 203.724 10.7015C203.414 10.5954 203.181 10.4937 203.026 10.3964V13.1556H201.753V4.01585C202.054 3.94511 202.428 3.86994 202.875 3.79035C203.332 3.70191 203.856 3.65769 204.45 3.65769C204.997 3.65769 205.49 3.74171 205.928 3.90973C206.366 4.07776 206.74 4.31653 207.05 4.62605C207.361 4.93558 207.598 5.31585 207.762 5.76686C207.936 6.20904 208.022 6.70869 208.022 7.26583Z" fill="#00365B"/>
<path d="M212.223 9.81275C212.524 9.81275 212.788 9.80833 213.017 9.79949C213.254 9.7818 213.45 9.75527 213.605 9.7199V7.66379C213.514 7.61957 213.363 7.5842 213.154 7.55767C212.953 7.52229 212.706 7.50461 212.414 7.50461C212.223 7.50461 212.017 7.51787 211.798 7.5444C211.588 7.57093 211.392 7.62841 211.21 7.71685C211.036 7.79644 210.89 7.91141 210.772 8.06175C210.653 8.20324 210.594 8.39338 210.594 8.63215C210.594 9.07432 210.74 9.38385 211.032 9.56071C211.324 9.72874 211.721 9.81275 212.223 9.81275ZM212.113 3.63116C212.624 3.63116 213.053 3.69749 213.4 3.83014C213.756 3.95395 214.039 4.13524 214.249 4.37401C214.468 4.60394 214.623 4.88251 214.714 5.20972C214.805 5.52809 214.851 5.88183 214.851 6.27094V10.5821C214.741 10.5998 214.586 10.6264 214.385 10.6617C214.194 10.6883 213.975 10.7148 213.728 10.7413C213.482 10.7678 213.213 10.79 212.921 10.8076C212.638 10.8342 212.355 10.8474 212.072 10.8474C211.671 10.8474 211.301 10.8076 210.963 10.7281C210.626 10.6485 210.334 10.5247 210.087 10.3566C209.841 10.1798 209.649 9.94983 209.512 9.66684C209.376 9.38385 209.307 9.04337 209.307 8.64541C209.307 8.26515 209.385 7.93794 209.54 7.66379C209.704 7.38964 209.923 7.16855 210.197 7.00053C210.471 6.8325 210.79 6.70869 211.155 6.6291C211.52 6.54951 211.903 6.50971 212.305 6.50971C212.433 6.50971 212.565 6.51856 212.702 6.53624C212.839 6.54509 212.966 6.56278 213.085 6.58931C213.213 6.60699 213.322 6.62468 213.414 6.64237C213.505 6.66005 213.569 6.67332 213.605 6.68216V6.33727C213.605 6.13387 213.582 5.93489 213.537 5.74033C213.491 5.53693 213.409 5.36006 213.29 5.20972C213.172 5.05054 213.007 4.92673 212.798 4.8383C212.597 4.74102 212.332 4.69238 212.004 4.69238C211.584 4.69238 211.214 4.72333 210.895 4.78524C210.585 4.8383 210.352 4.89578 210.197 4.95768L210.046 3.93626C210.211 3.86551 210.484 3.79919 210.868 3.73728C211.251 3.66654 211.666 3.63116 212.113 3.63116Z" fill="#00365B"/>
<path d="M3.42205 6.8325C3.42205 7.74827 2.656 8.49065 1.71103 8.49065C0.766053 8.49065 0 7.74827 0 6.8325C0 5.91673 0.766053 5.17435 1.71103 5.17435C2.656 5.17435 3.42205 5.91673 3.42205 6.8325Z" fill="#00365B"/>
<path d="M225 6.8325C225 7.74827 224.234 8.49065 223.289 8.49065C222.344 8.49065 221.578 7.74827 221.578 6.8325C221.578 5.91673 222.344 5.17435 223.289 5.17435C224.234 5.17435 225 5.91673 225 6.8325Z" fill="#00365B"/>
</svg>
