<svg width="32" height="32" viewBox="0 0 32 32" fill="none" xmlns="http://www.w3.org/2000/svg">
<path d="M29 25H27V23H28V19H24V20H22V18C22 17.7348 22.1054 17.4804 22.2929 17.2929C22.4804 17.1054 22.7348 17 23 17H29C29.2652 17 29.5196 17.1054 29.7071 17.2929C29.8946 17.4804 30 17.7348 30 18V24C30 24.2652 29.8946 24.5196 29.7071 24.7071C29.5196 24.8946 29.2652 25 29 25Z" fill="#F37833"/>
<path d="M24 30H18C17.7348 30 17.4804 29.8947 17.2929 29.7071C17.1054 29.5196 17 29.2652 17 29V23C17 22.7348 17.1054 22.4804 17.2929 22.2929C17.4804 22.1054 17.7348 22 18 22H24C24.2652 22 24.5196 22.1054 24.7071 22.2929C24.8946 22.4804 25 22.7348 25 23V29C25 29.2652 24.8946 29.5196 24.7071 29.7071C24.5196 29.8947 24.2652 30 24 30ZM19 28H23V24H19V28ZM15 19.858C14.2774 19.6697 13.6222 19.2826 13.1086 18.7405C12.595 18.1985 12.2436 17.5234 12.0945 16.7917C11.9453 16.0601 12.0043 15.3013 12.2647 14.6015C12.5251 13.9017 12.9766 13.2889 13.5677 12.8328C14.1589 12.3766 14.8661 12.0954 15.6091 12.021C16.3521 11.9465 17.101 12.082 17.7709 12.4118C18.4408 12.7417 19.0048 13.2527 19.3988 13.887C19.7928 14.5213 20.0011 15.2533 20 16H22C22.0012 14.8558 21.6751 13.7351 21.0604 12.7701C20.4456 11.8051 19.5677 11.036 18.5302 10.5535C17.4927 10.071 16.3389 9.89522 15.2048 10.0469C14.0707 10.1985 13.0036 10.6713 12.1293 11.4094C11.2551 12.1475 10.6101 13.1203 10.2704 14.2129C9.9308 15.3055 9.91065 16.4725 10.2124 17.5761C10.5141 18.6798 11.1251 19.6743 11.9734 20.4421C12.8217 21.21 13.8718 21.7193 15 21.91V19.858Z" fill="#F37833"/>
<path d="M28.8902 13.55L26.5802 15.58L25.1602 14.16L27.5702 12.04L25.2102 7.96L21.7702 9.12C20.9644 8.44927 20.0517 7.91856 19.0702 7.55L18.3602 4H13.6402L12.9302 7.55C11.9408 7.90825 11.0232 8.43989 10.2202 9.12L6.79023 7.96L4.43023 12.04L7.15023 14.43C6.96522 15.4651 6.96522 16.5249 7.15023 17.56L4.43023 19.96L6.79023 24.04L10.2302 22.88C11.036 23.5507 11.9487 24.0814 12.9302 24.45L13.6402 28H15.0002V30H13.6402C13.1778 29.9996 12.7297 29.839 12.3724 29.5455C12.015 29.2519 11.7704 28.8436 11.6802 28.39L11.1702 25.87C10.7175 25.6492 10.2799 25.3986 9.86022 25.12L7.43022 25.94C7.22359 26.0072 7.00753 26.041 6.79023 26.04C6.43895 26.0424 6.0934 25.951 5.78927 25.7752C5.48514 25.5994 5.23346 25.3456 5.06023 25.04L2.70023 20.96C2.46681 20.559 2.38008 20.0893 2.45487 19.6314C2.52967 19.1735 2.76135 18.7559 3.11023 18.45L5.03023 16.77C5.01023 16.51 5.00023 16.26 5.00023 16C5.00023 15.74 5.02023 15.49 5.04023 15.24L3.11023 13.55C2.76135 13.2441 2.52967 12.8265 2.45487 12.3686C2.38008 11.9107 2.46681 11.441 2.70023 11.04L5.06023 6.96C5.23346 6.6544 5.48514 6.40059 5.78927 6.22479C6.0934 6.04899 6.43895 5.95758 6.79023 5.96C7.00753 5.959 7.22359 5.99276 7.43022 6.06L9.85023 6.88C10.2733 6.6013 10.7142 6.35076 11.1702 6.13L11.6802 3.61C11.7704 3.15641 12.015 2.74809 12.3724 2.45455C12.7297 2.161 13.1778 2.00037 13.6402 2H18.3602C18.8227 2.00037 19.2707 2.161 19.6281 2.45455C19.9855 2.74809 20.23 3.15641 20.3202 3.61L20.8302 6.13C21.283 6.35081 21.7206 6.60136 22.1402 6.88L24.5702 6.06C24.7769 5.99276 24.9929 5.959 25.2102 5.96C25.5615 5.95758 25.9071 6.04899 26.2112 6.22479C26.5153 6.40059 26.767 6.6544 26.9402 6.96L29.3002 11.04C29.5336 11.441 29.6204 11.9107 29.5456 12.3686C29.4708 12.8265 29.2391 13.2441 28.8902 13.55Z" fill="#F37833"/>
</svg>
