<svg width="32" height="32" viewBox="0 0 32 32" fill="none" xmlns="http://www.w3.org/2000/svg">
<path d="M27.9998 2.66669H7.99984C7.29259 2.66669 6.61432 2.94764 6.11422 3.44774C5.61412 3.94783 5.33317 4.62611 5.33317 5.33335V9.33335H2.6665V12H5.33317V14.6667H2.6665V17.3334H5.33317V20H2.6665V22.6667H5.33317V26.6667C5.33317 27.3739 5.61412 28.0522 6.11422 28.5523C6.61432 29.0524 7.29259 29.3334 7.99984 29.3334H27.9998C28.3535 29.3334 28.6926 29.1929 28.9426 28.9428C29.1927 28.6928 29.3332 28.3536 29.3332 28V4.00002C29.3332 3.6464 29.1927 3.30726 28.9426 3.05721C28.6926 2.80716 28.3535 2.66669 27.9998 2.66669ZM17.3332 6.66535C19.5305 6.66535 21.3332 8.46669 21.3332 10.6654C21.3293 11.7252 20.9067 12.7405 20.1574 13.49C19.4081 14.2395 18.393 14.6625 17.3332 14.6667C15.1372 14.6667 13.3332 12.8627 13.3332 10.6654C13.3332 8.46669 15.1372 6.66535 17.3332 6.66535ZM25.3332 24H9.33317V23C9.33317 20.0414 12.9398 17 17.3332 17C21.7265 17 25.3332 20.0414 25.3332 23V24Z" fill="#F37833"/>
</svg>
