<svg width="32" height="32" viewBox="0 0 32 32" fill="none" xmlns="http://www.w3.org/2000/svg">
<path d="M26.4998 4H5.49984C3.93717 4 2.6665 5.196 2.6665 6.66667V25.3333C2.6665 26.804 3.93717 28 5.49984 28H26.4998C28.0625 28 29.3332 26.804 29.3332 25.3333V6.66667C29.3332 5.196 28.0625 4 26.4998 4ZM26.4998 25.3333H5.49984C5.42384 25.3333 5.37184 25.312 5.34917 25.312C5.33984 25.312 5.3345 25.3147 5.33317 25.3227L5.31717 6.728C5.3265 6.71467 5.3865 6.66667 5.49984 6.66667H26.4998C26.6052 6.668 26.6625 6.704 26.6665 6.67733L26.6825 25.272C26.6732 25.2853 26.6132 25.3333 26.4998 25.3333Z" fill="#F37833"/>
<path d="M8 9.33331H16V17.3333H8V9.33331ZM17.3333 20H8V22.6666H24V20H18.6667H17.3333ZM18.6667 14.6666H24V17.3333H18.6667V14.6666ZM18.6667 9.33331H24V12H18.6667V9.33331Z" fill="#F37833"/>
</svg>
