<svg width="28" height="28" viewBox="0 0 28 28" fill="none" xmlns="http://www.w3.org/2000/svg">
<path d="M14 0C6.26801 0 0 6.26801 0 14C0 21.732 6.26801 28 14 28C21.732 28 28 21.732 28 14C28 6.26801 21.732 0 14 0ZM8.96875 5.56103C9.2572 5.54402 9.51792 5.71643 9.71558 6.02245L11.6296 9.65232C11.8312 10.0824 11.7166 10.543 11.416 10.8503L10.5393 11.727C10.4852 11.8012 10.4496 11.8847 10.4487 11.9765C10.7849 13.278 11.8048 14.4784 12.7046 15.3039C13.6044 16.1295 14.5715 17.2472 15.8269 17.5119C15.9821 17.5552 16.1722 17.5707 16.2832 17.4675L17.3018 16.4302C17.6533 16.1637 18.162 16.0345 18.5374 16.2525H18.5544L22.0083 18.2913C22.5152 18.6091 22.5678 19.2233 22.2048 19.5969L19.8259 21.957C19.4746 22.3173 19.0079 22.4384 18.5545 22.439C16.549 22.3789 14.6541 21.3946 13.0977 20.3831C10.5429 18.5245 8.1995 16.2193 6.72828 13.4343C6.16404 12.2665 5.50121 10.7764 5.56446 9.47294C5.57011 8.98256 5.70278 8.50215 6.04812 8.18608L8.42702 5.80718C8.61233 5.64949 8.79566 5.57125 8.96875 5.56103Z" fill="#00365B"/>
</svg>
