<svg width="15" height="25" viewBox="0 0 15 25" fill="none" xmlns="http://www.w3.org/2000/svg">
<path d="M9.42188 17.0469H5.4375C5.44792 16.1094 5.52083 15.3021 5.65625 14.625C5.80208 13.9375 6.04688 13.3177 6.39062 12.7656C6.74479 12.2135 7.21354 11.6667 7.79688 11.125C8.28646 10.6875 8.71354 10.2708 9.07812 9.875C9.44271 9.47917 9.72917 9.07292 9.9375 8.65625C10.1458 8.22917 10.25 7.75521 10.25 7.23438C10.25 6.63021 10.1562 6.13021 9.96875 5.73438C9.79167 5.32812 9.52083 5.02083 9.15625 4.8125C8.80208 4.60417 8.35417 4.5 7.8125 4.5C7.36458 4.5 6.94792 4.59896 6.5625 4.79688C6.17708 4.98438 5.85938 5.27604 5.60938 5.67188C5.36979 6.06771 5.24479 6.58854 5.23438 7.23438H0.703125C0.734375 5.80729 1.0625 4.63021 1.6875 3.70312C2.32292 2.76562 3.17188 2.07292 4.23438 1.625C5.29688 1.16667 6.48958 0.9375 7.8125 0.9375C9.27083 0.9375 10.5208 1.17708 11.5625 1.65625C12.6042 2.125 13.401 2.81771 13.9531 3.73438C14.5052 4.64062 14.7812 5.74479 14.7812 7.04688C14.7812 7.95312 14.6042 8.76042 14.25 9.46875C13.8958 10.1667 13.4323 10.8177 12.8594 11.4219C12.2865 12.026 11.6562 12.651 10.9688 13.2969C10.375 13.8281 9.96875 14.3854 9.75 14.9688C9.54167 15.5521 9.43229 16.2448 9.42188 17.0469ZM4.96875 21.875C4.96875 21.2083 5.19792 20.6562 5.65625 20.2188C6.11458 19.7708 6.72917 19.5469 7.5 19.5469C8.26042 19.5469 8.86979 19.7708 9.32812 20.2188C9.79688 20.6562 10.0312 21.2083 10.0312 21.875C10.0312 22.5208 9.79688 23.0677 9.32812 23.5156C8.86979 23.9635 8.26042 24.1875 7.5 24.1875C6.72917 24.1875 6.11458 23.9635 5.65625 23.5156C5.19792 23.0677 4.96875 22.5208 4.96875 21.875Z" fill="#F37833"/>
</svg>
