<svg width="104" height="104" viewBox="0 0 104 104" fill="none" xmlns="http://www.w3.org/2000/svg">
<path d="M32.0817 50.338C30.6018 49.389 29.5185 47.8572 29.7763 46.2582C29.8018 46.1 29.8621 45.9495 29.9528 45.8174C30.0434 45.6854 30.1623 45.5751 30.3007 45.4945C30.4391 45.4139 30.5937 45.365 30.7533 45.3513C30.9129 45.3376 31.0735 45.3595 31.2237 45.4153C35.1627 46.8778 39.5567 45.97 43.448 42.278C43.58 42.1527 43.7414 42.0627 43.9173 42.0163C44.0933 41.9699 44.2781 41.9685 44.4547 42.0124C44.6313 42.0562 44.794 42.1438 44.9278 42.2671C45.0616 42.3904 45.1622 42.5454 45.2203 42.7178C45.7208 44.2107 45.2723 46.2235 44.1803 47.8788C43.534 48.8549 42.6866 49.6817 41.6949 50.3039C40.7032 50.926 39.5901 51.3292 38.43 51.4863C35.8343 51.8698 33.6287 51.3282 32.0817 50.338ZM70.9668 50.338C72.4467 49.389 73.5322 47.8572 73.2743 46.2582C73.2488 46.1 73.1886 45.9495 73.0979 45.8174C73.0072 45.6854 72.8884 45.5751 72.75 45.4945C72.6116 45.4139 72.457 45.365 72.2974 45.3513C72.1378 45.3376 71.9771 45.3595 71.827 45.4153C67.888 46.8778 63.494 45.97 59.6027 42.278C59.4707 42.1527 59.3093 42.0627 59.1333 42.0163C58.9574 41.9699 58.7726 41.9685 58.596 42.0124C58.4194 42.0562 58.2567 42.1438 58.1229 42.2671C57.9891 42.3904 57.8885 42.5454 57.8303 42.7178C57.3277 44.2107 57.7783 46.2235 58.8703 47.8788C59.5164 48.8547 60.3635 49.6813 61.3548 50.3034C62.3461 50.9256 63.4588 51.3289 64.6185 51.4863C67.2163 51.8698 69.4198 51.3282 70.9668 50.338ZM36.7573 69.7145C36.9675 68.9453 37.2882 68.1545 37.6912 67.537C40.4385 63.3207 45.827 60.6665 51.7658 60.6665C57.4988 60.6665 62.7032 63.1343 65.5328 67.0842L65.5697 67.134C65.7869 67.4134 65.988 67.7049 66.172 68.0072C66.5273 68.6247 66.7873 69.3873 66.9455 70.1153C67.1276 70.9127 67.1832 71.7338 67.1102 72.5485C67.0278 73.3198 66.7418 74.4985 65.7235 75.2958C64.5903 76.1842 63.2318 76.1018 62.1355 75.7183C56.9485 74.024 54.4872 73.2917 52.0648 73.2787C49.6468 73.2657 47.1313 73.9655 41.8512 75.7227L41.8338 75.7292L41.8165 75.7335C40.6032 76.1148 39.1688 76.2015 37.9772 75.3283C36.8353 74.492 36.5298 73.2137 36.4648 72.3448C36.4143 71.4578 36.5132 70.5687 36.7573 69.7145Z" fill="#D52323"/>
<path fill-rule="evenodd" clip-rule="evenodd" d="M91 52C91 73.5388 73.5388 91 52 91C30.4612 91 13 73.5388 13 52C13 30.4612 30.4612 13 52 13C73.5388 13 91 30.4612 91 52ZM86.6667 52C86.6667 71.1468 71.1468 86.6667 52 86.6667C32.8532 86.6667 17.3333 71.1468 17.3333 52C17.3333 32.8532 32.8532 17.3333 52 17.3333C71.1468 17.3333 86.6667 32.8532 86.6667 52Z" fill="#D52323"/>
</svg>
