<svg width="353" height="110" viewBox="0 0 353 110" fill="none" xmlns="http://www.w3.org/2000/svg">
<path d="M18.5735 37.896V33.864C18.5735 32.072 18.7868 30.472 19.2135 29.064C19.6402 27.656 20.2162 26.504 20.9415 25.608C21.6668 24.712 22.5628 23.9867 23.6295 23.432C24.7388 22.8347 25.8908 22.4293 27.0855 22.216C28.3228 21.96 29.7095 21.8107 31.2455 21.768C34.4882 21.6827 37.8375 21.832 41.2935 22.216C44.7495 22.6 47.4375 23.0693 49.3575 23.624V30.664C44.4935 30.2373 39.2668 30.024 33.6775 30.024C31.4162 29.9813 29.8162 30.2373 28.8775 30.792C27.9815 31.304 27.5335 32.5627 27.5335 34.568V36.872C27.5335 38.664 27.8962 39.8587 28.6215 40.456C29.3468 41.0533 30.6482 41.352 32.5255 41.352H39.9495C41.0588 41.352 42.0828 41.4587 43.0215 41.672C44.0028 41.8853 44.8348 42.184 45.5175 42.568C46.2428 42.952 46.8828 43.4 47.4375 43.912C48.0348 44.424 48.5255 45 48.9095 45.64C49.3362 46.28 49.6775 46.9413 49.9335 47.624C50.2322 48.264 50.4455 48.9467 50.5735 49.672C50.7442 50.3973 50.8508 51.1013 50.8935 51.784C50.9788 52.424 51.0215 53.0853 51.0215 53.768V56.904C51.0215 58.952 50.7655 60.744 50.2535 62.28C49.7415 63.816 49.0802 65.032 48.2695 65.928C47.5015 66.824 46.5202 67.5493 45.3255 68.104C44.1735 68.6587 43.0215 69.0213 41.8695 69.192C40.7175 69.4053 39.4588 69.512 38.0935 69.512C30.3708 69.512 24.3335 68.872 19.9815 67.592V60.552C24.6748 61.0213 30.1148 61.256 36.3015 61.256C37.1122 61.256 37.7948 61.2133 38.3495 61.128C38.9468 61.0427 39.5442 60.872 40.1415 60.616C40.7815 60.36 41.2508 59.9547 41.5495 59.4C41.8908 58.8027 42.0615 58.0773 42.0615 57.224V54.728C42.0615 53.2347 41.7628 52.1253 41.1655 51.4C40.5682 50.6747 39.4588 50.312 37.8375 50.312H30.6695C22.6055 50.2693 18.5735 46.1307 18.5735 37.896ZM54.1475 41.8V36.808L59.6515 34.952L61.1235 25.48H68.6115V34.952H76.2275V41.8H68.6115V55.432C68.6115 57.0107 68.7395 58.2907 68.9955 59.272C69.2515 60.2107 69.5715 60.872 69.9555 61.256C70.3395 61.5973 70.8515 61.896 71.4915 62.152C74.0515 63.048 75.4808 63.496 75.7795 63.496V69H67.9715C65.3262 69 63.2782 68.0613 61.8275 66.184C60.3768 64.264 59.6515 61.1493 59.6515 56.84V41.8H54.1475ZM79.9305 51.848C79.9305 48.904 80.1012 46.4507 80.4425 44.488C80.8265 42.4827 81.3598 40.84 82.0425 39.56C82.7252 38.2373 83.6852 37.2347 84.9225 36.552C86.1598 35.8693 87.5252 35.4 89.0185 35.144C90.5545 34.888 92.4745 34.76 94.7785 34.76C96.3145 34.76 97.6158 34.8027 98.6825 34.888C99.7492 34.9307 100.816 35.0587 101.883 35.272C102.992 35.4427 103.888 35.72 104.571 36.104C105.253 36.4453 105.915 36.936 106.555 37.576C107.195 38.1733 107.685 38.92 108.027 39.816C108.411 40.6693 108.688 41.7147 108.859 42.952C109.072 44.1467 109.179 45.5333 109.179 47.112C109.179 50.0987 108.389 52.2747 106.811 53.64C105.232 55.0053 102.864 55.688 99.7065 55.688H88.8905C88.8905 57.6507 89.1678 59.1227 89.7225 60.104C90.3198 61.0427 91.0452 61.6187 91.8985 61.832C92.7945 62.0453 94.1812 62.152 96.0585 62.152C101.307 62.152 105.467 61.9173 108.539 61.448V67.528C105.339 68.7227 99.5358 69.32 91.1305 69.32C88.9545 69.32 87.1412 69 85.6905 68.36C84.2825 67.72 83.1518 66.6747 82.2985 65.224C81.4452 63.7733 80.8265 61.9813 80.4425 59.848C80.1012 57.7147 79.9305 55.048 79.9305 51.848ZM88.8905 49.224H97.4025C99.2798 49.224 100.219 48.3707 100.219 46.664C100.219 44.5307 99.9198 43.1653 99.3225 42.568C98.7678 41.928 97.4238 41.608 95.2905 41.608C93.9252 41.608 92.9012 41.672 92.2185 41.8C91.5785 41.8853 90.9385 42.184 90.2985 42.696C89.7012 43.1653 89.2958 43.912 89.0825 44.936C88.9118 45.96 88.8478 47.3893 88.8905 49.224ZM113.556 51.848C113.556 48.904 113.726 46.4507 114.068 44.488C114.452 42.4827 114.985 40.84 115.668 39.56C116.35 38.2373 117.31 37.2347 118.548 36.552C119.785 35.8693 121.15 35.4 122.644 35.144C124.18 34.888 126.1 34.76 128.404 34.76C129.94 34.76 131.241 34.8027 132.308 34.888C133.374 34.9307 134.441 35.0587 135.508 35.272C136.617 35.4427 137.513 35.72 138.196 36.104C138.878 36.4453 139.54 36.936 140.18 37.576C140.82 38.1733 141.31 38.92 141.652 39.816C142.036 40.6693 142.313 41.7147 142.484 42.952C142.697 44.1467 142.804 45.5333 142.804 47.112C142.804 50.0987 142.014 52.2747 140.436 53.64C138.857 55.0053 136.489 55.688 133.332 55.688H122.516C122.516 57.6507 122.793 59.1227 123.348 60.104C123.945 61.0427 124.67 61.6187 125.524 61.832C126.42 62.0453 127.806 62.152 129.684 62.152C134.932 62.152 139.092 61.9173 142.164 61.448V67.528C138.964 68.7227 133.161 69.32 124.756 69.32C122.58 69.32 120.766 69 119.316 68.36C117.908 67.72 116.777 66.6747 115.924 65.224C115.07 63.7733 114.452 61.9813 114.068 59.848C113.726 57.7147 113.556 55.048 113.556 51.848ZM122.516 49.224H131.028C132.905 49.224 133.844 48.3707 133.844 46.664C133.844 44.5307 133.545 43.1653 132.948 42.568C132.393 41.928 131.049 41.608 128.916 41.608C127.55 41.608 126.526 41.672 125.844 41.8C125.204 41.8853 124.564 42.184 123.924 42.696C123.326 43.1653 122.921 43.912 122.708 44.936C122.537 45.96 122.473 47.3893 122.516 49.224ZM147.693 56.904V18.888H156.653V55.496C156.653 57.7573 156.887 59.336 157.357 60.232C157.826 61.128 158.573 61.768 159.597 62.152C162.157 63.048 163.586 63.496 163.885 63.496V69H156.461C155.053 69 153.815 68.7867 152.749 68.36C151.682 67.9333 150.765 67.272 149.997 66.376C149.229 65.4373 148.653 64.1787 148.269 62.6C147.885 61.0213 147.693 59.1227 147.693 56.904ZM165.835 35.016H175.435L182.219 58.504L188.299 35.016H197.259L194.891 44.168L200.523 58.504L207.243 35.016H216.843L205.835 69H195.851L190.731 56.712L186.891 69H176.715L165.835 35.016ZM303.368 52.168C303.368 49.8213 303.453 47.816 303.624 46.152C303.795 44.4453 304.115 42.824 304.584 41.288C305.053 39.752 305.693 38.5147 306.504 37.576C307.315 36.6373 308.381 35.8907 309.704 35.336C311.027 34.7813 312.605 34.504 314.44 34.504C315.421 34.504 316.509 34.5893 317.704 34.76C318.899 34.9307 320.115 35.1867 321.352 35.528C322.632 35.8693 323.763 36.2747 324.744 36.744V18.76H333.704V69H326.28L324.744 65.544C323.507 66.568 321.949 67.464 320.072 68.232C318.195 69 316.317 69.384 314.44 69.384C313.629 69.384 312.861 69.32 312.136 69.192C311.411 69.064 310.728 68.872 310.088 68.616C309.491 68.36 308.915 68.0613 308.36 67.72C307.848 67.336 307.379 66.888 306.952 66.376C306.525 65.864 306.12 65.3307 305.736 64.776C305.395 64.1787 305.096 63.5387 304.84 62.856C304.584 62.1307 304.349 61.384 304.136 60.616C303.965 59.8053 303.816 58.952 303.688 58.056C303.603 57.1173 303.517 56.1787 303.432 55.24C303.389 54.2587 303.368 53.2347 303.368 52.168ZM312.328 51.848C312.328 55.4747 312.691 58.0347 313.416 59.528C314.141 60.9787 315.272 61.704 316.808 61.704C318.387 61.704 319.837 61.5333 321.16 61.192C322.525 60.808 323.72 60.296 324.744 59.656V42.824C324.147 42.568 323.528 42.376 322.888 42.248C322.291 42.0773 321.672 41.9493 321.032 41.864C320.392 41.736 319.709 41.6507 318.984 41.608C318.301 41.5653 317.576 41.544 316.808 41.544C316.168 41.544 315.635 41.6293 315.208 41.8C314.781 41.928 314.376 42.2267 313.992 42.696C313.608 43.1227 313.288 43.72 313.032 44.488C312.819 45.2133 312.648 46.1947 312.52 47.432C312.392 48.6267 312.328 50.0987 312.328 51.848Z" fill="#00365B"/>
<path d="M27.9286 91.7274V106.15H25.8455V93.4547H18.6942V106.15H16.6111V91.7274H27.9286Z" fill="#00365B"/>
<path d="M39.2508 100.76C39.2508 99.4971 38.9287 98.5258 38.2844 97.846C37.6401 97.1661 36.7811 96.8262 35.7074 96.8262C35.1061 96.8262 34.6336 96.847 34.29 96.8887C33.9607 96.9303 33.6958 96.9788 33.4954 97.0343V103.861C33.7388 104.055 34.0896 104.242 34.5477 104.422C35.0058 104.603 35.5069 104.693 36.051 104.693C36.6236 104.693 37.1104 104.596 37.5113 104.402C37.9265 104.194 38.2629 103.916 38.5206 103.569C38.7783 103.208 38.9644 102.792 39.079 102.32C39.1935 101.835 39.2508 101.315 39.2508 100.76ZM41.3339 100.76C41.3339 101.578 41.2193 102.334 40.9903 103.028C40.7755 103.722 40.4534 104.318 40.0239 104.818C39.5944 105.317 39.0647 105.706 38.4347 105.983C37.8191 106.261 37.1104 106.4 36.3087 106.4C35.6644 106.4 35.0917 106.316 34.5906 106.15C34.1039 105.983 33.7388 105.824 33.4954 105.671V110H31.4982V95.6608C31.9707 95.5498 32.5577 95.4318 33.2592 95.307C33.975 95.1682 34.7982 95.0989 35.7288 95.0989C36.5878 95.0989 37.361 95.2307 38.0482 95.4943C38.7354 95.7579 39.3224 96.1325 39.8091 96.6181C40.2959 97.1037 40.6682 97.7003 40.9259 98.4079C41.1979 99.1016 41.3339 99.8855 41.3339 100.76Z" fill="#00365B"/>
<path d="M54.0014 100.739C54.0014 101.599 53.8726 102.376 53.6149 103.07C53.3572 103.763 52.9921 104.36 52.5197 104.86C52.0615 105.359 51.5103 105.747 50.8661 106.025C50.2218 106.289 49.5203 106.42 48.7615 106.42C48.0027 106.42 47.3012 106.289 46.6569 106.025C46.0126 105.747 45.4543 105.359 44.9818 104.86C44.5237 104.36 44.1658 103.763 43.9081 103.07C43.6504 102.376 43.5215 101.599 43.5215 100.739C43.5215 99.8925 43.6504 99.1224 43.9081 98.4287C44.1658 97.7211 44.5237 97.1176 44.9818 96.6181C45.4543 96.1186 46.0126 95.7371 46.6569 95.4735C47.3012 95.196 48.0027 95.0572 48.7615 95.0572C49.5203 95.0572 50.2218 95.196 50.8661 95.4735C51.5103 95.7371 52.0615 96.1186 52.5197 96.6181C52.9921 97.1176 53.3572 97.7211 53.6149 98.4287C53.8726 99.1224 54.0014 99.8925 54.0014 100.739ZM51.9183 100.739C51.9183 99.5179 51.632 98.5536 51.0593 97.846C50.501 97.1245 49.735 96.7638 48.7615 96.7638C47.7879 96.7638 47.0148 97.1245 46.4421 97.846C45.8838 98.5536 45.6046 99.5179 45.6046 100.739C45.6046 101.96 45.8838 102.931 46.4421 103.652C47.0148 104.36 47.7879 104.714 48.7615 104.714C49.735 104.714 50.501 104.36 51.0593 103.652C51.632 102.931 51.9183 101.96 51.9183 100.739Z" fill="#00365B"/>
<path d="M66.1961 95.3278V106.15H64.2633V97.9084C63.8338 98.4357 63.3613 99.0531 62.8459 99.7607C62.3305 100.468 61.8151 101.204 61.2997 101.967C60.7843 102.716 60.2904 103.458 59.8179 104.194C59.3454 104.929 58.9374 105.581 58.5938 106.15H56.8114V95.3278H58.7441V103.111C59.1164 102.515 59.5387 101.863 60.0112 101.155C60.4836 100.434 60.9704 99.726 61.4715 99.0323C61.9869 98.3247 62.4951 97.6518 62.9962 97.0135C63.5116 96.3614 63.9913 95.7995 64.4351 95.3278H66.1961Z" fill="#00365B"/>
<path d="M72.46 95.0572C73.1042 95.0572 73.7055 95.1197 74.2639 95.2445C74.8222 95.3694 75.3019 95.5567 75.7027 95.8065C76.1036 96.0562 76.4186 96.3684 76.6476 96.743C76.8767 97.1176 76.9912 97.5546 76.9912 98.0541C76.9912 98.3732 76.934 98.6646 76.8194 98.9282C76.7049 99.1918 76.5617 99.4277 76.3899 99.6358C76.2181 99.8439 76.0249 100.024 75.8101 100.177C75.6097 100.316 75.4164 100.413 75.2303 100.468C75.8888 100.663 76.4043 101.009 76.7765 101.509C77.163 101.994 77.3563 102.612 77.3563 103.361C77.3563 104.388 76.9268 105.151 76.0678 105.65C75.2088 106.15 74.042 106.4 72.5673 106.4C71.6654 106.4 70.8851 106.33 70.2265 106.191C69.5823 106.053 69.1241 105.921 68.8521 105.796L69.1957 104.152C69.4248 104.235 69.8328 104.353 70.4198 104.506C71.0211 104.644 71.737 104.714 72.5673 104.714C73.4693 104.714 74.1565 104.582 74.629 104.318C75.1014 104.041 75.3376 103.632 75.3376 103.091C75.3376 102.702 75.2446 102.39 75.0585 102.154C74.8867 101.904 74.6648 101.717 74.3927 101.592C74.1207 101.467 73.8272 101.384 73.5122 101.342C73.1973 101.301 72.9038 101.28 72.6318 101.28H70.7634V99.7399H72.5673C72.825 99.7399 73.0899 99.726 73.3619 99.6982C73.6483 99.6566 73.906 99.5803 74.135 99.4693C74.3784 99.3583 74.5789 99.2057 74.7363 99.0114C74.8938 98.8033 74.9726 98.5328 74.9726 98.1998C74.9726 97.9362 74.901 97.7142 74.7578 97.5338C74.629 97.3396 74.45 97.18 74.2209 97.0552C73.9919 96.9303 73.7198 96.8401 73.4049 96.7846C73.1042 96.7152 72.7892 96.6805 72.46 96.6805C72.2023 96.6805 71.9231 96.7014 71.6224 96.743C71.3218 96.7846 71.0283 96.8401 70.7419 96.9095C70.4556 96.965 70.1979 97.0274 69.9688 97.0968C69.7398 97.1661 69.5751 97.2286 69.4749 97.2841L69.1098 95.6191C69.2243 95.5775 69.4033 95.522 69.6467 95.4527C69.8901 95.3833 70.1621 95.3208 70.4628 95.2653C70.7777 95.2099 71.107 95.1613 71.4506 95.1197C71.7942 95.078 72.1307 95.0572 72.46 95.0572Z" fill="#00365B"/>
<path d="M82.0864 104.693C82.1723 104.707 82.294 104.721 82.4515 104.735C82.609 104.749 82.7879 104.762 82.9884 104.776C83.1888 104.776 83.3964 104.783 83.6112 104.797C83.8402 104.797 84.055 104.797 84.2554 104.797C84.6706 104.797 85.0643 104.769 85.4366 104.714C85.8231 104.658 86.1524 104.561 86.4244 104.422C86.7108 104.284 86.9327 104.103 87.0902 103.881C87.262 103.646 87.3479 103.347 87.3479 102.986C87.3479 102.64 87.2691 102.355 87.1116 102.133C86.9685 101.897 86.768 101.71 86.5103 101.571C86.2526 101.433 85.9448 101.335 85.5869 101.28C85.2433 101.224 84.871 101.197 84.4702 101.197H82.0864V104.693ZM84.2125 99.7607C84.599 99.7607 84.9498 99.7399 85.2648 99.6982C85.5941 99.6427 85.8732 99.5525 86.1023 99.4277C86.3457 99.3028 86.5318 99.1363 86.6607 98.9282C86.8038 98.7201 86.8754 98.4565 86.8754 98.1374C86.8754 97.8044 86.7895 97.5408 86.6177 97.3465C86.4459 97.1523 86.2168 97.0066 85.9305 96.9095C85.6585 96.7985 85.3435 96.7291 84.9856 96.7014C84.642 96.6597 84.2912 96.6389 83.9333 96.6389C83.604 96.6389 83.2676 96.6459 82.924 96.6597C82.5947 96.6736 82.3155 96.6875 82.0864 96.7014V99.7607H84.2125ZM84.1695 106.337C83.3248 106.337 82.5446 106.296 81.8287 106.212C81.1129 106.143 80.5474 106.06 80.1322 105.963V95.4318C80.5474 95.3347 81.1129 95.2515 81.8287 95.1821C82.5446 95.0989 83.3248 95.0572 84.1695 95.0572C84.7565 95.0572 85.3292 95.1058 85.8875 95.2029C86.4459 95.3 86.9398 95.4665 87.3693 95.7024C87.7989 95.9244 88.1425 96.2366 88.4002 96.6389C88.6722 97.0274 88.8082 97.513 88.8082 98.0957C88.8082 98.623 88.6722 99.0739 88.4002 99.4485C88.1281 99.8231 87.7631 100.114 87.3049 100.323C87.9205 100.531 88.4073 100.843 88.7652 101.259C89.1375 101.661 89.3236 102.23 89.3236 102.966C89.3236 103.618 89.1876 104.159 88.9156 104.589C88.6579 105.019 88.2928 105.366 87.8203 105.63C87.3622 105.893 86.8181 106.074 86.1882 106.171C85.5583 106.282 84.8854 106.337 84.1695 106.337Z" fill="#00365B"/>
<path d="M101.755 100.739C101.755 101.599 101.626 102.376 101.368 103.07C101.11 103.763 100.745 104.36 100.273 104.86C99.8147 105.359 99.2635 105.747 98.6192 106.025C97.9749 106.289 97.2734 106.42 96.5146 106.42C95.7558 106.42 95.0543 106.289 94.41 106.025C93.7658 105.747 93.2074 105.359 92.735 104.86C92.2768 104.36 91.9189 103.763 91.6612 103.07C91.4035 102.376 91.2747 101.599 91.2747 100.739C91.2747 99.8925 91.4035 99.1224 91.6612 98.4287C91.9189 97.7211 92.2768 97.1176 92.735 96.6181C93.2074 96.1186 93.7658 95.7371 94.41 95.4735C95.0543 95.196 95.7558 95.0572 96.5146 95.0572C97.2734 95.0572 97.9749 95.196 98.6192 95.4735C99.2635 95.7371 99.8147 96.1186 100.273 96.6181C100.745 97.1176 101.11 97.7211 101.368 98.4287C101.626 99.1224 101.755 99.8925 101.755 100.739ZM99.6715 100.739C99.6715 99.5179 99.3852 98.5536 98.8125 97.846C98.2541 97.1245 97.4882 96.7638 96.5146 96.7638C95.5411 96.7638 94.768 97.1245 94.1953 97.846C93.6369 98.5536 93.3578 99.5179 93.3578 100.739C93.3578 101.96 93.6369 102.931 94.1953 103.652C94.768 104.36 95.5411 104.714 96.5146 104.714C97.4882 104.714 98.2541 104.36 98.8125 103.652C99.3852 102.931 99.6715 101.96 99.6715 100.739Z" fill="#00365B"/>
<path d="M103.19 104.568H104.393C104.865 103.902 105.237 103.215 105.509 102.508C105.796 101.8 106.011 101.072 106.154 100.323C106.297 99.5595 106.39 98.7686 106.433 97.9501C106.476 97.1176 106.504 96.2435 106.519 95.3278H113.842V104.568H115.345V109.168H113.455V106.15H105.08V109.168H103.19V104.568ZM111.845 104.568V96.9511H108.344C108.33 97.6032 108.294 98.2622 108.237 98.9282C108.18 99.5803 108.086 100.232 107.958 100.884C107.829 101.523 107.643 102.154 107.399 102.778C107.17 103.389 106.877 103.985 106.519 104.568H111.845Z" fill="#00365B"/>
<path d="M122.358 106.4C121.456 106.4 120.661 106.261 119.974 105.983C119.301 105.706 118.728 105.317 118.256 104.818C117.798 104.318 117.454 103.729 117.225 103.049C116.996 102.355 116.881 101.592 116.881 100.76C116.881 99.9272 117.003 99.1641 117.246 98.4703C117.504 97.7766 117.862 97.18 118.32 96.6805C118.778 96.1672 119.337 95.7718 119.995 95.4943C120.668 95.2029 121.413 95.0572 122.229 95.0572C122.73 95.0572 123.231 95.0989 123.732 95.1821C124.233 95.2653 124.713 95.3972 125.171 95.5775L124.72 97.2216C124.419 97.0829 124.068 96.9719 123.668 96.8887C123.281 96.8054 122.866 96.7638 122.422 96.7638C121.305 96.7638 120.446 97.1037 119.845 97.7836C119.258 98.4634 118.965 99.4554 118.965 100.76C118.965 101.342 119.029 101.877 119.158 102.362C119.301 102.848 119.516 103.264 119.802 103.611C120.103 103.958 120.482 104.228 120.94 104.422C121.398 104.603 121.957 104.693 122.615 104.693C123.145 104.693 123.625 104.644 124.054 104.547C124.484 104.45 124.82 104.346 125.063 104.235L125.343 105.858C125.228 105.928 125.064 105.997 124.849 106.067C124.634 106.122 124.391 106.171 124.119 106.212C123.847 106.268 123.553 106.309 123.238 106.337C122.937 106.379 122.644 106.4 122.358 106.4Z" fill="#00365B"/>
<path d="M135.683 95.3278V96.9511H132.054V106.15H130.056V96.9511H126.427V95.3278H135.683Z" fill="#00365B"/>
<path d="M139.696 104.693C139.782 104.707 139.904 104.721 140.061 104.735C140.219 104.749 140.398 104.762 140.598 104.776C140.799 104.776 141.006 104.783 141.221 104.797C141.45 104.797 141.665 104.797 141.865 104.797C142.281 104.797 142.674 104.769 143.047 104.714C143.433 104.658 143.762 104.561 144.034 104.422C144.321 104.284 144.543 104.103 144.7 103.881C144.872 103.646 144.958 103.347 144.958 102.986C144.958 102.64 144.879 102.355 144.722 102.133C144.578 101.897 144.378 101.71 144.12 101.571C143.863 101.433 143.555 101.335 143.197 101.28C142.853 101.224 142.481 101.197 142.08 101.197H139.696V104.693ZM141.822 99.7607C142.209 99.7607 142.56 99.7399 142.875 99.6982C143.204 99.6427 143.483 99.5525 143.712 99.4277C143.956 99.3028 144.142 99.1363 144.271 98.9282C144.414 98.7201 144.485 98.4565 144.485 98.1374C144.485 97.8044 144.399 97.5408 144.228 97.3465C144.056 97.1523 143.827 97.0066 143.54 96.9095C143.268 96.7985 142.953 96.7291 142.596 96.7014C142.252 96.6597 141.901 96.6389 141.543 96.6389C141.214 96.6389 140.878 96.6459 140.534 96.6597C140.205 96.6736 139.925 96.6875 139.696 96.7014V99.7607H141.822ZM141.779 106.337C140.935 106.337 140.155 106.296 139.439 106.212C138.723 106.143 138.157 106.06 137.742 105.963V95.4318C138.157 95.3347 138.723 95.2515 139.439 95.1821C140.155 95.0989 140.935 95.0572 141.779 95.0572C142.366 95.0572 142.939 95.1058 143.498 95.2029C144.056 95.3 144.55 95.4665 144.979 95.7024C145.409 95.9244 145.752 96.2366 146.01 96.6389C146.282 97.0274 146.418 97.513 146.418 98.0957C146.418 98.623 146.282 99.0739 146.01 99.4485C145.738 99.8231 145.373 100.114 144.915 100.323C145.531 100.531 146.017 100.843 146.375 101.259C146.747 101.661 146.934 102.23 146.934 102.966C146.934 103.618 146.798 104.159 146.526 104.589C146.268 105.019 145.903 105.366 145.43 105.63C144.972 105.893 144.428 106.074 143.798 106.171C143.168 106.282 142.495 106.337 141.779 106.337Z" fill="#00365B"/>
<path d="M159.365 100.739C159.365 101.599 159.236 102.376 158.978 103.07C158.72 103.763 158.355 104.36 157.883 104.86C157.425 105.359 156.873 105.747 156.229 106.025C155.585 106.289 154.883 106.42 154.125 106.42C153.366 106.42 152.664 106.289 152.02 106.025C151.376 105.747 150.817 105.359 150.345 104.86C149.887 104.36 149.529 103.763 149.271 103.07C149.013 102.376 148.885 101.599 148.885 100.739C148.885 99.8925 149.013 99.1224 149.271 98.4287C149.529 97.7211 149.887 97.1176 150.345 96.6181C150.817 96.1186 151.376 95.7371 152.02 95.4735C152.664 95.196 153.366 95.0572 154.125 95.0572C154.883 95.0572 155.585 95.196 156.229 95.4735C156.873 95.7371 157.425 96.1186 157.883 96.6181C158.355 97.1176 158.72 97.7211 158.978 98.4287C159.236 99.1224 159.365 99.8925 159.365 100.739ZM157.281 100.739C157.281 99.5179 156.995 98.5536 156.422 97.846C155.864 97.1245 155.098 96.7638 154.125 96.7638C153.151 96.7638 152.378 97.1245 151.805 97.846C151.247 98.5536 150.968 99.5179 150.968 100.739C150.968 101.96 151.247 102.931 151.805 103.652C152.378 104.36 153.151 104.714 154.125 104.714C155.098 104.714 155.864 104.36 156.422 103.652C156.995 102.931 157.281 101.96 157.281 100.739Z" fill="#00365B"/>
<path d="M169.271 98.179C169.128 99.5525 169.02 100.926 168.949 102.3C168.877 103.659 168.82 104.943 168.777 106.15H166.866C166.894 105.304 166.937 104.422 166.994 103.507C167.052 102.577 167.116 101.648 167.188 100.718C167.259 99.7745 167.338 98.8519 167.424 97.9501C167.51 97.0343 167.603 96.1602 167.703 95.3278H169.529C169.987 96.0493 170.524 97.0413 171.139 98.3039C171.755 99.5525 172.464 100.995 173.265 102.633C174.067 100.995 174.776 99.5525 175.391 98.3039C176.007 97.0413 176.544 96.0493 177.002 95.3278H178.849C178.949 96.1602 179.042 97.0343 179.128 97.9501C179.214 98.8519 179.293 99.7745 179.364 100.718C179.436 101.648 179.5 102.577 179.558 103.507C179.615 104.422 179.658 105.304 179.686 106.15H177.711C177.668 104.943 177.61 103.659 177.539 102.3C177.467 100.926 177.36 99.5525 177.217 98.179C176.988 98.6091 176.723 99.1294 176.422 99.7399C176.121 100.336 175.821 100.947 175.52 101.571C175.234 102.196 174.962 102.792 174.704 103.361C174.446 103.93 174.246 104.381 174.103 104.714H172.428C172.27 104.367 172.056 103.909 171.783 103.34C171.526 102.771 171.247 102.175 170.946 101.55C170.66 100.912 170.366 100.295 170.065 99.6982C169.765 99.0878 169.5 98.5813 169.271 98.179Z" fill="#00365B"/>
<path d="M182.23 100.76C182.23 99.8023 182.373 98.9698 182.66 98.2622C182.946 97.5408 183.325 96.9442 183.798 96.4724C184.27 96.0007 184.814 95.6469 185.43 95.411C186.045 95.1752 186.675 95.0572 187.32 95.0572C188.823 95.0572 189.975 95.5151 190.777 96.4308C191.579 97.3326 191.98 98.7131 191.98 100.572C191.98 100.656 191.98 100.767 191.98 100.905C191.98 101.03 191.973 101.148 191.958 101.259H184.313C184.399 102.383 184.735 103.236 185.322 103.819C185.909 104.402 186.826 104.693 188.071 104.693C188.773 104.693 189.36 104.638 189.832 104.527C190.319 104.402 190.684 104.284 190.928 104.173L191.207 105.796C190.963 105.921 190.534 106.053 189.918 106.191C189.317 106.33 188.63 106.4 187.857 106.4C186.883 106.4 186.038 106.261 185.322 105.983C184.621 105.692 184.041 105.297 183.583 104.797C183.125 104.298 182.781 103.708 182.552 103.028C182.337 102.334 182.23 101.578 182.23 100.76ZM189.897 99.6982C189.911 98.8241 189.682 98.1096 189.21 97.5546C188.751 96.9858 188.114 96.7014 187.298 96.7014C186.84 96.7014 186.432 96.7915 186.074 96.9719C185.731 97.1384 185.437 97.3604 185.194 97.6379C184.95 97.9154 184.757 98.2345 184.614 98.5952C184.485 98.9559 184.399 99.3236 184.356 99.6982H189.897Z" fill="#00365B"/>
<path d="M196.653 96.5765C197.097 96.2296 197.612 95.966 198.199 95.7856C198.8 95.5914 199.373 95.4943 199.917 95.4943C201.52 95.4943 202.73 95.9729 203.546 96.9303C204.377 97.8737 204.792 99.1918 204.792 100.884C204.792 101.606 204.692 102.3 204.491 102.966C204.291 103.632 203.976 104.221 203.546 104.735C203.131 105.248 202.601 105.657 201.957 105.963C201.313 106.268 200.547 106.42 199.659 106.42C198.643 106.42 197.798 106.24 197.125 105.879C196.452 105.519 195.915 105.026 195.515 104.402C195.128 103.777 194.856 103.049 194.698 102.216C194.541 101.384 194.462 100.503 194.462 99.5734C194.462 98.3663 194.548 97.2425 194.72 96.2019C194.906 95.1613 195.235 94.2456 195.708 93.4547C196.18 92.6639 196.832 92.0118 197.662 91.4984C198.507 90.9712 199.588 90.6174 200.905 90.437C201.291 90.3815 201.628 90.3399 201.914 90.3122C202.215 90.2706 202.473 90.2359 202.687 90.2081C202.916 90.1804 203.124 90.1526 203.31 90.1249C203.496 90.0832 203.689 90.0416 203.89 90L204.105 91.7482C204.004 91.7759 203.897 91.7967 203.783 91.8106C203.682 91.8245 203.532 91.8453 203.332 91.873C203.145 91.9008 202.888 91.9355 202.558 91.9771C202.243 92.0187 201.828 92.0673 201.313 92.1228C199.895 92.2754 198.807 92.6916 198.049 93.3715C197.29 94.0513 196.825 95.1197 196.653 96.5765ZM196.524 99.8855C196.524 100.538 196.567 101.155 196.653 101.738C196.753 102.32 196.918 102.834 197.147 103.278C197.39 103.722 197.712 104.076 198.113 104.339C198.514 104.589 199.029 104.714 199.659 104.714C200.203 104.714 200.669 104.617 201.055 104.422C201.442 104.214 201.757 103.937 202 103.59C202.243 103.243 202.422 102.841 202.537 102.383C202.651 101.911 202.709 101.412 202.709 100.884C202.709 100.413 202.659 99.9549 202.558 99.5109C202.473 99.0669 202.308 98.6715 202.064 98.3247C201.821 97.9778 201.492 97.7003 201.077 97.4922C200.676 97.2841 200.167 97.18 199.552 97.18C198.951 97.18 198.371 97.3049 197.812 97.5546C197.268 97.8044 196.846 98.1096 196.545 98.4703C196.531 98.623 196.524 98.838 196.524 99.1155C196.524 99.393 196.524 99.6497 196.524 99.8855Z" fill="#00365B"/>
<path d="M206.998 100.76C206.998 99.8023 207.141 98.9698 207.427 98.2622C207.714 97.5408 208.093 96.9442 208.566 96.4724C209.038 96.0007 209.582 95.6469 210.198 95.411C210.813 95.1752 211.443 95.0572 212.088 95.0572C213.591 95.0572 214.743 95.5151 215.545 96.4308C216.347 97.3326 216.748 98.7131 216.748 100.572C216.748 100.656 216.748 100.767 216.748 100.905C216.748 101.03 216.741 101.148 216.726 101.259H209.081C209.167 102.383 209.503 103.236 210.09 103.819C210.677 104.402 211.594 104.693 212.839 104.693C213.541 104.693 214.128 104.638 214.6 104.527C215.087 104.402 215.452 104.284 215.695 104.173L215.975 105.796C215.731 105.921 215.302 106.053 214.686 106.191C214.085 106.33 213.398 106.4 212.624 106.4C211.651 106.4 210.806 106.261 210.09 105.983C209.389 105.692 208.809 105.297 208.351 104.797C207.893 104.298 207.549 103.708 207.32 103.028C207.105 102.334 206.998 101.578 206.998 100.76ZM214.665 99.6982C214.679 98.8241 214.45 98.1096 213.977 97.5546C213.519 96.9858 212.882 96.7014 212.066 96.7014C211.608 96.7014 211.2 96.7915 210.842 96.9719C210.498 97.1384 210.205 97.3604 209.962 97.6379C209.718 97.9154 209.525 98.2345 209.382 98.5952C209.253 98.9559 209.167 99.3236 209.124 99.6982H214.665Z" fill="#00365B"/>
<path d="M223.504 96.9511C223.504 97.4089 223.489 97.9015 223.461 98.4287C223.446 98.9421 223.411 99.4624 223.353 99.9896C223.296 100.503 223.217 101.016 223.117 101.53C223.017 102.029 222.888 102.501 222.731 102.945C222.573 103.389 222.373 103.805 222.129 104.194C221.9 104.582 221.614 104.929 221.27 105.234C220.927 105.525 220.526 105.775 220.068 105.983C219.609 106.178 219.073 106.302 218.457 106.358L218.178 104.735C218.879 104.596 219.431 104.339 219.831 103.965C220.247 103.59 220.576 103.132 220.819 102.591C221.034 102.119 221.192 101.585 221.292 100.989C221.392 100.392 221.464 99.7745 221.506 99.1363C221.549 98.4842 221.571 97.8321 221.571 97.18C221.585 96.5279 221.592 95.9105 221.592 95.3278H229.023V106.15H227.026V96.9511H223.504Z" fill="#00365B"/>
<path d="M241.836 95.3278V106.15H239.903V97.9084C239.474 98.4357 239.001 99.0531 238.486 99.7607C237.971 100.468 237.455 101.204 236.94 101.967C236.424 102.716 235.93 103.458 235.458 104.194C234.986 104.929 234.578 105.581 234.234 106.15H232.452V95.3278H234.384V103.111C234.757 102.515 235.179 101.863 235.651 101.155C236.124 100.434 236.611 99.726 237.112 99.0323C237.627 98.3247 238.135 97.6518 238.636 97.0135C239.152 96.3614 239.631 95.7995 240.075 95.3278H241.836Z" fill="#00365B"/>
<path d="M259.62 95.3278V106.15H257.688V97.9084C257.258 98.4357 256.786 99.0531 256.27 99.7607C255.755 100.468 255.239 101.204 254.724 101.967C254.209 102.716 253.715 103.458 253.242 104.194C252.77 104.929 252.362 105.581 252.018 106.15H250.236V95.3278H252.168V103.111C252.541 102.515 252.963 101.863 253.436 101.155C253.908 100.434 254.395 99.726 254.896 99.0323C255.411 98.3247 255.92 97.6518 256.421 97.0135C256.936 96.3614 257.416 95.7995 257.859 95.3278H259.62Z" fill="#00365B"/>
<path d="M266.646 104.568H267.848C268.321 103.902 268.693 103.215 268.965 102.508C269.251 101.8 269.466 101.072 269.609 100.323C269.752 99.5595 269.845 98.7686 269.888 97.9501C269.931 97.1176 269.96 96.2435 269.974 95.3278H277.297V104.568H278.801V109.168H276.911V106.15H268.535V109.168H266.646V104.568ZM275.3 104.568V96.9511H271.8C271.785 97.6032 271.749 98.2622 271.692 98.9282C271.635 99.5803 271.542 100.232 271.413 100.884C271.284 101.523 271.098 102.154 270.855 102.778C270.626 103.389 270.332 103.985 269.974 104.568H275.3Z" fill="#00365B"/>
<path d="M280.337 100.76C280.337 99.8023 280.48 98.9698 280.766 98.2622C281.053 97.5408 281.432 96.9442 281.905 96.4724C282.377 96.0007 282.921 95.6469 283.537 95.411C284.152 95.1752 284.782 95.0572 285.426 95.0572C286.93 95.0572 288.082 95.5151 288.884 96.4308C289.686 97.3326 290.087 98.7131 290.087 100.572C290.087 100.656 290.087 100.767 290.087 100.905C290.087 101.03 290.079 101.148 290.065 101.259H282.42C282.506 102.383 282.842 103.236 283.429 103.819C284.016 104.402 284.933 104.693 286.178 104.693C286.88 104.693 287.467 104.638 287.939 104.527C288.426 104.402 288.791 104.284 289.034 104.173L289.314 105.796C289.07 105.921 288.641 106.053 288.025 106.191C287.424 106.33 286.736 106.4 285.963 106.4C284.99 106.4 284.145 106.261 283.429 105.983C282.728 105.692 282.148 105.297 281.69 104.797C281.232 104.298 280.888 103.708 280.659 103.028C280.444 102.334 280.337 101.578 280.337 100.76ZM288.004 99.6982C288.018 98.8241 287.789 98.1096 287.316 97.5546C286.858 96.9858 286.221 96.7014 285.405 96.7014C284.947 96.7014 284.539 96.7915 284.181 96.9719C283.837 97.1384 283.544 97.3604 283.3 97.6379C283.057 97.9154 282.864 98.2345 282.721 98.5952C282.592 98.9559 282.506 99.3236 282.463 99.6982H288.004Z" fill="#00365B"/>
<path d="M297.036 100.26C297.48 100.565 297.959 100.954 298.475 101.426C298.99 101.883 299.491 102.383 299.978 102.924C300.479 103.465 300.944 104.02 301.374 104.589C301.803 105.144 302.168 105.664 302.469 106.15H300.107C299.792 105.678 299.42 105.199 298.99 104.714C298.575 104.214 298.138 103.736 297.68 103.278C297.222 102.82 296.757 102.397 296.284 102.008C295.812 101.62 295.368 101.294 294.953 101.03V106.15H292.956V95.3278H294.953V99.9688C295.296 99.6497 295.69 99.282 296.134 98.8658C296.578 98.4357 297.022 98.0055 297.465 97.5754C297.924 97.1315 298.346 96.7152 298.732 96.3267C299.119 95.9244 299.434 95.5914 299.677 95.3278H301.997C301.682 95.6608 301.309 96.0423 300.88 96.4724C300.465 96.8887 300.028 97.3188 299.57 97.7627C299.126 98.2067 298.682 98.6507 298.239 99.0947C297.795 99.5248 297.394 99.9133 297.036 100.26Z" fill="#00365B"/>
<path d="M313.718 100.739C313.718 101.599 313.589 102.376 313.332 103.07C313.074 103.763 312.709 104.36 312.236 104.86C311.778 105.359 311.227 105.747 310.583 106.025C309.939 106.289 309.237 106.42 308.478 106.42C307.719 106.42 307.018 106.289 306.374 106.025C305.729 105.747 305.171 105.359 304.699 104.86C304.24 104.36 303.883 103.763 303.625 103.07C303.367 102.376 303.238 101.599 303.238 100.739C303.238 99.8925 303.367 99.1224 303.625 98.4287C303.883 97.7211 304.24 97.1176 304.699 96.6181C305.171 96.1186 305.729 95.7371 306.374 95.4735C307.018 95.196 307.719 95.0572 308.478 95.0572C309.237 95.0572 309.939 95.196 310.583 95.4735C311.227 95.7371 311.778 96.1186 312.236 96.6181C312.709 97.1176 313.074 97.7211 313.332 98.4287C313.589 99.1224 313.718 99.8925 313.718 100.739ZM311.635 100.739C311.635 99.5179 311.349 98.5536 310.776 97.846C310.218 97.1245 309.452 96.7638 308.478 96.7638C307.505 96.7638 306.732 97.1245 306.159 97.846C305.601 98.5536 305.321 99.5179 305.321 100.739C305.321 101.96 305.601 102.931 306.159 103.652C306.732 104.36 307.505 104.714 308.478 104.714C309.452 104.714 310.218 104.36 310.776 103.652C311.349 102.931 311.635 101.96 311.635 100.739Z" fill="#00365B"/>
<path d="M324.281 100.76C324.281 99.4971 323.959 98.5258 323.314 97.846C322.67 97.1661 321.811 96.8262 320.737 96.8262C320.136 96.8262 319.663 96.847 319.32 96.8887C318.991 96.9303 318.726 96.9788 318.525 97.0343V103.861C318.769 104.055 319.119 104.242 319.578 104.422C320.036 104.603 320.537 104.693 321.081 104.693C321.654 104.693 322.14 104.596 322.541 104.402C322.956 104.194 323.293 103.916 323.551 103.569C323.808 103.208 323.994 102.792 324.109 102.32C324.223 101.835 324.281 101.315 324.281 100.76ZM326.364 100.76C326.364 101.578 326.249 102.334 326.02 103.028C325.805 103.722 325.483 104.318 325.054 104.818C324.624 105.317 324.095 105.706 323.465 105.983C322.849 106.261 322.14 106.4 321.339 106.4C320.694 106.4 320.122 106.316 319.621 106.15C319.134 105.983 318.769 105.824 318.525 105.671V110H316.528V95.6608C317.001 95.5498 317.588 95.4318 318.289 95.307C319.005 95.1682 319.828 95.0989 320.759 95.0989C321.618 95.0989 322.391 95.2307 323.078 95.4943C323.765 95.7579 324.352 96.1325 324.839 96.6181C325.326 97.1037 325.698 97.7003 325.956 98.4079C326.228 99.1016 326.364 99.8855 326.364 100.76Z" fill="#00365B"/>
<path d="M332.954 104.755C333.426 104.755 333.841 104.749 334.199 104.735C334.572 104.707 334.879 104.665 335.123 104.61V101.384C334.98 101.315 334.743 101.259 334.414 101.217C334.099 101.162 333.713 101.134 333.254 101.134C332.954 101.134 332.632 101.155 332.288 101.197C331.959 101.238 331.651 101.328 331.365 101.467C331.093 101.592 330.864 101.772 330.677 102.008C330.491 102.23 330.398 102.529 330.398 102.903C330.398 103.597 330.627 104.083 331.085 104.36C331.544 104.624 332.166 104.755 332.954 104.755ZM332.782 95.0572C333.584 95.0572 334.257 95.1613 334.801 95.3694C335.359 95.5636 335.803 95.8481 336.132 96.2227C336.476 96.5834 336.719 97.0205 336.862 97.5338C337.005 98.0333 337.077 98.5883 337.077 99.1988V105.963C336.905 105.99 336.662 106.032 336.347 106.087C336.046 106.129 335.703 106.171 335.316 106.212C334.93 106.254 334.507 106.289 334.049 106.316C333.605 106.358 333.161 106.379 332.718 106.379C332.088 106.379 331.508 106.316 330.978 106.191C330.448 106.067 329.99 105.872 329.604 105.609C329.217 105.331 328.916 104.971 328.702 104.527C328.487 104.083 328.38 103.548 328.38 102.924C328.38 102.327 328.501 101.814 328.745 101.384C329.002 100.954 329.346 100.607 329.775 100.343C330.205 100.08 330.706 99.8855 331.279 99.7607C331.851 99.6358 332.453 99.5734 333.083 99.5734C333.283 99.5734 333.491 99.5872 333.705 99.615C333.92 99.6289 334.121 99.6566 334.307 99.6982C334.507 99.726 334.679 99.7537 334.822 99.7815C334.965 99.8092 335.066 99.83 335.123 99.8439V99.3028C335.123 98.9837 335.087 98.6715 335.015 98.3663C334.944 98.0472 334.815 97.7697 334.629 97.5338C334.443 97.2841 334.185 97.0898 333.856 96.9511C333.541 96.7985 333.126 96.7222 332.61 96.7222C331.952 96.7222 331.372 96.7707 330.871 96.8678C330.384 96.9511 330.019 97.0413 329.775 97.1384L329.539 95.5359C329.797 95.4249 330.226 95.3208 330.828 95.2237C331.429 95.1127 332.08 95.0572 332.782 95.0572Z" fill="#00365B"/>
<path d="M5.36882 100.08C5.36882 101.517 4.16697 102.681 2.68441 102.681C1.20185 102.681 0 101.517 0 100.08C0 98.643 1.20185 97.4783 2.68441 97.4783C4.16697 97.4783 5.36882 98.643 5.36882 100.08Z" fill="#00365B"/>
<path d="M353 100.08C353 101.517 351.798 102.681 350.316 102.681C348.833 102.681 347.631 101.517 347.631 100.08C347.631 98.643 348.833 97.4783 350.316 97.4783C351.798 97.4783 353 98.643 353 100.08Z" fill="#00365B"/>
<path d="M295 51C295 59.8366 287.837 67 279 67C270.163 67 263 59.8366 263 51C263 42.1635 270.163 35 279 35C287.837 35 295 42.1635 295 51Z" fill="#F37833"/>
<path d="M256 51C256 59.8366 248.837 67 240 67C231.163 67 224 59.8366 224 51C224 42.1635 231.163 35 240 35C248.837 35 256 42.1635 256 51Z" fill="#F37833"/>
</svg>
