<svg width="70" height="44" viewBox="0 0 70 44" fill="none" xmlns="http://www.w3.org/2000/svg">
<path d="M0 20.5374V17.6717C0 16.3981 0.151624 15.2609 0.454873 14.2602C0.758122 13.2595 1.16751 12.4407 1.68303 11.8039C2.19855 11.1671 2.83538 10.6515 3.5935 10.2573C4.38194 9.83277 5.20072 9.54468 6.04981 9.39306C6.92923 9.21111 7.91479 9.10497 9.00649 9.07465C11.3112 9.014 13.6917 9.12013 16.148 9.39306C18.6043 9.66598 20.5148 9.99955 21.8794 10.3938V15.3974C18.4224 15.0941 14.7076 14.9425 10.735 14.9425C9.12779 14.9122 7.9906 15.0941 7.32346 15.4884C6.68664 15.8523 6.36822 16.7468 6.36822 18.1721V19.8097C6.36822 21.0833 6.62598 21.9324 7.14151 22.3569C7.65703 22.7815 8.58194 22.9938 9.91623 22.9938H15.1928C15.9812 22.9938 16.709 23.0696 17.3762 23.2212C18.0736 23.3728 18.665 23.5851 19.1502 23.858C19.6657 24.1309 20.1206 24.4494 20.5148 24.8133C20.9393 25.1772 21.2881 25.5865 21.561 26.0414C21.8642 26.4963 22.1068 26.9663 22.2888 27.4515C22.5011 27.9064 22.6527 28.3916 22.7437 28.9071C22.865 29.4226 22.9408 29.923 22.9711 30.4082C23.0317 30.8631 23.0621 31.3331 23.0621 31.8183V34.0472C23.0621 35.5028 22.8801 36.7764 22.5162 37.8681C22.1523 38.9598 21.6823 39.8241 21.1061 40.4609C20.5603 41.0977 19.8628 41.6132 19.0137 42.0075C18.1949 42.4017 17.3762 42.6594 16.5574 42.7807C15.7386 42.9324 14.844 43.0082 13.8736 43.0082C8.38483 43.0082 4.09386 42.5533 1.00072 41.6436V36.64C4.33646 36.9735 8.20288 37.1403 12.6 37.1403C13.1762 37.1403 13.6614 37.11 14.0556 37.0493C14.4801 36.9887 14.9047 36.8674 15.3292 36.6854C15.7841 36.5035 16.1177 36.2154 16.3299 35.8212C16.5725 35.3966 16.6938 34.8811 16.6938 34.2746V32.5006C16.6938 31.4392 16.4816 30.6508 16.057 30.1353C15.6325 29.6197 14.844 29.362 13.6917 29.362H8.5971C2.8657 29.3317 0 26.3901 0 20.5374Z" fill="#F37833"/>
<path d="M26.1481 9.34757H32.9257L40.2946 34.0472L46.299 9.34757H53.1221L50.8022 17.9447L56.0787 34.1836L62.174 9.34757H68.9062L59.7632 42.6443H52.3943L47.891 28.9981L43.9791 42.6443H36.6102L26.1481 9.34757Z" fill="#F37833"/>
<path d="M70.0001 2.84296C70.0001 4.41308 68.7273 5.68591 67.1572 5.68591C65.587 5.68591 64.3142 4.41308 64.3142 2.84296C64.3142 1.27284 65.587 0 67.1572 0C68.7273 0 70.0001 1.27284 70.0001 2.84296Z" fill="#00365B"/>
<path d="M54.3636 2.84296C54.3636 4.41308 53.0908 5.68591 51.5207 5.68591C49.9506 5.68591 48.6777 4.41308 48.6777 2.84296C48.6777 1.27284 49.9506 0 51.5207 0C53.0908 0 54.3636 1.27284 54.3636 2.84296Z" fill="#00365B"/>
</svg>
