<svg width="20" height="19" viewBox="0 0 20 19" fill="none" xmlns="http://www.w3.org/2000/svg">
<path d="M19.6665 7.66013L18.1434 7.87479C17.7686 5.21975 16.2211 2.76094 13.7223 1.31827C9.40761 -1.17285 3.9011 0.299471 1.40333 4.61284C-1.09659 8.92994 0.380447 14.4541 4.6989 16.9473C8.07217 18.8949 12.1822 18.4149 15.0068 16.0491C15.0798 15.987 15.0893 15.876 15.0262 15.8048L14.1807 14.8329C14.1512 14.799 14.1097 14.7781 14.0649 14.7745C14.0202 14.7709 13.9758 14.785 13.9413 14.8137C13.8541 14.8874 13.7631 14.9589 13.6714 15.0276C12.9091 15.6046 12.0524 16.0229 11.125 16.2713C10.2044 16.5189 9.24472 16.5865 8.29856 16.4704C7.31924 16.349 6.38235 16.0338 5.51903 15.5354C4.65385 15.0359 3.91433 14.3832 3.31958 13.5957C2.74438 12.8354 2.3229 11.9701 2.07872 11.0485C1.83061 10.1277 1.76401 9.1675 1.88265 8.2213C2.00507 7.24012 2.31916 6.30509 2.81867 5.43992C3.31818 4.57474 3.97089 3.83522 4.75941 3.23861C5.52172 2.6616 6.37847 2.24331 7.30587 1.99481C8.23327 1.74631 9.18438 1.6802 10.1323 1.79581C11.1116 1.91715 12.0485 2.23231 12.9118 2.73075C13.777 3.23026 14.5165 3.88298 15.1113 4.67042C15.6865 5.43081 16.1079 6.29602 16.3521 7.21766C16.43 7.50821 16.4902 7.80348 16.5321 8.10052L14.9071 8.32833C14.875 8.33268 14.8449 8.34599 14.82 8.36672C14.7952 8.38746 14.7767 8.41479 14.7667 8.44556C14.7567 8.47633 14.7556 8.5093 14.7635 8.54067C14.7714 8.57204 14.7881 8.60055 14.8114 8.6229L17.6167 11.3093C17.6969 11.3853 17.8289 11.3673 17.8837 11.2724L19.8418 7.91513C19.9108 7.79126 19.8073 7.6397 19.6665 7.66013V7.66013Z" fill="#A8A8A8"/>
</svg>
