<svg width="42" height="40" viewBox="0 0 42 40" fill="none" xmlns="http://www.w3.org/2000/svg">
<path d="M41.19 16.8403L37.9743 17.2935C37.1829 11.6879 33.9157 6.49656 28.64 3.45062C19.5303 -1.80889 7.9043 1.29963 2.63074 10.4065C-2.64736 19.5212 0.471121 31.1843 9.58872 36.4484C16.7107 40.5603 25.3882 39.5468 31.3518 34.5519C31.506 34.4209 31.5261 34.1864 31.3929 34.0362L29.6078 31.9842C29.5455 31.9127 29.4578 31.8685 29.3633 31.8609C29.2688 31.8533 29.1751 31.883 29.1022 31.9437C28.9181 32.0993 28.7261 32.2503 28.5325 32.3952C26.923 33.6134 25.1142 34.4966 23.1561 35.0212C21.2126 35.544 19.1863 35.6866 17.1887 35.4414C15.1211 35.1852 13.143 34.5198 11.3203 33.4674C9.4936 32.4128 7.93225 31.0347 6.67655 29.3722C5.46212 27.7668 4.57225 25.94 4.0567 23.9942C3.53286 22.0501 3.39226 20.0228 3.64274 18.0251C3.90121 15.9535 4.56434 13.9794 5.61896 12.1527C6.67359 10.326 8.05167 8.76469 9.71647 7.50506C11.3259 6.28682 13.1348 5.40367 15.0928 4.87902C17.0509 4.35436 19.059 4.21477 21.0603 4.45886C23.1279 4.71506 25.106 5.38046 26.9287 6.43282C28.7554 7.48744 30.3167 8.86552 31.5724 10.5281C32.7868 12.1335 33.6767 13.9602 34.1923 15.9061C34.3566 16.5195 34.4838 17.1429 34.5722 17.7701L31.1414 18.251C31.0737 18.2602 31.01 18.2883 30.9575 18.3321C30.9051 18.3759 30.8661 18.4336 30.845 18.4986C30.8239 18.5635 30.8216 18.6331 30.8383 18.6994C30.855 18.7656 30.89 18.8258 30.9394 18.873L36.8623 24.5448C37.0315 24.7053 37.3102 24.6672 37.4258 24.4668L41.5601 17.3787C41.7058 17.1171 41.4873 16.7971 41.19 16.8403Z" fill="#A8A8A8"/>
</svg>
