<svg width="186" height="48" viewBox="0 0 186 48" fill="none" xmlns="http://www.w3.org/2000/svg">
<path d="M9.7866 10.0672V7.94599C9.7866 7.00324 9.89901 6.16151 10.1238 5.42078C10.3486 4.68005 10.6521 4.074 11.0343 3.60263C11.4165 3.13126 11.8886 2.74967 12.4507 2.45787C13.0352 2.14362 13.6422 1.93038 14.2717 1.81815C14.9236 1.68347 15.6543 1.60491 16.4636 1.58246C18.1722 1.53757 19.937 1.61613 21.758 1.81815C23.5791 2.02017 24.9954 2.26707 26.0071 2.55888V6.26252C23.4442 6.03805 20.6902 5.92582 17.7451 5.92582C16.5536 5.90338 15.7105 6.03805 15.2159 6.32986C14.7438 6.59921 14.5077 7.26138 14.5077 8.31635V9.52845C14.5077 10.4712 14.6988 11.0997 15.081 11.4139C15.4632 11.7282 16.1489 11.8853 17.1381 11.8853H21.0499C21.6344 11.8853 22.174 11.9414 22.6686 12.0537C23.1856 12.1659 23.624 12.323 23.9837 12.525C24.3659 12.7271 24.7031 12.9627 24.9954 13.2321C25.3101 13.5014 25.5687 13.8045 25.771 14.1412C25.9958 14.4779 26.1757 14.8258 26.3106 15.1849C26.4679 15.5216 26.5803 15.8808 26.6478 16.2623C26.7377 16.6439 26.7939 17.0143 26.8164 17.3734C26.8614 17.7101 26.8839 18.058 26.8839 18.4172V20.067C26.8839 21.1444 26.749 22.0872 26.4792 22.8952C26.2094 23.7033 25.8609 24.343 25.4338 24.8144C25.0291 25.2858 24.512 25.6673 23.8826 25.9591C23.2756 26.2509 22.6686 26.4417 22.0615 26.5315C21.4545 26.6438 20.7913 26.6999 20.0719 26.6999C16.0028 26.6999 12.8216 26.3632 10.5285 25.6898V21.9861C13.0015 22.2331 15.8679 22.3565 19.1277 22.3565C19.5549 22.3565 19.9146 22.3341 20.2068 22.2892C20.5216 22.2443 20.8363 22.1545 21.151 22.0198C21.4883 21.8851 21.7356 21.6719 21.8929 21.3801C22.0728 21.0658 22.1627 20.6843 22.1627 20.2353V18.9222C22.1627 18.1366 22.0053 17.553 21.6906 17.1714C21.3759 16.7898 20.7913 16.599 19.937 16.599H16.1601C11.9111 16.5766 9.7866 14.3993 9.7866 10.0672Z" fill="#00365B"/>
<path d="M28.531 12.121V9.49478L31.4311 8.51837L32.2067 3.53529H36.1522V8.51837H40.1652V12.121H36.1522V19.2926C36.1522 20.1231 36.2197 20.7965 36.3546 21.3128C36.4895 21.8066 36.6581 22.1545 36.8604 22.3565C37.0627 22.5361 37.3325 22.6932 37.6697 22.8279C39.0186 23.2993 39.7718 23.5349 39.9291 23.5349V26.4305H35.815C34.4212 26.4305 33.342 25.9367 32.5777 24.9491C31.8133 23.939 31.4311 22.3004 31.4311 20.0333V12.121H28.531Z" fill="#00365B"/>
<path d="M42.1163 17.4071C42.1163 15.8583 42.2063 14.5676 42.3861 13.5351C42.5885 12.4801 42.8695 11.616 43.2292 10.9426C43.5889 10.2467 44.0947 9.71925 44.7467 9.36011C45.3987 9.00097 46.1181 8.75406 46.9049 8.61938C47.7143 8.4847 48.7259 8.41736 49.9399 8.41736C50.7493 8.41736 51.435 8.43981 51.997 8.4847C52.5591 8.50715 53.1211 8.57449 53.6831 8.68672C54.2676 8.7765 54.7398 8.9224 55.0995 9.12442C55.4592 9.30399 55.8076 9.56212 56.1449 9.89882C56.4821 10.2131 56.7406 10.6059 56.9205 11.0772C57.1228 11.5262 57.2689 12.0761 57.3589 12.7271C57.4713 13.3555 57.5275 14.0851 57.5275 14.9156C57.5275 16.4868 57.1116 17.6316 56.2798 18.3498C55.4479 19.0681 54.2002 19.4273 52.5366 19.4273H46.8375C46.8375 20.4598 46.9836 21.2342 47.2759 21.7505C47.5906 22.2443 47.9728 22.5473 48.4224 22.6595C48.8946 22.7718 49.6252 22.8279 50.6144 22.8279C53.3796 22.8279 55.5716 22.7044 57.1903 22.4575V25.6561C55.5041 26.2846 52.4466 26.5989 48.0178 26.5989C46.8712 26.5989 45.9157 26.4305 45.1514 26.0938C44.4095 25.7571 43.8137 25.2072 43.3641 24.444C42.9144 23.6808 42.5885 22.7381 42.3861 21.6158C42.2063 20.4935 42.1163 19.0906 42.1163 17.4071ZM46.8375 16.0267H51.3226C52.3117 16.0267 52.8063 15.5777 52.8063 14.6799C52.8063 13.5576 52.649 12.8393 52.3342 12.525C52.042 12.1883 51.3338 12.02 50.2097 12.02C49.4903 12.02 48.9508 12.0537 48.591 12.121C48.2538 12.1659 47.9166 12.323 47.5794 12.5924C47.2646 12.8393 47.0511 13.2321 46.9387 13.7708C46.8487 14.3095 46.815 15.0615 46.8375 16.0267Z" fill="#00365B"/>
<path d="M59.8338 17.4071C59.8338 15.8583 59.9237 14.5676 60.1035 13.5351C60.3059 12.4801 60.5869 11.616 60.9466 10.9426C61.3063 10.2467 61.8122 9.71925 62.4641 9.36011C63.1161 9.00097 63.8355 8.75406 64.6224 8.61938C65.4317 8.4847 66.4434 8.41736 67.6574 8.41736C68.4667 8.41736 69.1524 8.43981 69.7144 8.4847C70.2765 8.50715 70.8385 8.57449 71.4006 8.68672C71.9851 8.7765 72.4572 8.9224 72.8169 9.12442C73.1766 9.30399 73.5251 9.56212 73.8623 9.89882C74.1995 10.2131 74.458 10.6059 74.6379 11.0772C74.8402 11.5262 74.9864 12.0761 75.0763 12.7271C75.1887 13.3555 75.2449 14.0851 75.2449 14.9156C75.2449 16.4868 74.829 17.6316 73.9972 18.3498C73.1654 19.0681 71.9176 19.4273 70.254 19.4273H64.5549C64.5549 20.4598 64.701 21.2342 64.9933 21.7505C65.308 22.2443 65.6902 22.5473 66.1399 22.6595C66.612 22.7718 67.3426 22.8279 68.3318 22.8279C71.097 22.8279 73.289 22.7044 74.9077 22.4575V25.6561C73.2216 26.2846 70.1641 26.5989 65.7352 26.5989C64.5886 26.5989 63.6332 26.4305 62.8688 26.0938C62.1269 25.7571 61.5311 25.2072 61.0815 24.444C60.6319 23.6808 60.3059 22.7381 60.1035 21.6158C59.9237 20.4935 59.8338 19.0906 59.8338 17.4071ZM64.5549 16.0267H69.04C70.0292 16.0267 70.5238 15.5777 70.5238 14.6799C70.5238 13.5576 70.3664 12.8393 70.0517 12.525C69.7594 12.1883 69.0512 12.02 67.9271 12.02C67.2077 12.02 66.6682 12.0537 66.3085 12.121C65.9712 12.1659 65.634 12.323 65.2968 12.5924C64.9821 12.8393 64.7685 13.2321 64.6561 13.7708C64.5661 14.3095 64.5324 15.0615 64.5549 16.0267Z" fill="#00365B"/>
<path d="M77.821 20.067V0.067338H82.5421V19.3263C82.5421 20.5159 82.6658 21.3464 82.9131 21.8178C83.1604 22.2892 83.5538 22.6259 84.0933 22.8279C85.4422 23.2993 86.1954 23.5349 86.3527 23.5349V26.4305H82.4409C81.699 26.4305 81.0471 26.3183 80.485 26.0938C79.923 25.8694 79.4397 25.5214 79.035 25.0501C78.6303 24.5562 78.3268 23.8941 78.1245 23.0636C77.9221 22.2331 77.821 21.2342 77.821 20.067Z" fill="#00365B"/>
<path d="M87.3805 8.55204H92.4388L96.0134 20.9087L99.217 8.55204H103.938L102.69 13.3668L105.658 20.9087L109.199 8.55204H114.257L108.457 26.4305H103.196L100.498 19.966L98.4751 26.4305H93.1133L87.3805 8.55204Z" fill="#00365B"/>
<path d="M159.848 17.5755C159.848 16.3409 159.893 15.2859 159.983 14.4105C160.073 13.5127 160.242 12.6597 160.489 11.8516C160.736 11.0436 161.074 10.3926 161.501 9.89882C161.928 9.405 162.49 9.01219 163.187 8.72039C163.884 8.42858 164.716 8.28268 165.682 8.28268C166.199 8.28268 166.773 8.32758 167.402 8.41736C168.032 8.50715 168.672 8.64182 169.324 8.8214C169.999 9.00097 170.594 9.2142 171.112 9.46111V0H175.833V26.4305H171.921L171.112 24.6124C170.46 25.1511 169.639 25.6224 168.65 26.0265C167.661 26.4305 166.671 26.6325 165.682 26.6325C165.255 26.6325 164.85 26.5989 164.468 26.5315C164.086 26.4642 163.726 26.3632 163.389 26.2285C163.074 26.0938 162.771 25.9367 162.479 25.7571C162.209 25.5551 161.962 25.3194 161.737 25.0501C161.512 24.7807 161.298 24.5001 161.096 24.2083C160.916 23.8941 160.759 23.5574 160.624 23.1982C160.489 22.8167 160.365 22.4239 160.253 22.0198C160.163 21.5933 160.084 21.1444 160.017 20.673C159.972 20.1792 159.927 19.6854 159.882 19.1916C159.86 18.6753 159.848 18.1366 159.848 17.5755ZM164.569 17.4071C164.569 19.315 164.761 20.6618 165.143 21.4474C165.525 22.2106 166.121 22.5922 166.93 22.5922C167.762 22.5922 168.526 22.5024 169.223 22.3228C169.943 22.1208 170.572 21.8515 171.112 21.5148V12.6597C170.797 12.525 170.471 12.424 170.134 12.3567C169.819 12.2669 169.493 12.1996 169.156 12.1547C168.818 12.0873 168.459 12.0424 168.077 12.02C167.717 11.9975 167.335 11.9863 166.93 11.9863C166.593 11.9863 166.312 12.0312 166.087 12.121C165.862 12.1883 165.649 12.3455 165.446 12.5924C165.244 12.8168 165.075 13.1311 164.94 13.5351C164.828 13.9167 164.738 14.433 164.671 15.0839C164.603 15.7124 164.569 16.4868 164.569 17.4071Z" fill="#00365B"/>
<path d="M14.7159 38.387V45.9745H13.6183V39.2958H9.85022V45.9745H8.75261V38.387H14.7159Z" fill="#00365B"/>
<path d="M20.6817 43.1388C20.6817 42.4746 20.512 41.9636 20.1725 41.606C19.833 41.2483 19.3804 41.0695 18.8146 41.0695C18.4978 41.0695 18.2489 41.0804 18.0678 41.1023C17.8943 41.1242 17.7547 41.1498 17.6491 41.179V44.7701C17.7774 44.8723 17.9622 44.9709 18.2036 45.0658C18.445 45.1606 18.709 45.2081 18.9957 45.2081C19.2974 45.2081 19.5539 45.157 19.7652 45.0548C19.9839 44.9453 20.1612 44.7993 20.297 44.6169C20.4328 44.4271 20.5308 44.2081 20.5912 43.9599C20.6515 43.7045 20.6817 43.4307 20.6817 43.1388ZM21.7793 43.1388C21.7793 43.5694 21.719 43.9672 21.5983 44.3322C21.4851 44.6971 21.3154 45.011 21.0891 45.2738C20.8628 45.5365 20.5836 45.7409 20.2517 45.8869C19.9273 46.0329 19.5539 46.1059 19.1315 46.1059C18.792 46.1059 18.4903 46.0621 18.2262 45.9745C17.9697 45.8869 17.7774 45.803 17.6491 45.7227V48H16.5968V40.4563C16.8457 40.398 17.155 40.3359 17.5247 40.2702C17.9019 40.1972 18.3356 40.1607 18.826 40.1607C19.2786 40.1607 19.6859 40.2301 20.048 40.3688C20.4101 40.5074 20.7194 40.7045 20.9759 40.96C21.2324 41.2155 21.4285 41.5293 21.5643 41.9016C21.7077 42.2665 21.7793 42.6789 21.7793 43.1388Z" fill="#00365B"/>
<path d="M28.454 43.1278C28.454 43.5804 28.3861 43.9891 28.2503 44.3541C28.1146 44.719 27.9222 45.0329 27.6732 45.2957C27.4318 45.5584 27.1414 45.7628 26.8019 45.9088C26.4625 46.0475 26.0928 46.1168 25.693 46.1168C25.2932 46.1168 24.9236 46.0475 24.5841 45.9088C24.2446 45.7628 23.9504 45.5584 23.7015 45.2957C23.4601 45.0329 23.2715 44.719 23.1357 44.3541C22.9999 43.9891 22.932 43.5804 22.932 43.1278C22.932 42.6826 22.9999 42.2775 23.1357 41.9125C23.2715 41.5403 23.4601 41.2228 23.7015 40.96C23.9504 40.6972 24.2446 40.4965 24.5841 40.3578C24.9236 40.2118 25.2932 40.1388 25.693 40.1388C26.0928 40.1388 26.4625 40.2118 26.8019 40.3578C27.1414 40.4965 27.4318 40.6972 27.6732 40.96C27.9222 41.2228 28.1146 41.5403 28.2503 41.9125C28.3861 42.2775 28.454 42.6826 28.454 43.1278ZM27.3564 43.1278C27.3564 42.4855 27.2055 41.9782 26.9038 41.606C26.6096 41.2264 26.206 41.0366 25.693 41.0366C25.18 41.0366 24.7727 41.2264 24.4709 41.606C24.1767 41.9782 24.0296 42.4855 24.0296 43.1278C24.0296 43.7702 24.1767 44.2811 24.4709 44.6607C24.7727 45.0329 25.18 45.219 25.693 45.219C26.206 45.219 26.6096 45.0329 26.9038 44.6607C27.2055 44.2811 27.3564 43.7702 27.3564 43.1278Z" fill="#00365B"/>
<path d="M34.8795 40.2812V45.9745H33.8611V41.6388C33.6348 41.9162 33.3858 42.241 33.1143 42.6132C32.8427 42.9855 32.5711 43.3724 32.2995 43.7738C32.028 44.168 31.7677 44.5585 31.5188 44.9453C31.2698 45.3322 31.0548 45.6752 30.8738 45.9745H29.9346V40.2812H30.953V44.376C31.1491 44.0621 31.3717 43.7191 31.6206 43.3468C31.8696 42.9673 32.126 42.595 32.3901 42.23C32.6616 41.8578 32.9295 41.5038 33.1935 41.168C33.4651 40.825 33.7178 40.5293 33.9516 40.2812H34.8795Z" fill="#00365B"/>
<path d="M38.18 40.1388C38.5195 40.1388 38.8363 40.1717 39.1305 40.2374C39.4247 40.3031 39.6775 40.4016 39.8887 40.533C40.0999 40.6644 40.2659 40.8286 40.3866 41.0257C40.5073 41.2228 40.5676 41.4527 40.5676 41.7155C40.5676 41.8833 40.5374 42.0366 40.4771 42.1753C40.4167 42.314 40.3413 42.4381 40.2508 42.5475C40.1603 42.657 40.0584 42.7519 39.9453 42.8322C39.8397 42.9052 39.7378 42.9563 39.6397 42.9855C39.9868 43.0877 40.2583 43.2702 40.4545 43.5329C40.6581 43.7884 40.76 44.1132 40.76 44.5074C40.76 45.0475 40.5337 45.449 40.0811 45.7117C39.6284 45.9745 39.0136 46.1059 38.2366 46.1059C37.7614 46.1059 37.3502 46.0694 37.0032 45.9964C36.6637 45.9234 36.4223 45.8541 36.279 45.7884L36.4601 44.9234C36.5808 44.9672 36.7958 45.0293 37.1051 45.1095C37.4219 45.1825 37.7991 45.219 38.2366 45.219C38.7119 45.219 39.074 45.1497 39.3229 45.011C39.5719 44.865 39.6963 44.6497 39.6963 44.365C39.6963 44.1607 39.6473 43.9964 39.5492 43.8723C39.4587 43.741 39.3418 43.6424 39.1984 43.5767C39.0551 43.511 38.9005 43.4672 38.7345 43.4453C38.5685 43.4234 38.4139 43.4125 38.2706 43.4125H37.2861V42.6023H38.2366C38.3724 42.6023 38.512 42.595 38.6553 42.5804C38.8062 42.5585 38.942 42.5184 39.0626 42.46C39.1909 42.4016 39.2965 42.3213 39.3795 42.2191C39.4625 42.1096 39.504 41.9673 39.504 41.7921C39.504 41.6534 39.4662 41.5366 39.3908 41.4417C39.3229 41.3395 39.2286 41.2556 39.1079 41.1899C38.9872 41.1242 38.8439 41.0768 38.6779 41.0476C38.5195 41.0111 38.3535 40.9928 38.18 40.9928C38.0442 40.9928 37.8971 41.0038 37.7387 41.0257C37.5803 41.0476 37.4257 41.0768 37.2748 41.1133C37.1239 41.1425 36.9881 41.1753 36.8674 41.2118C36.7467 41.2483 36.66 41.2812 36.6072 41.3103L36.4148 40.4344C36.4752 40.4126 36.5694 40.3834 36.6977 40.3469C36.8259 40.3104 36.9693 40.2775 37.1277 40.2483C37.2936 40.2191 37.4672 40.1936 37.6482 40.1717C37.8293 40.1498 38.0065 40.1388 38.18 40.1388Z" fill="#00365B"/>
<path d="M43.2523 45.2081C43.2976 45.2154 43.3617 45.2227 43.4447 45.23C43.5277 45.2373 43.622 45.2446 43.7276 45.2519C43.8332 45.2519 43.9426 45.2555 44.0557 45.2628C44.1764 45.2628 44.2896 45.2628 44.3952 45.2628C44.614 45.2628 44.8214 45.2482 45.0176 45.219C45.2212 45.1898 45.3948 45.1387 45.5381 45.0658C45.689 44.9928 45.8059 44.8979 45.8889 44.7811C45.9794 44.657 46.0247 44.5001 46.0247 44.3103C46.0247 44.1278 45.9832 43.9782 45.9002 43.8614C45.8247 43.7373 45.7191 43.6388 45.5833 43.5658C45.4476 43.4928 45.2854 43.4417 45.0968 43.4125C44.9157 43.3833 44.7196 43.3687 44.5084 43.3687H43.2523V45.2081ZM44.3726 42.6132C44.5763 42.6132 44.7611 42.6023 44.927 42.5804C45.1005 42.5512 45.2477 42.5038 45.3684 42.4381C45.4966 42.3724 45.5947 42.2848 45.6626 42.1753C45.738 42.0658 45.7757 41.9271 45.7757 41.7592C45.7757 41.5841 45.7304 41.4454 45.6399 41.3432C45.5494 41.241 45.4287 41.1644 45.2778 41.1133C45.1345 41.0549 44.9685 41.0184 44.7799 41.0038C44.5989 40.9819 44.4141 40.9709 44.2255 40.9709C44.052 40.9709 43.8747 40.9746 43.6936 40.9819C43.5201 40.9892 43.373 40.9965 43.2523 41.0038V42.6132H44.3726ZM44.3499 46.073C43.9049 46.073 43.4937 46.0511 43.1165 46.0073C42.7394 45.9708 42.4414 45.927 42.2226 45.876V40.3359C42.4414 40.2848 42.7394 40.241 43.1165 40.2045C43.4937 40.1607 43.9049 40.1388 44.3499 40.1388C44.6592 40.1388 44.961 40.1644 45.2552 40.2155C45.5494 40.2666 45.8097 40.3542 46.036 40.4782C46.2623 40.595 46.4433 40.7593 46.5791 40.9709C46.7225 41.1753 46.7941 41.4308 46.7941 41.7373C46.7941 42.0147 46.7225 42.2519 46.5791 42.449C46.4358 42.6461 46.2434 42.7994 46.002 42.9089C46.3264 43.0183 46.5829 43.1826 46.7715 43.4016C46.9676 43.6132 47.0657 43.9125 47.0657 44.2993C47.0657 44.6424 46.994 44.9271 46.8507 45.1533C46.7149 45.3796 46.5225 45.5621 46.2736 45.7008C46.0322 45.8395 45.7455 45.9343 45.4136 45.9854C45.0817 46.0438 44.7271 46.073 44.3499 46.073Z" fill="#00365B"/>
<path d="M53.6157 43.1278C53.6157 43.5804 53.5478 43.9891 53.4121 44.3541C53.2763 44.719 53.0839 45.0329 52.835 45.2957C52.5936 45.5584 52.3031 45.7628 51.9637 45.9088C51.6242 46.0475 51.2545 46.1168 50.8547 46.1168C50.4549 46.1168 50.0853 46.0475 49.7458 45.9088C49.4063 45.7628 49.1121 45.5584 48.8632 45.2957C48.6218 45.0329 48.4332 44.719 48.2974 44.3541C48.1616 43.9891 48.0937 43.5804 48.0937 43.1278C48.0937 42.6826 48.1616 42.2775 48.2974 41.9125C48.4332 41.5403 48.6218 41.2228 48.8632 40.96C49.1121 40.6972 49.4063 40.4965 49.7458 40.3578C50.0853 40.2118 50.4549 40.1388 50.8547 40.1388C51.2545 40.1388 51.6242 40.2118 51.9637 40.3578C52.3031 40.4965 52.5936 40.6972 52.835 40.96C53.0839 41.2228 53.2763 41.5403 53.4121 41.9125C53.5478 42.2775 53.6157 42.6826 53.6157 43.1278ZM52.5181 43.1278C52.5181 42.4855 52.3672 41.9782 52.0655 41.606C51.7713 41.2264 51.3677 41.0366 50.8547 41.0366C50.3418 41.0366 49.9344 41.2264 49.6326 41.606C49.3384 41.9782 49.1913 42.4855 49.1913 43.1278C49.1913 43.7702 49.3384 44.2811 49.6326 44.6607C49.9344 45.0329 50.3418 45.219 50.8547 45.219C51.3677 45.219 51.7713 45.0329 52.0655 44.6607C52.3672 44.2811 52.5181 43.7702 52.5181 43.1278Z" fill="#00365B"/>
<path d="M54.3721 45.1424H55.0058C55.2547 44.792 55.4509 44.4307 55.5942 44.0585C55.7451 43.6862 55.8582 43.303 55.9337 42.9089C56.0091 42.5074 56.0581 42.0914 56.0808 41.6607C56.1034 41.2228 56.1185 40.7629 56.126 40.2812H59.9846V45.1424H60.7767V47.5621H59.781V45.9745H55.3679V47.5621H54.3721V45.1424ZM58.9323 45.1424V41.1352H57.0878C57.0803 41.4782 57.0614 41.8249 57.0313 42.1753C57.0011 42.5184 56.9521 42.8614 56.8842 43.2045C56.8163 43.5402 56.7182 43.8723 56.59 44.2008C56.4693 44.522 56.3146 44.8358 56.126 45.1424H58.9323Z" fill="#00365B"/>
<path d="M64.4717 46.1059C63.9965 46.1059 63.5778 46.0329 63.2157 45.8869C62.8611 45.7409 62.5594 45.5365 62.3104 45.2738C62.069 45.011 61.888 44.7008 61.7673 44.3431C61.6466 43.9782 61.5862 43.5767 61.5862 43.1388C61.5862 42.7008 61.6504 42.2994 61.7786 41.9344C61.9144 41.5695 62.103 41.2556 62.3444 40.9928C62.5858 40.7228 62.88 40.5147 63.227 40.3688C63.5816 40.2155 63.9738 40.1388 64.4038 40.1388C64.6678 40.1388 64.9319 40.1607 65.1959 40.2045C65.4599 40.2483 65.7127 40.3177 65.9541 40.4126L65.7164 41.2775C65.558 41.2045 65.3732 41.1461 65.162 41.1023C64.9583 41.0585 64.7395 41.0366 64.5057 41.0366C63.9173 41.0366 63.4646 41.2155 63.1478 41.5731C62.8385 41.9308 62.6839 42.4527 62.6839 43.1388C62.6839 43.4453 62.7178 43.7264 62.7857 43.9818C62.8611 44.2373 62.9743 44.4563 63.1252 44.6388C63.2836 44.8212 63.4835 44.9636 63.7249 45.0658C63.9663 45.1606 64.2605 45.2081 64.6075 45.2081C64.8866 45.2081 65.1393 45.1825 65.3656 45.1314C65.592 45.0803 65.7692 45.0256 65.8975 44.9672L66.0446 45.8212C65.9842 45.8577 65.8975 45.8942 65.7843 45.9307C65.6712 45.9599 65.5429 45.9854 65.3996 46.0073C65.2563 46.0365 65.1016 46.0584 64.9357 46.073C64.7772 46.0949 64.6226 46.1059 64.4717 46.1059Z" fill="#00365B"/>
<path d="M71.493 40.2812V41.1352H69.5806V45.9745H68.5283V41.1352H66.6159V40.2812H71.493Z" fill="#00365B"/>
<path d="M73.6077 45.2081C73.653 45.2154 73.7171 45.2227 73.8001 45.23C73.8831 45.2373 73.9774 45.2446 74.083 45.2519C74.1886 45.2519 74.298 45.2555 74.4111 45.2628C74.5318 45.2628 74.645 45.2628 74.7506 45.2628C74.9694 45.2628 75.1768 45.2482 75.373 45.219C75.5766 45.1898 75.7501 45.1387 75.8935 45.0658C76.0443 44.9928 76.1613 44.8979 76.2443 44.7811C76.3348 44.657 76.38 44.5001 76.38 44.3103C76.38 44.1278 76.3386 43.9782 76.2556 43.8614C76.1801 43.7373 76.0745 43.6388 75.9387 43.5658C75.8029 43.4928 75.6408 43.4417 75.4522 43.4125C75.2711 43.3833 75.075 43.3687 74.8638 43.3687H73.6077V45.2081ZM74.728 42.6132C74.9316 42.6132 75.1165 42.6023 75.2824 42.5804C75.4559 42.5512 75.603 42.5038 75.7237 42.4381C75.852 42.3724 75.9501 42.2848 76.018 42.1753C76.0934 42.0658 76.1311 41.9271 76.1311 41.7592C76.1311 41.5841 76.0858 41.4454 75.9953 41.3432C75.9048 41.241 75.7841 41.1644 75.6332 41.1133C75.4899 41.0549 75.3239 41.0184 75.1353 41.0038C74.9543 40.9819 74.7695 40.9709 74.5809 40.9709C74.4074 40.9709 74.2301 40.9746 74.049 40.9819C73.8755 40.9892 73.7284 40.9965 73.6077 41.0038V42.6132H74.728ZM74.7053 46.073C74.2603 46.073 73.8491 46.0511 73.4719 46.0073C73.0947 45.9708 72.7968 45.927 72.578 45.876V40.3359C72.7968 40.2848 73.0947 40.241 73.4719 40.2045C73.8491 40.1607 74.2603 40.1388 74.7053 40.1388C75.0146 40.1388 75.3164 40.1644 75.6106 40.2155C75.9048 40.2666 76.165 40.3542 76.3914 40.4782C76.6177 40.595 76.7987 40.7593 76.9345 40.9709C77.0778 41.1753 77.1495 41.4308 77.1495 41.7373C77.1495 42.0147 77.0778 42.2519 76.9345 42.449C76.7912 42.6461 76.5988 42.7994 76.3574 42.9089C76.6818 43.0183 76.9383 43.1826 77.1269 43.4016C77.323 43.6132 77.4211 43.9125 77.4211 44.2993C77.4211 44.6424 77.3494 44.9271 77.2061 45.1533C77.0703 45.3796 76.8779 45.5621 76.629 45.7008C76.3876 45.8395 76.1009 45.9343 75.769 45.9854C75.4371 46.0438 75.0825 46.073 74.7053 46.073Z" fill="#00365B"/>
<path d="M83.9711 43.1278C83.9711 43.5804 83.9032 43.9891 83.7674 44.3541C83.6317 44.719 83.4393 45.0329 83.1903 45.2957C82.949 45.5584 82.6585 45.7628 82.319 45.9088C81.9796 46.0475 81.6099 46.1168 81.2101 46.1168C80.8103 46.1168 80.4407 46.0475 80.1012 45.9088C79.7617 45.7628 79.4675 45.5584 79.2186 45.2957C78.9772 45.0329 78.7886 44.719 78.6528 44.3541C78.517 43.9891 78.4491 43.5804 78.4491 43.1278C78.4491 42.6826 78.517 42.2775 78.6528 41.9125C78.7886 41.5403 78.9772 41.2228 79.2186 40.96C79.4675 40.6972 79.7617 40.4965 80.1012 40.3578C80.4407 40.2118 80.8103 40.1388 81.2101 40.1388C81.6099 40.1388 81.9796 40.2118 82.319 40.3578C82.6585 40.4965 82.949 40.6972 83.1903 40.96C83.4393 41.2228 83.6317 41.5403 83.7674 41.9125C83.9032 42.2775 83.9711 42.6826 83.9711 43.1278ZM82.8735 43.1278C82.8735 42.4855 82.7226 41.9782 82.4209 41.606C82.1267 41.2264 81.7231 41.0366 81.2101 41.0366C80.6972 41.0366 80.2898 41.2264 79.988 41.606C79.6938 41.9782 79.5467 42.4855 79.5467 43.1278C79.5467 43.7702 79.6938 44.2811 79.988 44.6607C80.2898 45.0329 80.6972 45.219 81.2101 45.219C81.7231 45.219 82.1267 45.0329 82.4209 44.6607C82.7226 44.2811 82.8735 43.7702 82.8735 43.1278Z" fill="#00365B"/>
<path d="M89.1909 41.7811C89.1154 42.5038 89.0589 43.2264 89.0211 43.949C88.9834 44.6643 88.9533 45.3395 88.9306 45.9745H87.9235C87.9386 45.5292 87.9613 45.0658 87.9914 44.584C88.0216 44.095 88.0555 43.6059 88.0933 43.1169C88.131 42.6205 88.1725 42.1352 88.2177 41.6607C88.263 41.179 88.312 40.7191 88.3648 40.2812H89.3267C89.5681 40.6607 89.851 41.1826 90.1753 41.8468C90.4997 42.5038 90.8731 43.2629 91.2956 44.1242C91.718 43.2629 92.0914 42.5038 92.4158 41.8468C92.7402 41.1826 93.0231 40.6607 93.2645 40.2812H94.2376C94.2904 40.7191 94.3395 41.179 94.3847 41.6607C94.43 42.1352 94.4715 42.6205 94.5092 43.1169C94.5469 43.6059 94.5809 44.095 94.6111 44.584C94.6412 45.0658 94.6639 45.5292 94.6789 45.9745H93.6379C93.6153 45.3395 93.5851 44.6643 93.5474 43.949C93.5097 43.2264 93.4531 42.5038 93.3776 41.7811C93.2569 42.0074 93.1174 42.2811 92.959 42.6023C92.8006 42.9162 92.6421 43.2373 92.4837 43.5658C92.3328 43.8942 92.1895 44.2081 92.0537 44.5074C91.9179 44.8066 91.8123 45.0439 91.7369 45.219H90.8543C90.7713 45.0366 90.6581 44.7957 90.5148 44.4964C90.379 44.1972 90.2319 43.8833 90.0735 43.5548C89.9226 43.2191 89.768 42.8943 89.6096 42.5804C89.4511 42.2592 89.3116 41.9928 89.1909 41.7811Z" fill="#00365B"/>
<path d="M96.0192 43.1388C96.0192 42.6351 96.0947 42.1972 96.2455 41.8249C96.3964 41.4454 96.5963 41.1315 96.8453 40.8833C97.0942 40.6352 97.3809 40.4491 97.7052 40.325C98.0296 40.2009 98.3615 40.1388 98.701 40.1388C99.4931 40.1388 100.1 40.3797 100.523 40.8615C100.945 41.3359 101.156 42.0622 101.156 43.0402C101.156 43.084 101.156 43.1424 101.156 43.2154C101.156 43.2811 101.153 43.3432 101.145 43.4016H97.1168C97.1621 43.9928 97.3394 44.4417 97.6487 44.7482C97.958 45.0548 98.4408 45.2081 99.0971 45.2081C99.4667 45.2081 99.776 45.1789 100.025 45.1205C100.281 45.0548 100.474 44.9928 100.602 44.9344L100.749 45.7884C100.621 45.8541 100.395 45.9234 100.07 45.9964C99.7534 46.0694 99.3913 46.1059 98.9839 46.1059C98.4709 46.1059 98.0259 46.0329 97.6487 45.8869C97.279 45.7336 96.9735 45.5256 96.7321 45.2628C96.4907 45.0001 96.3097 44.6898 96.189 44.3322C96.0758 43.9672 96.0192 43.5694 96.0192 43.1388ZM100.059 42.5804C100.066 42.1206 99.9457 41.7446 99.6968 41.4527C99.4554 41.1534 99.1197 41.0038 98.6897 41.0038C98.4483 41.0038 98.2333 41.0512 98.0447 41.1461C97.8637 41.2337 97.709 41.3505 97.5808 41.4965C97.4525 41.6425 97.3507 41.8103 97.2753 42.0001C97.2074 42.1899 97.1621 42.3833 97.1395 42.5804H100.059Z" fill="#00365B"/>
<path d="M103.619 40.9381C103.853 40.7556 104.124 40.6169 104.433 40.522C104.75 40.4199 105.052 40.3688 105.339 40.3688C106.184 40.3688 106.821 40.6206 107.251 41.1242C107.689 41.6206 107.907 42.314 107.907 43.2045C107.907 43.584 107.854 43.949 107.749 44.2993C107.643 44.6497 107.477 44.9599 107.251 45.23C107.032 45.5 106.753 45.7154 106.414 45.876C106.074 46.0365 105.671 46.1168 105.203 46.1168C104.667 46.1168 104.222 46.0219 103.868 45.8322C103.513 45.6424 103.23 45.3833 103.019 45.0548C102.815 44.7263 102.672 44.3431 102.589 43.9052C102.506 43.4672 102.465 43.0037 102.465 42.5147C102.465 41.8797 102.51 41.2884 102.6 40.741C102.698 40.1936 102.872 39.7118 103.121 39.2958C103.37 38.8797 103.713 38.5367 104.151 38.2666C104.596 37.9892 105.165 37.8031 105.859 37.7082C106.063 37.679 106.24 37.6571 106.391 37.6425C106.549 37.6206 106.685 37.6024 106.798 37.5878C106.919 37.5732 107.028 37.5586 107.127 37.544C107.225 37.5221 107.326 37.5002 107.432 37.4783L107.545 38.398C107.492 38.4126 107.436 38.4235 107.375 38.4308C107.323 38.4381 107.243 38.4491 107.138 38.4637C107.04 38.4783 106.904 38.4965 106.73 38.5184C106.565 38.5403 106.346 38.5659 106.074 38.5951C105.327 38.6754 104.754 38.8943 104.354 39.252C103.954 39.6096 103.709 40.1717 103.619 40.9381ZM103.551 42.6789C103.551 43.022 103.573 43.3468 103.619 43.6534C103.672 43.9599 103.758 44.23 103.879 44.4636C104.007 44.6971 104.177 44.8833 104.388 45.022C104.599 45.1533 104.871 45.219 105.203 45.219C105.49 45.219 105.735 45.1679 105.938 45.0658C106.142 44.9563 106.308 44.8103 106.436 44.6278C106.565 44.4453 106.659 44.2337 106.719 43.9928C106.78 43.7446 106.81 43.4818 106.81 43.2045C106.81 42.9563 106.783 42.7154 106.73 42.4819C106.685 42.2483 106.598 42.0403 106.47 41.8578C106.342 41.6753 106.168 41.5293 105.95 41.4198C105.738 41.3103 105.471 41.2556 105.146 41.2556C104.829 41.2556 104.524 41.3213 104.23 41.4527C103.943 41.5841 103.721 41.7446 103.562 41.9344C103.555 42.0147 103.551 42.1278 103.551 42.2738C103.551 42.4198 103.551 42.5548 103.551 42.6789Z" fill="#00365B"/>
<path d="M109.07 43.1388C109.07 42.6351 109.145 42.1972 109.296 41.8249C109.447 41.4454 109.647 41.1315 109.896 40.8833C110.145 40.6352 110.431 40.4491 110.756 40.325C111.08 40.2009 111.412 40.1388 111.752 40.1388C112.544 40.1388 113.151 40.3797 113.573 40.8615C113.996 41.3359 114.207 42.0622 114.207 43.0402C114.207 43.084 114.207 43.1424 114.207 43.2154C114.207 43.2811 114.203 43.3432 114.196 43.4016H110.167C110.213 43.9928 110.39 44.4417 110.699 44.7482C111.008 45.0548 111.491 45.2081 112.148 45.2081C112.517 45.2081 112.826 45.1789 113.075 45.1205C113.332 45.0548 113.524 44.9928 113.653 44.9344L113.8 45.7884C113.671 45.8541 113.445 45.9234 113.121 45.9964C112.804 46.0694 112.442 46.1059 112.034 46.1059C111.521 46.1059 111.076 46.0329 110.699 45.8869C110.33 45.7336 110.024 45.5256 109.783 45.2628C109.541 45.0001 109.36 44.6898 109.239 44.3322C109.126 43.9672 109.07 43.5694 109.07 43.1388ZM113.109 42.5804C113.117 42.1206 112.996 41.7446 112.747 41.4527C112.506 41.1534 112.17 41.0038 111.74 41.0038C111.499 41.0038 111.284 41.0512 111.095 41.1461C110.914 41.2337 110.76 41.3505 110.631 41.4965C110.503 41.6425 110.401 41.8103 110.326 42.0001C110.258 42.1899 110.213 42.3833 110.19 42.5804H113.109Z" fill="#00365B"/>
<path d="M117.767 41.1352C117.767 41.376 117.759 41.6352 117.744 41.9125C117.737 42.1826 117.718 42.4563 117.688 42.7337C117.657 43.0037 117.616 43.2738 117.563 43.5439C117.51 43.8067 117.442 44.0548 117.359 44.2884C117.276 44.522 117.171 44.7409 117.043 44.9453C116.922 45.1497 116.771 45.3322 116.59 45.4927C116.409 45.646 116.198 45.7774 115.956 45.8869C115.715 45.9891 115.432 46.0548 115.108 46.084L114.961 45.23C115.33 45.157 115.621 45.022 115.832 44.8249C116.051 44.6278 116.224 44.3869 116.352 44.1023C116.466 43.8541 116.549 43.5731 116.601 43.2592C116.654 42.9454 116.692 42.6205 116.714 42.2848C116.737 41.9417 116.748 41.5987 116.748 41.2556C116.756 40.9125 116.76 40.5877 116.76 40.2812H120.675V45.9745H119.623V41.1352H117.767Z" fill="#00365B"/>
<path d="M127.426 40.2812V45.9745H126.408V41.6388C126.182 41.9162 125.933 42.241 125.661 42.6132C125.39 42.9855 125.118 43.3724 124.846 43.7738C124.575 44.168 124.315 44.5585 124.066 44.9453C123.817 45.3322 123.602 45.6752 123.421 45.9745H122.482V40.2812H123.5V44.376C123.696 44.0621 123.919 43.7191 124.168 43.3468C124.416 42.9673 124.673 42.595 124.937 42.23C125.209 41.8578 125.476 41.5038 125.74 41.168C126.012 40.825 126.265 40.5293 126.499 40.2812H127.426Z" fill="#00365B"/>
<path d="M136.797 40.2812V45.9745H135.779V41.6388C135.552 41.9162 135.303 42.241 135.032 42.6132C134.76 42.9855 134.489 43.3724 134.217 43.7738C133.946 44.168 133.685 44.5585 133.436 44.9453C133.187 45.3322 132.972 45.6752 132.791 45.9745H131.852V40.2812H132.871V44.376C133.067 44.0621 133.289 43.7191 133.538 43.3468C133.787 42.9673 134.044 42.595 134.308 42.23C134.579 41.8578 134.847 41.5038 135.111 41.168C135.383 40.825 135.635 40.5293 135.869 40.2812H136.797Z" fill="#00365B"/>
<path d="M140.499 45.1424H141.132C141.381 44.792 141.578 44.4307 141.721 44.0585C141.872 43.6862 141.985 43.303 142.06 42.9089C142.136 42.5074 142.185 42.0914 142.207 41.6607C142.23 41.2228 142.245 40.7629 142.253 40.2812H146.111V45.1424H146.903V47.5621H145.908V45.9745H141.495V47.5621H140.499V45.1424ZM145.059 45.1424V41.1352H143.215C143.207 41.4782 143.188 41.8249 143.158 42.1753C143.128 42.5184 143.079 42.8614 143.011 43.2045C142.943 43.5402 142.845 43.8723 142.717 44.2008C142.596 44.522 142.441 44.8358 142.253 45.1424H145.059Z" fill="#00365B"/>
<path d="M147.713 43.1388C147.713 42.6351 147.788 42.1972 147.939 41.8249C148.09 41.4454 148.29 41.1315 148.539 40.8833C148.788 40.6352 149.075 40.4491 149.399 40.325C149.723 40.2009 150.055 40.1388 150.395 40.1388C151.187 40.1388 151.794 40.3797 152.217 40.8615C152.639 41.3359 152.85 42.0622 152.85 43.0402C152.85 43.084 152.85 43.1424 152.85 43.2154C152.85 43.2811 152.846 43.3432 152.839 43.4016H148.811C148.856 43.9928 149.033 44.4417 149.342 44.7482C149.652 45.0548 150.134 45.2081 150.791 45.2081C151.16 45.2081 151.47 45.1789 151.719 45.1205C151.975 45.0548 152.167 44.9928 152.296 44.9344L152.443 45.7884C152.315 45.8541 152.088 45.9234 151.764 45.9964C151.447 46.0694 151.085 46.1059 150.678 46.1059C150.165 46.1059 149.72 46.0329 149.342 45.8869C148.973 45.7336 148.667 45.5256 148.426 45.2628C148.184 45.0001 148.003 44.6898 147.883 44.3322C147.769 43.9672 147.713 43.5694 147.713 43.1388ZM151.753 42.5804C151.76 42.1206 151.639 41.7446 151.39 41.4527C151.149 41.1534 150.813 41.0038 150.383 41.0038C150.142 41.0038 149.927 41.0512 149.738 41.1461C149.557 41.2337 149.403 41.3505 149.274 41.4965C149.146 41.6425 149.044 41.8103 148.969 42.0001C148.901 42.1899 148.856 42.3833 148.833 42.5804H151.753Z" fill="#00365B"/>
<path d="M156.512 42.876C156.746 43.0366 156.998 43.241 157.27 43.4891C157.542 43.73 157.806 43.9928 158.062 44.2774C158.326 44.5621 158.571 44.8541 158.798 45.1533C159.024 45.4453 159.216 45.719 159.375 45.9745H158.13C157.964 45.7263 157.768 45.4745 157.542 45.219C157.323 44.9563 157.093 44.7044 156.851 44.4636C156.61 44.2227 156.365 44.0001 156.116 43.7957C155.867 43.5913 155.633 43.4198 155.414 43.2811V45.9745H154.362V40.2812H155.414V42.7227C155.595 42.5549 155.803 42.3614 156.037 42.1424C156.27 41.9162 156.504 41.6899 156.738 41.4636C156.98 41.2301 157.202 41.0111 157.406 40.8067C157.609 40.595 157.775 40.4199 157.904 40.2812H159.126C158.96 40.4563 158.764 40.6571 158.537 40.8833C158.319 41.1023 158.088 41.3286 157.847 41.5622C157.613 41.7957 157.379 42.0293 157.146 42.2629C156.912 42.4892 156.7 42.6935 156.512 42.876Z" fill="#00365B"/>
<path d="M165.302 43.1278C165.302 43.5804 165.234 43.9891 165.098 44.3541C164.962 44.719 164.77 45.0329 164.521 45.2957C164.28 45.5584 163.989 45.7628 163.65 45.9088C163.31 46.0475 162.941 46.1168 162.541 46.1168C162.141 46.1168 161.771 46.0475 161.432 45.9088C161.093 45.7628 160.798 45.5584 160.549 45.2957C160.308 45.0329 160.119 44.719 159.984 44.3541C159.848 43.9891 159.78 43.5804 159.78 43.1278C159.78 42.6826 159.848 42.2775 159.984 41.9125C160.119 41.5403 160.308 41.2228 160.549 40.96C160.798 40.6972 161.093 40.4965 161.432 40.3578C161.771 40.2118 162.141 40.1388 162.541 40.1388C162.941 40.1388 163.31 40.2118 163.65 40.3578C163.989 40.4965 164.28 40.6972 164.521 40.96C164.77 41.2228 164.962 41.5403 165.098 41.9125C165.234 42.2775 165.302 42.6826 165.302 43.1278ZM164.204 43.1278C164.204 42.4855 164.053 41.9782 163.752 41.606C163.457 41.2264 163.054 41.0366 162.541 41.0366C162.028 41.0366 161.621 41.2264 161.319 41.606C161.025 41.9782 160.878 42.4855 160.878 43.1278C160.878 43.7702 161.025 44.2811 161.319 44.6607C161.621 45.0329 162.028 45.219 162.541 45.219C163.054 45.219 163.457 45.0329 163.752 44.6607C164.053 44.2811 164.204 43.7702 164.204 43.1278Z" fill="#00365B"/>
<path d="M170.867 43.1388C170.867 42.4746 170.698 41.9636 170.358 41.606C170.019 41.2483 169.566 41.0695 169 41.0695C168.684 41.0695 168.435 41.0804 168.254 41.1023C168.08 41.1242 167.94 41.1498 167.835 41.179V44.7701C167.963 44.8723 168.148 44.9709 168.389 45.0658C168.631 45.1606 168.895 45.2081 169.181 45.2081C169.483 45.2081 169.74 45.157 169.951 45.0548C170.17 44.9453 170.347 44.7993 170.483 44.6169C170.618 44.4271 170.717 44.2081 170.777 43.9599C170.837 43.7045 170.867 43.4307 170.867 43.1388ZM171.965 43.1388C171.965 43.5694 171.905 43.9672 171.784 44.3322C171.671 44.6971 171.501 45.011 171.275 45.2738C171.048 45.5365 170.769 45.7409 170.437 45.8869C170.113 46.0329 169.74 46.1059 169.317 46.1059C168.978 46.1059 168.676 46.0621 168.412 45.9745C168.155 45.8869 167.963 45.803 167.835 45.7227V48H166.782V40.4563C167.031 40.398 167.341 40.3359 167.71 40.2702C168.088 40.1972 168.521 40.1607 169.012 40.1607C169.464 40.1607 169.872 40.2301 170.234 40.3688C170.596 40.5074 170.905 40.7045 171.162 40.96C171.418 41.2155 171.614 41.5293 171.75 41.9016C171.893 42.2665 171.965 42.6789 171.965 43.1388Z" fill="#00365B"/>
<path d="M175.437 45.2409C175.686 45.2409 175.905 45.2373 176.094 45.23C176.29 45.2154 176.452 45.1935 176.58 45.1643V43.4672C176.505 43.4307 176.38 43.4015 176.207 43.3797C176.041 43.3505 175.837 43.3359 175.596 43.3359C175.437 43.3359 175.268 43.3468 175.087 43.3687C174.913 43.3906 174.751 43.438 174.6 43.511C174.457 43.5767 174.336 43.6716 174.238 43.7957C174.14 43.9125 174.091 44.0694 174.091 44.2665C174.091 44.6315 174.212 44.8869 174.453 45.0329C174.694 45.1716 175.023 45.2409 175.437 45.2409ZM175.347 40.1388C175.769 40.1388 176.124 40.1936 176.411 40.3031C176.705 40.4053 176.939 40.5549 177.112 40.752C177.293 40.9417 177.421 41.1717 177.497 41.4417C177.572 41.7045 177.61 41.9965 177.61 42.3176V45.876C177.519 45.8906 177.391 45.9124 177.225 45.9416C177.067 45.9635 176.886 45.9854 176.682 46.0073C176.478 46.0292 176.256 46.0475 176.015 46.0621C175.781 46.084 175.547 46.0949 175.313 46.0949C174.981 46.0949 174.675 46.0621 174.396 45.9964C174.117 45.9307 173.876 45.8285 173.672 45.6898C173.468 45.5438 173.31 45.3541 173.197 45.1205C173.084 44.8869 173.027 44.6059 173.027 44.2774C173.027 43.9636 173.091 43.6935 173.22 43.4672C173.355 43.241 173.536 43.0585 173.763 42.9198C173.989 42.7811 174.253 42.6789 174.555 42.6132C174.857 42.5476 175.173 42.5147 175.505 42.5147C175.611 42.5147 175.72 42.522 175.833 42.5366C175.947 42.5439 176.052 42.5585 176.15 42.5804C176.256 42.595 176.346 42.6096 176.422 42.6242C176.497 42.6388 176.55 42.6497 176.58 42.657V42.3724C176.58 42.2045 176.561 42.0403 176.524 41.8797C176.486 41.7118 176.418 41.5658 176.32 41.4417C176.222 41.3103 176.086 41.2082 175.913 41.1352C175.747 41.0549 175.528 41.0147 175.256 41.0147C174.909 41.0147 174.604 41.0403 174.34 41.0914C174.083 41.1352 173.891 41.1826 173.763 41.2337L173.638 40.3907C173.774 40.3323 174 40.2775 174.317 40.2264C174.634 40.168 174.977 40.1388 175.347 40.1388Z" fill="#00365B"/>
<path d="M2.8289 42.7811C2.8289 43.537 2.19563 44.1497 1.41445 44.1497C0.63327 44.1497 0 43.537 0 42.7811C0 42.0253 0.63327 41.4125 1.41445 41.4125C2.19563 41.4125 2.8289 42.0253 2.8289 42.7811Z" fill="#00365B"/>
<path d="M186 42.7811C186 43.537 185.367 44.1497 184.586 44.1497C183.804 44.1497 183.171 43.537 183.171 42.7811C183.171 42.0253 183.804 41.4125 184.586 41.4125C185.367 41.4125 186 42.0253 186 42.7811Z" fill="#00365B"/>
<path d="M155.439 16.961C155.439 21.6098 151.665 25.3783 147.008 25.3783C142.352 25.3783 138.578 21.6098 138.578 16.961C138.578 12.3122 142.352 8.54362 147.008 8.54362C151.665 8.54362 155.439 12.3122 155.439 16.961Z" fill="#F37833"/>
<path d="M134.89 16.961C134.89 21.6098 131.115 25.3783 126.459 25.3783C121.803 25.3783 118.028 21.6098 118.028 16.961C118.028 12.3122 121.803 8.54362 126.459 8.54362C131.115 8.54362 134.89 12.3122 134.89 16.961Z" fill="#F37833"/>
</svg>
