<svg width="40" height="40" viewBox="0 0 40 40" fill="none" xmlns="http://www.w3.org/2000/svg">
<rect width="40" height="40" rx="4" fill="#40B3E0"/>
<path d="M32.1189 10.6914L28.5503 28.7023C28.5503 28.7023 28.0513 29.9514 26.6788 29.3518L18.4439 23.0318L15.4495 21.583L10.4089 19.8843C10.4089 19.8843 9.63529 19.6096 9.56037 19.0101C9.48545 18.4105 10.4338 18.0858 10.4338 18.0858L30.4717 10.217C30.4717 10.217 32.1189 9.49235 32.1189 10.6914Z" fill="white"/>
<path d="M17.8108 28.4998C17.8108 28.4998 17.5704 28.4773 17.2707 27.5279C16.9715 26.5787 15.4492 21.5827 15.4492 21.5827L27.5518 13.8889C27.5518 13.8889 28.2506 13.4643 28.2257 13.8889C28.2257 13.8889 28.3504 13.9639 27.9759 14.3136C27.6018 14.6635 18.4687 22.8818 18.4687 22.8818" fill="#D2E5F1"/>
<path d="M21.6012 25.4554L18.3442 28.4282C18.3442 28.4282 18.0895 28.6216 17.811 28.5003L18.4347 22.9785" fill="#B5CFE4"/>
</svg>
