<svg width="40" height="40" viewBox="0 0 40 40" fill="none" xmlns="http://www.w3.org/2000/svg">
<path d="M40 3.52V36.48C40 37.44 39.6533 38.2666 38.96 38.96C38.2667 39.6533 37.44 40 36.48 40H3.52C2.56 40 1.73333 39.6533 1.04 38.96C0.346667 38.2666 0 37.44 0 36.48V3.52C0 2.56 0.346667 1.73333 1.04 1.04C1.73333 0.346666 2.56 0 3.52 0H36.48C37.44 0 38.2667 0.346666 38.96 1.04C39.6533 1.73333 40 2.56 40 3.52ZM30.4 24.64C30.4 23.0933 29.9733 21.82 29.12 20.82C28.2667 19.82 27.0533 19.16 25.48 18.84V18.72C26.52 18.2933 27.3333 17.6133 27.92 16.68C28.5067 15.7467 28.8 14.7067 28.8 13.56C28.8 12.3333 28.54 11.3267 28.02 10.54C27.5 9.75333 26.76 9.18666 25.8 8.84C24.84 8.49333 23.9267 8.26666 23.06 8.16C22.1933 8.05333 21.16 8 19.96 8H11.2V32H20.8C22.0533 32 23.2267 31.8733 24.32 31.62C25.4133 31.3667 26.4267 30.9733 27.36 30.44C28.2933 29.9067 29.0333 29.14 29.58 28.14C30.1267 27.14 30.4 25.9733 30.4 24.64ZM22.68 14.8C22.68 15.3333 22.5867 15.7733 22.4 16.12C22.2133 16.4667 22.0067 16.7333 21.78 16.92C21.5533 17.1067 21.2067 17.24 20.74 17.32C20.2733 17.4 19.9067 17.4467 19.64 17.46C19.3733 17.4733 18.96 17.48 18.4 17.48H17.2V12.4H18.76C19.24 12.4 19.6067 12.4067 19.86 12.42C20.1133 12.4333 20.4533 12.48 20.88 12.56C21.3067 12.64 21.6267 12.76 21.84 12.92C22.0533 13.08 22.2467 13.32 22.42 13.64C22.5933 13.96 22.68 14.3467 22.68 14.8ZM24.2 24.52C24.2 24.84 24.16 25.14 24.08 25.42C24 25.7 23.9067 25.94 23.8 26.14C23.6933 26.34 23.5267 26.52 23.3 26.68C23.0733 26.84 22.88 26.9733 22.72 27.08C22.56 27.1867 22.32 27.2733 22 27.34C21.68 27.4067 21.4333 27.46 21.26 27.5C21.0867 27.54 20.8067 27.5667 20.42 27.58C20.0333 27.5933 19.7667 27.6 19.62 27.6H17.2V21.6H20.26L21.18 21.64L22.16 21.78L22.92 22.1L23.64 22.62L24.02 23.4L24.2 24.52Z" fill="#0077FF"/>
</svg>
