<svg width="40" height="40" viewBox="0 0 40 40" fill="none" xmlns="http://www.w3.org/2000/svg">
<rect width="40" height="40" rx="4" fill="#BB0000"/>
<path d="M20.3491 11H20.4856C21.7464 11.0046 28.1349 11.0506 29.8574 11.5138C30.3782 11.6552 30.8527 11.9308 31.2336 12.313C31.6144 12.6952 31.8883 13.1707 32.0278 13.6919C32.1828 14.2748 32.2917 15.0463 32.3653 15.8424L32.3806 16.0019L32.4144 16.4007L32.4266 16.5602C32.5263 17.9622 32.5386 19.2751 32.5401 19.562V19.677C32.5386 19.9746 32.5248 21.3765 32.4144 22.8368L32.4021 22.9978L32.3883 23.1573C32.3116 24.0347 32.1981 24.9059 32.0278 25.5471C31.8887 26.0685 31.615 26.5442 31.2341 26.9265C30.8531 27.3088 30.3784 27.5842 29.8574 27.7252C28.0782 28.2037 21.3154 28.2375 20.3782 28.239H20.1604C19.6864 28.239 17.7262 28.2298 15.6708 28.1592L15.4101 28.15L15.2766 28.1439L15.0143 28.1332L14.752 28.1224C13.0495 28.0473 11.4282 27.9261 10.6812 27.7236C10.1604 27.5828 9.68581 27.3076 9.30489 26.9256C8.92397 26.5436 8.65012 26.0682 8.51077 25.5471C8.34052 24.9075 8.22701 24.0347 8.15032 23.1573L8.13805 22.9963L8.12578 22.8368C8.05008 21.7974 8.00813 20.7559 8 19.7138L8 19.5252C8.00307 19.1954 8.01534 18.0557 8.09817 16.798L8.1089 16.64L8.11351 16.5602L8.12578 16.4007L8.15952 16.0019L8.17486 15.8424C8.24848 15.0463 8.35739 14.2732 8.51231 13.6919C8.65142 13.1705 8.92516 12.6948 9.3061 12.3125C9.68703 11.9302 10.1618 11.6548 10.6827 11.5138C11.4297 11.3144 13.051 11.1917 14.7536 11.115L15.0143 11.1043L15.2781 11.0951L15.4101 11.0905L15.6723 11.0798C17.1321 11.0328 18.5925 11.0067 20.053 11.0015H20.3491V11ZM17.8167 15.9237V23.3138L24.1929 19.6203L17.8167 15.9237Z" fill="white"/>
</svg>
