<svg width="22" height="22" viewBox="0 0 22 22" fill="none" xmlns="http://www.w3.org/2000/svg">
<path d="M21.2828 11.2828C21.4391 11.1266 21.4391 10.8734 21.2828 10.7172L18.7373 8.17157C18.581 8.01536 18.3278 8.01536 18.1716 8.17157C18.0154 8.32778 18.0154 8.58105 18.1716 8.73726L20.4343 11L18.1716 13.2627C18.0154 13.419 18.0154 13.6722 18.1716 13.8284C18.3278 13.9846 18.581 13.9846 18.7373 13.8284L21.2828 11.2828ZM11 11.4H21V10.6H11V11.4Z" fill="white"/>
<path d="M0.717157 10.7172C0.560947 10.8734 0.560947 11.1266 0.717157 11.2828L3.26274 13.8284C3.41895 13.9846 3.67222 13.9846 3.82843 13.8284C3.98464 13.6722 3.98464 13.419 3.82843 13.2627L1.56569 11L3.82843 8.73726C3.98464 8.58105 3.98464 8.32778 3.82843 8.17157C3.67222 8.01536 3.41895 8.01536 3.26274 8.17157L0.717157 10.7172ZM11 10.6L1 10.6L1 11.4L11 11.4L11 10.6Z" fill="white"/>
<path d="M11.2828 0.717157C11.1266 0.560947 10.8734 0.560947 10.7172 0.717157L8.17157 3.26274C8.01536 3.41895 8.01536 3.67222 8.17157 3.82843C8.32778 3.98464 8.58105 3.98464 8.73726 3.82843L11 1.56569L13.2627 3.82843C13.419 3.98464 13.6722 3.98464 13.8284 3.82843C13.9846 3.67222 13.9846 3.41895 13.8284 3.26274L11.2828 0.717157ZM11.4 11L11.4 1L10.6 1L10.6 11L11.4 11Z" fill="white"/>
<path d="M10.7172 21.2828C10.8734 21.4391 11.1266 21.4391 11.2828 21.2828L13.8284 18.7373C13.9846 18.581 13.9846 18.3278 13.8284 18.1716C13.6722 18.0154 13.419 18.0154 13.2627 18.1716L11 20.4343L8.73726 18.1716C8.58105 18.0154 8.32778 18.0154 8.17157 18.1716C8.01536 18.3278 8.01536 18.581 8.17157 18.7373L10.7172 21.2828ZM10.6 11L10.6 21L11.4 21L11.4 11L10.6 11Z" fill="white"/>
</svg>
