<svg width="21" height="21" viewBox="0 0 21 21" fill="none" xmlns="http://www.w3.org/2000/svg">
<path fill-rule="evenodd" clip-rule="evenodd" d="M20.743 0.257026C20.8244 0.338294 20.8891 0.434836 20.9332 0.541125C20.9773 0.647413 21 0.761358 21 0.876434C21 0.991509 20.9773 1.10545 20.9332 1.21174C20.8891 1.31803 20.8244 1.41457 20.743 1.49584L1.49584 20.743C1.33156 20.9072 1.10876 20.9995 0.876432 20.9995C0.64411 20.9995 0.421302 20.9072 0.257025 20.743C0.0927475 20.5787 0.000457764 20.3559 0.000457764 20.1236C0.000457764 19.8912 0.0927475 19.6684 0.257025 19.5042L19.5042 0.257026C19.5854 0.175552 19.682 0.110912 19.7883 0.0668073C19.8945 0.0227026 20.0085 0 20.1236 0C20.2386 0 20.3526 0.0227026 20.4589 0.0668073C20.5652 0.110912 20.6617 0.175552 20.743 0.257026Z" fill="#F37833"/>
<path fill-rule="evenodd" clip-rule="evenodd" d="M0.257026 0.257026C0.175552 0.338294 0.110912 0.434836 0.0668073 0.541125C0.0227026 0.647413 0 0.761358 0 0.876434C0 0.991509 0.0227026 1.10545 0.0668073 1.21174C0.110912 1.31803 0.175552 1.41457 0.257026 1.49584L19.5042 20.743C19.6684 20.9072 19.8912 20.9995 20.1236 20.9995C20.3559 20.9995 20.5787 20.9072 20.743 20.743C20.9072 20.5787 20.9995 20.3559 20.9995 20.1236C20.9995 19.8912 20.9072 19.6684 20.743 19.5042L1.49584 0.257026C1.41457 0.175552 1.31803 0.110912 1.21174 0.0668073C1.10545 0.0227026 0.991509 0 0.876434 0C0.761358 0 0.647413 0.0227026 0.541125 0.0668073C0.434836 0.110912 0.338294 0.175552 0.257026 0.257026Z" fill="#F37833"/>
</svg>
