<svg width="24" height="25" viewBox="0 0 24 25" fill="none" xmlns="http://www.w3.org/2000/svg">
<path d="M13.8954 23.1134C14.1123 23.0091 14.2951 22.8472 14.4231 22.6462C14.5511 22.4451 14.6192 22.2129 14.6197 21.9759V15.1376C14.6197 14.8009 14.7573 14.4769 15.0035 14.2379L23.0212 6.45614C23.264 6.22089 23.4569 5.94071 23.5886 5.63182C23.7204 5.32293 23.7884 4.99146 23.7887 4.6566V1.37116C23.7881 1.20315 23.7536 1.03693 23.6874 0.882006C23.6211 0.727081 23.5244 0.586495 23.4028 0.468295C23.2811 0.350096 23.1369 0.256604 22.9783 0.193171C22.8198 0.129738 22.6501 0.0976102 22.4789 0.0986256H1.52113C0.79678 0.0986256 0.211273 0.666766 0.211273 1.37116V4.6566C0.211273 5.33143 0.487653 5.97926 0.978851 6.45614L8.9965 14.2379C9.11798 14.3554 9.21445 14.4955 9.28034 14.65C9.34622 14.8044 9.38019 14.9702 9.38029 15.1376V23.2484C9.38029 24.1932 10.4046 24.8076 11.2757 24.3847L13.8954 23.1134Z" fill="white"/>
</svg>
