<svg width="44" height="63" viewBox="0 0 44 63" fill="none" xmlns="http://www.w3.org/2000/svg">
<path d="M17.1273 0.206272L16.8867 0.412521L16.8609 3.85862L16.8351 7.29611L13.3976 7.3219L9.95156 7.34768L9.74531 7.5883L9.53906 7.82893V12.7274V17.6172H7.57109C5.7664 17.6172 5.58593 17.6344 5.40547 17.7805L5.19922 17.9438L5.15625 25.8414L5.11328 33.7305L2.70703 33.7734C1.38359 33.7992 0.292187 33.8336 0.283594 33.8422C0.275 33.8508 0.20625 33.9711 0.128906 34.1172C0.0257812 34.3148 0 34.7016 0 35.9992C0 37.5891 0.00859375 37.6406 0.197656 37.8641C0.369531 38.0617 0.489843 38.1047 0.928125 38.1391L1.46094 38.1734V38.8953V39.6172H0.971093C0.0601562 39.6258 0 39.7633 0 41.8516V43.5016L0.249219 43.7508L0.498437 44H22H43.5015L43.7508 43.7508L44 43.5016V41.8516C44 39.7633 43.9398 39.6258 43.0375 39.6172H42.539V38.8953V38.1734L43.0719 38.1391C43.5101 38.1047 43.6304 38.0617 43.8023 37.8641C43.9914 37.6406 44 37.5891 44 35.9992C44 34.7016 43.9742 34.3148 43.8711 34.1172C43.7937 33.9711 43.725 33.8508 43.7164 33.8422C43.7078 33.8336 42.6164 33.7992 41.2929 33.7734L38.8867 33.7305L38.8437 25.8414L38.8008 17.9438L38.5945 17.7805C38.414 17.6344 38.2336 17.6172 36.4289 17.6172H34.4609V12.7274V7.82893L34.2547 7.5883L34.0484 7.34768L30.6023 7.3219L27.1648 7.29611L27.139 3.85862L27.1133 0.412521L26.8726 0.206272L26.632 2.28882e-05H22H17.368L17.1273 0.206272ZM19.7828 2.71564C19.8086 3.97033 19.8086 3.97033 20.0492 4.17658C20.2898 4.38283 20.3156 4.38283 22 4.38283C23.6844 4.38283 23.7101 4.38283 23.9508 4.17658C24.1914 3.97033 24.1914 3.97033 24.2172 2.71564L24.2516 1.46096H24.9734H25.6953V4.38283V7.30471H22H18.3047V4.38283V1.46096H19.0266H19.7484L19.7828 2.71564ZM22.7562 2.20861L22.782 2.9219H22H21.2266V2.25158C21.2266 1.88205 21.2523 1.5469 21.2867 1.51252C21.3211 1.47815 21.6562 1.46955 22.043 1.47815L22.7305 1.50393L22.7562 2.20861ZM13.9219 10.6563C13.9219 12.8305 13.9562 12.9938 14.5062 13.1485C14.7039 13.2172 15.3828 13.2344 16.3453 13.2172C17.8062 13.1914 17.8664 13.1828 18.0812 12.9852L18.3047 12.7789L18.3219 10.7938L18.3476 8.80861L19.7914 8.78283L21.2266 8.76564V13.1914V17.6172H16.1133H11V13.1914V8.76564H12.4609H13.9219V10.6563ZM16.8437 10.2696V11.782L16.1391 11.7563L15.4258 11.7305L15.4 10.3555C15.3914 9.60783 15.4 8.93752 15.4172 8.87736C15.4516 8.80002 15.6664 8.76564 16.1562 8.76564H16.8437V10.2696ZM25.6781 10.7938L25.6953 12.7789L25.9187 12.9852C26.1336 13.1828 26.1937 13.1914 27.6547 13.2172C28.6172 13.2344 29.2961 13.2172 29.4937 13.1485C30.0437 12.9938 30.0781 12.8305 30.0781 10.6563V8.76564H31.539H33V13.1914V17.6172H27.8867H22.7734V13.1914V8.76564L24.2172 8.78283L25.6523 8.80861L25.6781 10.7938ZM28.5742 10.2696V11.7305L27.8695 11.7563L27.1562 11.782V10.2696V8.75705L27.8695 8.78283L28.5742 8.80861V10.2696ZM11 21.7078C11 24.3805 11.0172 24.5695 11.3352 24.8102C11.4383 24.8875 12.1344 24.9133 13.9305 24.9219H16.3883L16.6203 24.707L16.8437 24.5008V21.7852V19.0781H19.0351H21.2266V26.4258V33.7734H13.9219H6.61718V26.4258V19.0781H8.80859H11V21.7078ZM15.3828 21.2695V23.4609H13.9219H12.4609V21.2695V19.0781H13.9219H15.3828V21.2695ZM27.1562 21.7852V24.5008L27.3797 24.707L27.6117 24.9219H30.0695C31.8656 24.9133 32.5617 24.8875 32.6648 24.8102C32.9828 24.5695 33 24.3805 33 21.7078V19.0781H35.1914H37.3828V26.4258V33.7734H30.0781H22.7734V26.4258V19.0781H24.9648H27.1562V21.7852ZM31.539 21.2695V23.4609H30.0781H28.6172V21.2695V19.0781H30.0781H31.539V21.2695ZM42.539 35.9648V36.6953H22H1.46094V35.9648V35.2344H22H42.539V35.9648ZM4.38281 38.8867V39.6172H3.65234H2.92187V38.8867V38.1563H3.65234H4.38281V38.8867ZM38.1562 38.8867V39.6172H22H5.84375V38.8867V38.1563H22H38.1562V38.8867ZM41.0781 38.8867V39.6172H40.3476H39.6172V38.8867V38.1563H40.3476H41.0781V38.8867ZM42.539 41.8086V42.5391H22H1.46094V41.8086V41.0781H22H42.539V41.8086Z" fill="black"/>
<path fill-rule="evenodd" clip-rule="evenodd" d="M4.63308 43.9998C4.63315 44.439 4.6332 44.8923 4.6332 45.3602C4.6332 60.5859 4.59018 61.4371 4.98814 61.7876C5.04998 61.842 5.12247 61.8844 5.20743 61.9667C5.96111 62.7126 7.10957 62.7126 7.86325 61.9667C8.40159 61.446 8.43748 61.256 8.43748 59.1732V57.3929H13.3185H18.1994V59.1732C18.1994 61.256 18.2353 61.446 18.7737 61.9667C19.5273 62.7126 20.6758 62.7126 21.4367 61.9667C21.5199 61.8852 21.5911 61.8428 21.652 61.7889C22.0483 61.4377 22.008 60.594 21.9894 45.2547L21.9875 43.9998H20.8552V45.3602V60.9253L20.6112 61.1646C20.4246 61.3475 20.3097 61.4038 20.1016 61.4038C19.8934 61.4038 19.7786 61.3475 19.5919 61.1646L19.3479 60.9253V45.3602V43.9998H18.1994V45.3602V47.2601H13.3185H8.43748V45.3602V43.9998H7.28902V45.3602V60.9253L7.04497 61.1646C6.85834 61.3475 6.7435 61.4038 6.53534 61.4038C6.32718 61.4038 6.21233 61.3475 6.02571 61.1646L5.78166 60.9253V45.3602V43.9998H4.63308ZM18.1994 49.3007V48.8434V48.386H13.3185H8.43748V48.8434V49.3007H13.3185H18.1994ZM18.1994 54.2264V52.3265V50.4266H13.3185H8.43748V52.3265V54.2264H13.3185H18.1994ZM18.1994 56.267V55.8097V55.3523H13.3185H8.43748V55.8097V56.267H13.3185H18.1994Z" fill="black"/>
</svg>
