<svg width="61" height="64" viewBox="0 0 61 64" fill="none" xmlns="http://www.w3.org/2000/svg">
<rect x="2" y="21" width="57" height="3" fill="#F37833"/>
<rect x="26" y="2" width="8" height="2" fill="#F37833"/>
<rect x="2" y="58" width="57" height="5" fill="#F37833"/>
<path d="M29.125 0.369011C23.025 3.06901 21.6 3.75651 21.425 4.09401C21.175 4.58151 21.2 4.75651 21.575 5.19401L21.9 5.58151H23.5125H25.1375L25.1 7.04401L25.0625 8.49401L19.25 11.0065C13.8125 13.369 13.425 13.5565 13.225 13.944C12.8625 14.669 13.3125 15.3815 14.125 15.3565C14.3 15.3565 16.6625 14.3815 19.375 13.2065C22.0875 12.019 24.4 11.019 24.5 10.9815C24.6 10.944 23.4125 12.044 21.8625 13.4315C20.3 14.819 19 16.044 18.95 16.144C18.6875 16.819 19.175 17.5815 19.8625 17.5815C20.2875 17.5815 20.65 17.2815 25.6875 12.7815L28.5625 10.219H30.25H31.9375L34.8125 12.7815C39.85 17.2815 40.2125 17.5815 40.6375 17.5815C41.325 17.5815 41.8 16.819 41.55 16.144C41.5 16.0315 40.2 14.8065 38.6375 13.4315C37.0875 12.044 35.875 10.944 35.95 10.969C36.025 10.994 40.175 12.794 45.1625 14.9565L54.2375 18.894L42.2375 18.9315C35.65 18.944 24.85 18.944 18.25 18.9315L6.25 18.894L8.4375 17.9565C10.7875 16.9565 11.25 16.644 11.25 16.0565C11.25 15.569 10.75 15.0815 10.2625 15.0815C9.7125 15.0815 0.6375 19.019 0.275 19.4065C0.0125 19.7065 0 19.8065 0 22.144C0 24.519 0 24.569 0.3 24.919C0.6 25.2565 0.6375 25.269 2.1125 25.3065L3.625 25.3565V40.844V56.3315H2.25C0.7625 56.3315 0.35 56.444 0.1375 56.919C0.05 57.1065 0 58.2815 0 60.219V63.2315L0.3625 63.594L0.725 63.9565H5.4625C9.6 63.9565 10.225 63.9315 10.475 63.7565C11.2 63.244 11.025 62.2065 10.1625 61.969C9.875 61.8815 8.1875 61.8315 5.9125 61.8315H2.125V60.144V58.4565H30.25H58.375V60.144V61.8315H36.2625C20.4125 61.8315 14.05 61.869 13.7625 61.969C12.9875 62.244 12.825 63.194 13.4625 63.7065C13.775 63.9565 14.0375 63.9565 36.775 63.9565H59.775L60.1375 63.594L60.5 63.2315V60.219C60.5 58.2815 60.45 57.1065 60.3625 56.919C60.15 56.444 59.7375 56.3315 58.25 56.3315H56.875V40.844V25.3565L58.3875 25.3065C59.8625 25.269 59.9 25.2565 60.2 24.919C60.5 24.569 60.5 24.5315 60.5 22.1315V19.694L60.1625 19.369C59.9375 19.1565 55.375 17.119 47.625 13.769L35.4375 8.49401L35.4 7.04401L35.3625 5.58151H36.9875H38.6L38.925 5.19401C39.3 4.75651 39.325 4.58151 39.075 4.09401C38.925 3.80651 38.225 3.45651 34.8125 1.90651C32.5625 0.894012 30.575 0.0440102 30.4 0.00651169C30.1875 -0.0309868 29.725 0.0940132 29.125 0.369011ZM31.8 2.81901C32.5375 3.15651 33.175 3.46901 33.2125 3.50651C33.2625 3.54401 31.925 3.58151 30.25 3.58151C28.575 3.58151 27.2375 3.54401 27.2875 3.50651C27.45 3.33151 29.95 2.23151 30.2 2.21901C30.3375 2.20651 31.0625 2.48151 31.8 2.81901ZM33.35 6.85651L33.3875 8.08151H30.25H27.125V6.91901C27.125 6.26901 27.1625 5.70651 27.2125 5.65651C27.2625 5.61901 28.65 5.59401 30.3 5.60651L33.3125 5.64401L33.35 6.85651ZM58.375 22.144V23.2065H30.25H2.125V22.144V21.0815H30.25H58.375V22.144ZM19.5 35.4565V45.5815H12.5625H5.625V35.4565V25.3315H12.5625H19.5V35.4565ZM39 40.8315V56.3315H30.25H21.5V40.8315V25.3315H30.25H39V40.8315ZM54.875 35.4565V45.5815H47.9375H41V35.4565V25.3315H47.9375H54.875V35.4565ZM8.875 51.9565V56.3315H7.25H5.625V52.044C5.625 49.6815 5.6625 47.7065 5.7125 47.669C5.75 47.619 6.4875 47.5815 7.3375 47.5815H8.875V51.9565ZM14.125 51.9565V56.3315H12.5625H11V51.9565V47.5815H12.5625H14.125V51.9565ZM19.5 51.9565V56.3315H17.875H16.25V51.9565V47.5815H17.875H19.5V51.9565ZM44.25 51.9565V56.3315H42.625H41V51.9565V47.5815H42.625H44.25V51.9565ZM49.5 51.9565V56.3315H47.9375H46.375V51.9565V47.5815H47.9375H49.5V51.9565ZM54.85 51.9815L54.875 56.3315H53.25H51.625V51.9565V47.569L53.225 47.6065L54.8125 47.644L54.85 51.9815Z" fill="black"/>
</svg>
