<svg width="41" height="64" viewBox="0 0 41 64" fill="none" xmlns="http://www.w3.org/2000/svg">
<path fill-rule="evenodd" clip-rule="evenodd" d="M11.8594 18C11.8921 17.8367 11.9091 17.6698 11.9091 17.5C11.9091 15.567 9.71122 14 7 14C4.28878 14 2.09091 15.567 2.09091 17.5C2.09091 17.6698 2.10786 17.8367 2.14062 18H1V21H7H13V18H11.8594Z" fill="#F37833"/>
<path fill-rule="evenodd" clip-rule="evenodd" d="M37.8594 18C37.8921 17.8367 37.9091 17.6698 37.9091 17.5C37.9091 15.567 35.7112 14 33 14C30.2888 14 28.0909 15.567 28.0909 17.5C28.0909 17.6698 28.1079 17.8367 28.1406 18H27V21H33H39V18H37.8594Z" fill="#F37833"/>
<rect x="15" y="57" width="10" height="3" fill="#F37833"/>
<path d="M19.2058 0.22998C18.6058 0.54248 18.1308 1.11748 17.6933 2.04248C16.7558 4.04248 17.0808 5.81748 18.5308 6.66748C19.0808 6.99248 19.0933 7.01748 19.0933 7.60498C19.0933 8.37998 18.8558 8.45498 18.0933 7.90498C16.8433 7.02998 15.2058 6.47998 13.7808 6.47998C12.7808 6.47998 11.2808 6.86748 10.3058 7.37998C8.61832 8.26748 7.06832 10.2925 6.69332 12.1175L6.54332 12.8425L5.73082 13.0925C4.71832 13.405 3.88082 13.93 3.08082 14.7425C2.45581 15.38 1.68081 16.6425 1.53081 17.255C1.48081 17.455 1.26831 17.705 1.04331 17.8425C0.593315 18.13 0.155815 18.83 0.0308145 19.4925C-0.181686 20.655 0.730815 21.955 1.96831 22.2175C2.31832 22.2925 2.81832 22.355 3.09332 22.355C3.53082 22.355 3.58081 22.3925 3.65581 22.755C4.03082 24.455 5.60582 25.73 7.35582 25.73C8.44332 25.73 9.20582 25.455 9.95582 24.78C10.5808 24.2175 11.2183 23.155 11.2183 22.655C11.2183 22.4175 11.3058 22.38 12.1433 22.3175C13.1558 22.2425 13.6058 22.0675 14.1183 21.5175C15.1433 20.4425 15.0308 18.7925 13.8558 17.8675C13.5683 17.6425 13.3308 17.305 13.2433 17.0175C13.0308 16.305 12.1683 15.0675 11.4308 14.4175C10.7183 13.7675 9.63082 13.1675 8.91832 13.0425C8.45582 12.955 8.44332 12.9425 8.53082 12.4925C8.66832 11.78 9.18082 10.7925 9.76832 10.1425C11.0558 8.71748 13.1183 8.06748 14.9683 8.49248C15.4058 8.59248 16.6558 9.12998 16.8183 9.27998C16.8308 9.30498 16.7558 9.51748 16.6558 9.76748C16.2683 10.705 16.5183 11.8925 17.2433 12.5675C17.6058 12.905 18.3558 13.23 18.7808 13.23H19.0933V25.655V38.08L18.5058 38.1675C17.7058 38.28 17.1433 38.8425 17.0433 39.6175C17.0058 39.9175 16.8683 43.68 16.7558 47.98L16.5308 55.7925L15.6933 55.855C14.7058 55.93 14.2808 56.1925 13.8808 56.98C13.6683 57.3925 13.5933 57.7425 13.5933 58.3675C13.5933 59.0925 13.5558 59.23 13.3558 59.2925C12.0433 59.705 11.5058 61.805 12.4183 62.9425C13.0433 63.7175 13.6933 63.98 15.0683 63.98C16.1308 63.98 16.2558 63.955 16.5308 63.6675C16.9308 63.28 16.9308 62.805 16.5308 62.4175C16.2558 62.13 16.1308 62.105 15.1808 62.105C14.0433 62.105 13.8433 62.005 13.8433 61.455C13.8433 61.1925 13.9183 61.0675 14.1683 60.98C14.5933 60.8175 25.5933 60.8175 26.0183 60.98C26.2683 61.0675 26.3433 61.1925 26.3433 61.455C26.3433 62.0925 26.2808 62.105 22.9933 62.105C21.2558 62.105 19.8558 62.155 19.7183 62.23C19.1808 62.5175 19.2183 63.68 19.7808 63.905C19.8933 63.9425 21.4058 63.98 23.1433 63.98C26.1558 63.98 26.3183 63.9675 26.8433 63.705C27.7183 63.255 28.1308 62.63 28.1933 61.68C28.2683 60.5425 27.8558 59.805 26.8933 59.3175C26.5183 59.13 26.4933 59.08 26.4433 58.1925C26.3433 56.63 25.7558 55.98 24.3433 55.8675L23.5308 55.7925L23.4558 54.0425C23.4058 53.08 23.3683 52.08 23.3558 51.8175C23.3308 50.9175 22.4058 50.53 21.7808 51.155L21.4683 51.4675L21.5558 53.655L21.6308 55.855H20.0558H18.4683V54.505C18.4683 53.7675 18.5558 50.63 18.6558 47.5425C18.7558 44.4425 18.8433 41.48 18.8433 40.9425V39.98H19.9558C20.8558 39.98 21.0808 40.0175 21.1433 40.18C21.1808 40.2925 21.2183 40.93 21.2183 41.5925C21.2183 42.2675 21.2558 43.93 21.3058 45.305C21.3808 47.6675 21.3933 47.7925 21.6683 48.0675C22.0558 48.455 22.5933 48.4425 22.9683 48.0425L23.2558 47.7425L23.1308 43.58C22.9933 38.855 22.9683 38.7675 22.0558 38.3425C21.7683 38.2175 21.4308 38.105 21.3183 38.105C21.1058 38.105 21.0933 37.43 21.0933 25.6675V13.23H21.4058C21.8308 13.23 22.5808 12.905 22.9433 12.5675C23.6683 11.8925 23.9183 10.705 23.5308 9.76748C23.4308 9.51748 23.3558 9.30498 23.3683 9.27998C23.5308 9.12998 24.7808 8.59248 25.2183 8.49248C27.0683 8.06748 29.1308 8.71748 30.4183 10.1425C31.0058 10.7925 31.5183 11.78 31.6558 12.4925C31.7433 12.9425 31.7308 12.955 31.2558 13.0425C30.5933 13.1675 29.4308 13.805 28.7058 14.455C28.0183 15.08 27.1558 16.33 26.9433 17.0175C26.8558 17.305 26.6183 17.6425 26.3308 17.8675C25.7558 18.3175 25.3433 19.1425 25.3433 19.805C25.3433 20.0925 25.4808 20.58 25.6558 20.93C26.1433 21.8925 26.9933 22.3425 28.3808 22.355C28.9058 22.355 28.9683 22.38 28.9683 22.6425C28.9683 23.1425 29.5933 24.205 30.2308 24.78C30.9808 25.455 31.7433 25.73 32.8308 25.73C34.5808 25.73 36.1558 24.455 36.5308 22.755C36.6058 22.3925 36.6558 22.355 37.0933 22.355C37.3683 22.355 37.8683 22.2925 38.2183 22.2175C39.4558 21.955 40.3683 20.655 40.1558 19.4925C40.0308 18.83 39.5933 18.13 39.1308 17.8425C38.9058 17.705 38.7183 17.505 38.7183 17.4175C38.7183 17.1175 37.8683 15.605 37.3433 14.98C36.6683 14.1675 35.5058 13.4175 34.4808 13.105L33.6433 12.8425L33.4933 12.1175C33.1433 10.4425 31.7683 8.51748 30.2933 7.61748C27.6558 6.02998 24.2683 6.16748 22.0558 7.95498C21.3933 8.49248 21.0933 8.39248 21.0933 7.60498C21.0933 7.02998 21.1183 6.99248 21.6308 6.69248C22.7683 6.01748 23.2433 4.75498 22.9183 3.30498C22.3308 0.77998 20.7058 -0.570023 19.2058 0.22998ZM20.5183 2.31748C21.4808 3.79248 21.2683 5.22998 20.1183 5.22998C19.1933 5.21748 18.8433 4.59248 19.1558 3.49248C19.3683 2.75498 19.8808 1.85498 20.0933 1.85498C20.1558 1.85498 20.3558 2.06748 20.5183 2.31748ZM21.5683 10.305C21.8683 10.5175 21.9308 10.9675 21.6933 11.205C21.4808 11.4175 18.7058 11.4175 18.4933 11.205C18.2558 10.9675 18.3183 10.5175 18.6183 10.305C18.8308 10.155 19.2183 10.105 20.0933 10.105C20.9683 10.105 21.3558 10.155 21.5683 10.305ZM9.15582 15.105C9.85582 15.4425 10.8308 16.355 11.1433 16.955L11.3558 17.355H10.3058C9.16832 17.355 8.80582 17.505 8.66832 18.0425C8.58082 18.405 8.85582 19.03 9.15582 19.155C9.26832 19.1925 10.0808 19.23 10.9683 19.23C12.2683 19.23 12.6183 19.2675 12.7683 19.43C13.0433 19.705 13.0183 20.055 12.6933 20.28C12.4558 20.455 11.7308 20.48 7.38082 20.48C2.50581 20.48 2.33081 20.4675 2.09331 20.23C1.79331 19.93 1.78081 19.755 2.05581 19.455C2.23081 19.255 2.46831 19.23 3.93081 19.23C5.54332 19.23 5.61832 19.2175 5.90582 18.9175C6.30582 18.53 6.30582 18.055 5.90582 17.6675C5.63082 17.3925 5.50582 17.355 4.59332 17.355C4.04331 17.355 3.59331 17.33 3.59331 17.2925C3.59331 16.88 4.85581 15.53 5.59332 15.1675C6.31832 14.7925 6.61832 14.7425 7.59332 14.7675C8.29332 14.7925 8.69332 14.88 9.15582 15.105ZM34.5308 15.13C35.3558 15.555 36.7808 17.08 36.5558 17.305C36.5308 17.33 34.7808 17.3425 32.6683 17.33L28.8183 17.2925L29.2433 16.6675C29.7433 15.955 30.6808 15.1925 31.4058 14.9175C32.1933 14.63 33.7558 14.73 34.5308 15.13ZM38.1183 19.4425C38.4058 19.705 38.4058 19.9175 38.0933 20.23C37.8558 20.4675 37.6808 20.48 32.8058 20.48C28.4558 20.48 27.7308 20.455 27.4933 20.28C27.1683 20.055 27.1433 19.705 27.4183 19.43C27.5808 19.255 28.2433 19.23 32.7433 19.23C37.3558 19.23 37.9058 19.255 38.1183 19.4425ZM9.34332 22.4425C9.34332 22.505 9.23082 22.73 9.09332 22.955C8.25582 24.33 6.11832 24.105 5.55582 22.5675C5.48082 22.3675 5.61832 22.355 7.40582 22.355C8.46832 22.355 9.34332 22.3925 9.34332 22.4425ZM34.6308 22.5675C34.0683 24.105 31.9308 24.33 31.0933 22.955C30.9558 22.73 30.8433 22.505 30.8433 22.4425C30.8433 22.3925 31.7183 22.355 32.7808 22.355C34.5683 22.355 34.7058 22.3675 34.6308 22.5675ZM24.5683 58.38L24.6058 58.98H20.0433H15.4683V58.355V57.73L20.0058 57.755L24.5308 57.7925L24.5683 58.38Z" fill="black"/>
<path d="M4.06826 26.8549C3.75576 27.0424 3.09326 28.3049 3.09326 28.7174C3.09326 29.3174 3.80576 29.7549 4.39326 29.5299C4.70576 29.4049 5.46826 28.0549 5.46826 27.6174C5.46826 26.9174 4.69326 26.4924 4.06826 26.8549Z" fill="black"/>
<path d="M9.65583 27.0424C9.28083 27.4049 9.26833 27.7174 9.59333 28.3424C10.1808 29.5049 10.7933 29.8674 11.4308 29.4174C11.8558 29.1174 11.8808 28.6799 11.5183 27.9674C10.9058 26.7424 10.2683 26.4174 9.65583 27.0424Z" fill="black"/>
<path d="M29.1682 27.13C28.3182 28.2675 28.1807 29.0175 28.7557 29.4175C29.3557 29.83 29.8807 29.5675 30.4557 28.555C30.9182 27.755 30.9432 27.3675 30.5557 27.005C30.1057 26.58 29.5432 26.6425 29.1682 27.13Z" fill="black"/>
<path d="M34.9933 26.9799C34.8308 27.1424 34.7183 27.3924 34.7183 27.6174C34.7183 28.0424 35.3933 29.3049 35.7183 29.4799C36.3558 29.8174 37.0933 29.4174 37.0933 28.7299C37.0933 28.2924 36.4183 27.0299 36.0933 26.8549C35.7183 26.6549 35.2933 26.7049 34.9933 26.9799Z" fill="black"/>
<path d="M6.78076 27.5425C6.50576 27.805 6.46826 27.955 6.46826 28.705C6.46826 29.78 6.74326 30.23 7.41826 30.23C8.14326 30.23 8.34326 29.905 8.34326 28.7425C8.34326 27.8175 8.31826 27.73 8.01826 27.4925C7.58076 27.1425 7.15576 27.1675 6.78076 27.5425Z" fill="black"/>
<path d="M32.1683 27.4925C31.8683 27.73 31.8433 27.8175 31.8433 28.7425C31.8433 29.905 32.0433 30.23 32.7683 30.23C33.4433 30.23 33.7183 29.78 33.7183 28.705C33.7183 27.955 33.6808 27.805 33.4058 27.5425C33.0308 27.1675 32.6058 27.1425 32.1683 27.4925Z" fill="black"/>
</svg>
