<svg width="54" height="47" viewBox="0 0 54 47" fill="none" xmlns="http://www.w3.org/2000/svg">
<path d="M36.3506 0.115025C35.918 0.365692 35.8547 0.720802 35.8547 3.0708C35.8547 4.30324 35.8969 5.43123 35.9602 5.57745C36.1501 6.07878 36.5299 6.21456 37.8275 6.25634L39.0196 6.28767V10.1417V13.9957H29.0819C22.7733 13.9957 18.9966 14.0374 18.754 14.1001C17.9944 14.309 17.9733 14.3612 17.9417 17.0036C17.8995 20.2832 17.8889 20.2623 19.8406 20.2623H21.0854V24.179V28.0956L10.8524 28.1165L0.619348 28.1478L0.334511 28.4403L0.039125 28.7223L0.00747643 31.0932C-0.0136226 32.7538 0.00747643 33.5476 0.102422 33.7565C0.292313 34.2056 0.693195 34.3623 1.6743 34.3623H2.51826V40.2634C2.51826 46.5822 2.51826 46.6136 3.03519 46.8956C3.17233 46.9687 6.56927 47 13.2049 47H23.1637L38.4816 34.9785C47.9972 27.5107 53.8416 22.8525 53.9049 22.6958C53.9577 22.5496 53.9999 17.9959 53.9999 11.6352C53.9999 0.010582 54.021 0.397022 53.483 0.10458C53.1981 -0.0416412 36.6143 -0.0311966 36.3506 0.115025ZM51.89 3.13346V4.1779H44.9273H37.9646V3.13346V2.08902H44.9273H51.89V3.13346ZM51.89 7.25901V8.25122H49.6218C47.1427 8.25122 46.879 8.30345 46.6363 8.82567C46.4359 9.25389 46.4886 9.57766 46.8157 9.94322L47.1216 10.2879L49.5058 10.3192L51.89 10.3506V16.0741V21.7872L37.1629 33.3492L22.4357 44.9111H13.532H4.62816V41.6733V38.4356H6.89631C9.3438 38.4356 9.59698 38.3834 9.86072 37.9029C10.0823 37.4643 10.0401 37.1196 9.70248 36.7436L9.39654 36.3989L7.01235 36.3676L4.62816 36.3363V35.344V34.3623H13.4898C20.1254 34.3623 22.4146 34.3309 22.6151 34.2369C23.2059 33.9758 23.1953 34.1011 23.1953 26.8945V20.2623H31.8037C37.5005 20.2623 40.4754 20.231 40.6126 20.1579C41.1295 19.8759 41.1295 19.9072 41.1295 12.8468V6.26678H46.5097H51.89V7.25901ZM39.0196 17.129V18.1734H29.525H20.0305V17.129V16.0845H29.525H39.0196V17.129ZM21.0854 31.2289V32.2734H11.5908H2.09628V31.2289V30.1845H11.5908H21.0854V31.2289Z" fill="black"/>
</svg>
