<svg width="64" height="35" viewBox="0 0 64 35" fill="none" xmlns="http://www.w3.org/2000/svg">
<path d="M24 1.50003L20.5 2.00003L16 32L22.5 31.5L27.5 30L29.5 31.5L32 32V2.00003L30.5 1.50003L29 0.500031H27.5L24 1.50003Z" fill="#F37833"/>
<path d="M15.6875 0.312885C14.1875 0.762886 11.6875 1.22539 9.9 1.37539C9.025 1.46289 8.25 1.58789 8.1625 1.66289C8.0875 1.73789 6.225 8.57539 4.0125 16.8629C0.1375 31.4129 0 31.9629 0 33.0629C0 34.5504 0 34.5504 1.6625 34.4379C4.275 34.2629 7.575 33.6754 10.35 32.9004L12.025 32.4379L12.4375 32.6754C12.6625 32.8129 13.2 33.1879 13.625 33.5254C14.725 34.3629 15.4375 34.5379 17.2125 34.4379C19.825 34.2879 23.225 33.7004 26.1 32.9004L27.775 32.4379L28.1875 32.6754C28.4125 32.8129 28.95 33.1879 29.375 33.5254C30.475 34.3629 31.1875 34.5379 32.9625 34.4379C35.575 34.2879 38.975 33.7004 41.85 32.9004L43.525 32.4379L43.9375 32.6754C44.1625 32.8129 44.7 33.1879 45.125 33.5254C46.225 34.3629 46.9375 34.5379 48.7125 34.4379C51.3 34.3004 54.9125 33.6629 57.6 32.9004C58.45 32.6629 59.2625 32.5004 59.425 32.5379C59.575 32.5754 60.0625 32.9004 60.5 33.2504C61.45 34.0129 62.1375 34.3504 63 34.4504C63.9125 34.5629 64 34.4379 64 33.0629C64 31.9629 63.8625 31.4129 59.9875 16.8629C57.775 8.57539 55.9125 1.72539 55.85 1.63789C55.775 1.56289 55.5875 1.48789 55.4125 1.48789C54.9625 1.48789 54.2875 1.16289 53.7125 0.675388C52.8375 -0.0746117 52.475 -0.112114 50.8375 0.337887C48.95 0.862888 47.0375 1.21289 45.175 1.38789C43.325 1.55039 42.9375 1.47539 42.0375 0.737888C41.0625 -0.0746117 40.7375 -0.124615 39.0875 0.337887C37.2 0.862888 35.2875 1.21289 33.425 1.38789C31.575 1.55039 31.1875 1.47539 30.2875 0.737888C29.3125 -0.0746117 28.9875 -0.124615 27.3375 0.337887C25.45 0.862888 23.5375 1.21289 21.675 1.38789C19.85 1.55039 19.425 1.46289 18.6 0.775387C18 0.275387 17.4 -0.0121117 16.975 0.000385284C16.8125 0.000385284 16.2375 0.137886 15.6875 0.312885ZM17.8375 1.47539C18.5375 2.02539 19.15 2.36289 19.4375 2.36289C19.6625 2.36289 19.675 2.62539 19.4875 3.95039C19.275 5.55039 19.3 5.50039 18.925 5.36289C18.7375 5.28789 18.45 5.12539 18.275 4.98789C18.1125 4.85039 17.8625 4.73789 17.75 4.73789C17.45 4.73789 17.2125 5.05039 17.3 5.33789C17.4 5.63789 18.25 6.22539 18.75 6.32539C18.9625 6.36289 19.125 6.46289 19.125 6.53789C19.125 6.62539 19.0125 7.50039 18.875 8.48789C18.7375 9.47539 18.625 10.3254 18.625 10.3879C18.625 10.5254 17.8125 10.1754 17.4125 9.86289C17.2375 9.72539 16.9875 9.61289 16.875 9.61289C16.5625 9.61289 16.3375 9.92539 16.4375 10.2254C16.5375 10.5504 17.5375 11.2129 18.0875 11.3129C18.4625 11.3879 18.5 11.4254 18.45 11.7254C18.4125 11.9004 18.2625 13.0254 18.1125 14.2004C17.7875 16.7004 17.7875 16.7004 16.6125 15.9254C15.825 15.3879 15.4375 15.3879 15.4375 15.9129C15.4375 16.2129 15.5625 16.3754 15.9875 16.7004C16.2875 16.9379 16.775 17.1879 17.075 17.2629C17.5 17.3754 17.625 17.4754 17.625 17.6754C17.625 17.9254 17.0625 22.2004 16.9375 22.9504C16.875 23.2754 16.8 23.3629 16.5875 23.3629C16.275 23.3629 15.5875 22.9754 15.1 22.5254C14.725 22.1629 14.3125 22.2129 14.175 22.6504C14.025 23.1379 15.1625 23.9879 16.6 24.4379C16.7125 24.4754 16.75 24.6129 16.7 24.8254C16.6625 25.0254 16.45 26.5629 16.225 28.2629C15.8375 31.3254 15.825 31.3629 15.5375 31.3629C15.125 31.3629 14.55 31.0504 13.8125 30.4254C13.1375 29.8504 12.5 29.4879 12.1875 29.4879C12.0875 29.4879 12 29.4129 12 29.3254C12 29.2504 12.5375 26.1629 13.2 22.4879C13.85 18.8129 14.475 15.3254 14.575 14.7379C15.1125 11.6879 16.8875 1.62539 16.95 1.32539C16.9875 1.13789 17.0625 0.987888 17.125 0.987888C17.175 0.987888 17.5 1.20039 17.8375 1.47539ZM29.6875 1.55039C30.3125 2.05039 30.9125 2.36289 31.25 2.36289C31.4875 2.36289 31.5 2.43789 31.5 3.86289C31.5 5.53789 31.45 5.61289 30.6875 5.11289C30.2375 4.81289 29.9625 4.80039 29.75 5.05039C29.425 5.43789 29.975 6.00039 31 6.31289L31.4375 6.45039L31.475 8.47539L31.5 10.4879L31.0375 10.3004C30.7875 10.1879 30.475 10.0254 30.375 9.92539C30.075 9.66289 29.6625 9.70039 29.5 10.0004C29.375 10.2129 29.425 10.3129 29.8125 10.6879C30.0625 10.9129 30.525 11.1879 30.85 11.2754L31.4375 11.4504L31.475 13.9754L31.5 16.4879L31.075 16.3129C30.8375 16.2129 30.4375 15.9879 30.175 15.8254C29.6875 15.4879 29.45 15.5004 29.2375 15.8879C29 16.3254 29.9875 17.0504 31.35 17.4379C31.4625 17.4754 31.5 18.1754 31.5 20.4379V23.3879L31.1125 23.3129C30.9 23.2754 30.45 23.0379 30.125 22.8004C29.8 22.5629 29.45 22.3629 29.3375 22.3629C29.0875 22.3629 28.85 22.6754 28.9 22.9504C28.9625 23.2754 30.075 24.0629 30.825 24.3004L31.5 24.5129V27.9379C31.5 31.3129 31.5 31.3629 31.25 31.3629C30.875 31.3629 30.275 31.0254 29.5625 30.4254C28.8375 29.8129 28.25 29.4879 27.8625 29.4879C27.5875 29.4879 27.5875 29.4754 27.6625 28.0129C27.7 27.2129 27.975 20.8629 28.25 13.9254C28.5375 6.97539 28.8 1.22539 28.825 1.13789C28.875 0.950386 29 1.00039 29.6875 1.55039ZM41.4375 1.55039C42.0625 2.05039 42.45 2.26289 42.9375 2.36289L43.3125 2.43789L43.4875 3.83789C43.5875 4.61289 43.625 5.27539 43.5875 5.32539C43.5375 5.36289 43.3125 5.30039 43.0875 5.17539C42.6125 4.92539 42.275 4.95039 42.075 5.27539C41.9625 5.47539 42 5.56289 42.3625 5.86289C42.5875 6.05039 43.0125 6.27539 43.3125 6.35039L43.8375 6.48789L44.0625 8.13789C44.175 9.05039 44.3 9.92539 44.3375 10.0754C44.425 10.4504 44.1125 10.4504 43.55 10.1004C43 9.76289 42.575 9.82539 42.525 10.2504C42.5 10.5004 42.5875 10.6379 42.975 10.9004C43.25 11.0754 43.7 11.2754 43.975 11.3629C44.4125 11.4754 44.5 11.5504 44.5625 11.9004C44.6625 12.5629 45.125 16.0254 45.125 16.2004C45.125 16.4629 44.85 16.3879 44.2 15.9879C43.5875 15.5879 43.2125 15.5754 43.075 15.9379C42.9 16.3879 43.75 17.0629 44.8125 17.3504L45.325 17.4879L45.675 20.2629C45.875 21.8004 46.0625 23.1254 46.1 23.2254C46.2125 23.5129 45.4125 23.2879 44.8375 22.8629C44.55 22.6629 44.225 22.4879 44.1 22.4879C43.85 22.4879 43.6 22.8879 43.7 23.1504C43.8125 23.4629 44.825 24.1004 45.45 24.2629C45.7875 24.3379 46.1 24.4504 46.15 24.4879C46.2375 24.5504 47.125 30.7129 47.125 31.2004C47.125 31.6004 46.2625 31.2379 45.3125 30.4254C44.5625 29.7879 44 29.4879 43.5625 29.4879C43.3875 29.4879 43.25 29.4379 43.25 29.3629C43.25 29.3004 42.6625 22.9129 41.9375 15.1629C41.2125 7.42539 40.625 1.06289 40.625 1.02539C40.625 0.937885 40.8875 1.11289 41.4375 1.55039ZM53.175 1.53789C53.8 2.03789 54.4 2.36289 54.7375 2.36289C54.875 2.36289 55.0375 2.46289 55.1 2.57539C55.3 2.98789 62.7875 31.2379 62.7125 31.3254C62.575 31.4629 61.8375 31.0754 61.125 30.4754C60.275 29.7754 59.75 29.4879 59.2875 29.4879H58.9375L58.2 26.2004C57.7875 24.4004 57.4375 22.8504 57.4 22.7629C57.3 22.4754 57.6 22.6129 58.2875 23.1754C58.675 23.4879 59.0625 23.7379 59.1625 23.7379C59.4125 23.7379 59.65 23.4254 59.6 23.1504C59.5375 22.8004 58.125 21.7379 57.6 21.6629L57.1375 21.5879L56.8875 20.4379C56.7375 19.8129 56.45 18.5254 56.225 17.5879C56.0125 16.6379 55.8625 15.8254 55.9125 15.7879C55.9625 15.7379 56.2 15.8629 56.45 16.0629C57.225 16.6754 57.2375 16.6879 57.4625 16.5379C57.8125 16.3129 57.8 15.9879 57.4125 15.5879C57.0125 15.1629 56.475 14.8504 55.9375 14.7379L55.5625 14.6629L55.0375 12.3629C54.7375 11.0879 54.5125 10.0004 54.5375 9.95039C54.55 9.88789 54.7875 10.0129 55.05 10.2254C55.3125 10.4379 55.6 10.6129 55.675 10.6129C55.9 10.6129 56.125 10.3379 56.125 10.1004C56.125 9.75039 55.375 9.11289 54.775 8.95039C54.175 8.78789 54.2375 8.92539 53.6875 6.50039C53.5125 5.71289 53.3875 5.05039 53.4125 5.02539C53.4375 5.00039 53.6125 5.10039 53.7875 5.25039C54.2125 5.57539 54.675 5.52539 54.725 5.13789C54.8 4.66289 54 3.98789 53.3875 3.98789C53.25 3.98789 53.1125 3.88789 53.075 3.76289C53 3.51289 52.5 1.27539 52.5 1.17539C52.5 1.03789 52.6875 1.13789 53.175 1.53789ZM27.6875 3.81289C27.6375 4.08789 27.5375 4.22539 27.3375 4.27539C25.1125 4.78789 23.4875 5.12539 22.625 5.23789C21.5 5.38789 21.25 5.50039 21.25 5.86289C21.25 6.37539 21.5375 6.41289 23.35 6.12539C24.2875 5.97539 25.625 5.72539 26.3 5.55039C26.9875 5.37539 27.5625 5.26289 27.5875 5.28789C27.6125 5.31289 27.6 6.17539 27.55 7.21289L27.4625 9.08789L26.5125 9.33789C25.2875 9.67539 23.35 10.0629 22 10.2379C21.4125 10.3254 20.8625 10.4379 20.7875 10.5129C20.5375 10.7254 20.5875 11.2129 20.875 11.3004C21.275 11.4254 24.375 10.9254 26.475 10.3879L27.375 10.1629V10.8629C27.375 11.2504 27.3375 12.3379 27.2875 13.2629L27.2125 14.9629L26.325 15.2254C25.125 15.5629 23.2375 15.9504 21.45 16.2129C19.8625 16.4379 19.525 16.6129 19.825 17.0754C19.9375 17.2504 20.125 17.3004 20.6625 17.2754C21.85 17.2379 25.85 16.4754 26.825 16.1129L27.15 15.9879L27.0625 18.7629C27.0125 20.3004 26.925 21.6379 26.8625 21.7504C26.7 22.0754 23.225 22.8504 19.825 23.3254C19 23.4379 18.7125 23.7004 18.95 24.0754C19.075 24.2629 19.25 24.3004 19.8875 24.2754C20.9375 24.2254 23.3125 23.8254 25.2375 23.3504C26.075 23.1379 26.8 23.0004 26.825 23.0254C26.875 23.0754 26.625 29.6379 26.5625 29.7129C26.475 29.8129 24.0625 30.4129 22.4375 30.7254C20.4625 31.1129 17.025 31.5629 16.9125 31.4379C16.8375 31.3754 17 30.1129 17.625 25.4879C17.7625 24.4879 18.2125 21.1129 18.625 17.9879C19.0375 14.8629 19.425 11.9629 19.4875 11.5504C19.5625 11.1379 19.85 8.93789 20.15 6.65039L20.6875 2.50039L21.375 2.42539C23.6625 2.18789 26.6125 1.67539 27.4125 1.37539C27.6875 1.27539 27.6875 1.30039 27.725 2.35039C27.75 2.93789 27.725 3.60039 27.6875 3.81289ZM39.675 1.76289C39.7125 2.06289 39.775 2.72539 39.825 3.25039L39.9 4.20039L39.05 4.41289C37.725 4.75039 36.05 5.07539 34.875 5.23789C33.75 5.38789 33.5 5.50039 33.5 5.86289C33.5 6.37539 33.7875 6.41289 35.6125 6.12539C36.5625 5.97539 37.9125 5.71289 38.625 5.55039C39.3375 5.37539 39.9375 5.25039 39.9625 5.27539C40.0125 5.33789 40.3875 9.01289 40.35 9.05039C40.075 9.26289 37.25 9.90039 35.1375 10.2129C33.6125 10.4379 33.2875 10.6254 33.575 11.0754C33.6875 11.2504 33.875 11.2879 34.45 11.2629C35.5875 11.2129 38.6875 10.6254 40.2625 10.1629C40.4375 10.1129 40.4875 10.4129 40.675 12.3254C40.7875 13.5504 40.875 14.6504 40.875 14.7629C40.875 14.9254 40.65 15.0504 40.0375 15.2254C38.9 15.5629 37.0125 15.9504 35.2 16.2129C33.6125 16.4379 33.275 16.6129 33.575 17.0754C33.6875 17.2504 33.875 17.3004 34.425 17.2754C35.6375 17.2379 39.825 16.4254 40.775 16.0504C40.9375 15.9879 40.9875 16.0629 41.05 16.4504C41.2 17.4879 41.525 21.6129 41.4625 21.7754C41.35 22.0629 38.6125 22.7129 35.575 23.1629C33.6 23.4504 33.275 23.6004 33.575 24.0754C33.7 24.2629 33.875 24.3004 34.5125 24.2754C35.6125 24.2254 38.125 23.7879 40.025 23.3129L41.625 22.9129L41.6875 23.3004C41.875 24.4879 42.2625 29.6379 42.175 29.7254C41.7 30.1379 34.4875 31.4879 32.725 31.4879C32.5125 31.4879 32.5 30.7129 32.5 17.0004V2.50039L33.0375 2.43789C35.35 2.16289 35.9625 2.07539 37.0625 1.85039C37.75 1.72539 38.5625 1.52539 38.875 1.42539C39.1875 1.33789 39.475 1.25039 39.5125 1.25039C39.5625 1.23789 39.625 1.47539 39.675 1.76289ZM51.5 1.31289C51.5 1.35039 51.6375 2.00039 51.8125 2.76289C51.9875 3.52539 52.1125 4.16289 52.1 4.17539C51.8625 4.35039 48.1125 5.13789 46.725 5.30039C45.8875 5.38789 45.65 5.60039 45.85 6.05039C45.9375 6.22539 46.1 6.36289 46.2375 6.36289C46.725 6.36289 50.0875 5.75039 51.225 5.45039C51.85 5.28789 52.375 5.16289 52.375 5.18789C52.375 5.21289 52.575 6.07539 52.8125 7.12539C53.05 8.17539 53.225 9.05039 53.2 9.08789C53.0125 9.26289 49.625 10.0004 47.9 10.2379C46.5625 10.4129 46.5 10.4504 46.5 10.8754C46.5 11.1504 46.575 11.2504 46.8 11.3129C47.1625 11.4004 50.475 10.8504 52.175 10.4254C52.85 10.2504 53.4375 10.1254 53.4625 10.1629C53.4875 10.1879 53.7375 11.1879 54.0125 12.3754C54.2875 13.5754 54.5375 14.6504 54.575 14.7629C54.625 14.9379 54.475 15.0254 53.7875 15.2254C52.65 15.5629 50.7625 15.9504 48.95 16.2129C47.3625 16.4379 47.025 16.6129 47.325 17.0754C47.4375 17.2504 47.625 17.3004 48.175 17.2754C49.425 17.2379 52.6125 16.6129 54.575 16.0504C54.8125 15.9754 54.8625 16.1254 55.4875 18.8629C55.8625 20.5004 56.1 21.8129 56.05 21.8629C55.775 22.1379 51.4875 23.0379 49.2125 23.3129C48.5625 23.3879 48.125 23.6004 48.125 23.8504C48.125 23.9004 48.2 24.0379 48.2875 24.1754C48.45 24.3879 48.5375 24.3879 49.7 24.2504C51.2125 24.0629 54.4 23.4379 55.5 23.1129C55.9375 22.9754 56.3375 22.9129 56.3875 22.9629C56.4625 23.0504 57.9 29.2379 57.925 29.6004C57.9375 29.8129 56.475 30.2254 53.9375 30.7254C51.7125 31.1629 48.4 31.5629 48.2625 31.4129C48.125 31.2629 44.3125 2.62539 44.4125 2.53789C44.45 2.48789 44.9875 2.41289 45.5875 2.35039C47.125 2.18789 48.875 1.88789 50.125 1.55039C51.275 1.23789 51.5 1.20039 51.5 1.31289ZM15.875 1.48789C15.875 1.56289 15.7875 2.18789 15.675 2.86289L15.4625 4.10039L14.8875 4.28789C14.0875 4.55039 11.65 5.06289 10.375 5.23789C9.25 5.38789 9 5.50039 9 5.86289C9 6.37539 9.2875 6.41289 11.1 6.12539C12.0375 5.97539 13.35 5.72539 14 5.56289C14.65 5.40039 15.2 5.27539 15.2125 5.28789C15.225 5.28789 15.075 6.13789 14.9 7.16289L14.5625 9.02539L14.0875 9.18789C13.325 9.45039 10.825 9.98789 9.275 10.2129C7.7375 10.4379 7.4125 10.6254 7.7 11.0754C7.825 11.2629 8 11.2879 8.6375 11.2629C9.575 11.2129 12.3125 10.7254 13.5375 10.3754L14.4 10.1379L14.325 10.4129C14.3 10.5504 14.125 11.5129 13.95 12.5504C13.7625 13.5754 13.6 14.5379 13.5625 14.6879C13.5125 14.8879 13.3 15.0129 12.6 15.2129C11.4375 15.5504 8.9 16.0629 7.4 16.2504C6.125 16.4129 5.85 16.6004 6.1375 17.1254C6.2625 17.3754 6.3375 17.3879 7.0375 17.3004C8.2875 17.1629 10.5875 16.7504 11.925 16.4129C12.6125 16.2504 13.1875 16.1379 13.225 16.1629C13.25 16.2004 13.0625 17.4754 12.8 18.9879C12.425 21.1379 12.2625 21.7879 12.1 21.8754C11.5375 22.1754 7.875 22.9629 5.75 23.2379C5.1625 23.3129 4.6 23.4004 4.475 23.4379C4.2 23.5254 4.1 23.8254 4.2625 24.1379C4.3875 24.3754 4.475 24.3879 5.2375 24.3129C6.6 24.1754 8.9625 23.7504 10.55 23.3504C11.3625 23.1504 12.05 23.0004 12.0625 23.0129C12.1 23.0754 10.9125 29.6254 10.85 29.6879C10.7125 29.8129 8.475 30.3754 6.6875 30.7254C4.9625 31.0754 1.275 31.5629 1.2 31.4629C1.15 31.4129 8.8375 2.61289 8.9 2.53789C8.9375 2.51289 9.5125 2.43789 10.2 2.36289C11.7375 2.20039 13.4 1.92539 14.625 1.62539C15.775 1.33789 15.875 1.32539 15.875 1.48789ZM12.5125 30.7129C12.6875 30.8254 13.1875 31.1879 13.625 31.5254C14.725 32.3629 15.4375 32.5379 17.2125 32.4379C19.825 32.2879 23.225 31.7004 26.1 30.9004L27.775 30.4379L28.1875 30.6754C28.4125 30.8129 28.95 31.1879 29.375 31.5254C30.475 32.3629 31.1875 32.5379 32.9625 32.4379C35.575 32.2879 38.975 31.7004 41.85 30.9004L43.525 30.4379L43.9375 30.6754C44.1625 30.8129 44.7 31.1879 45.125 31.5254C46.225 32.3629 46.9375 32.5379 48.7125 32.4379C51.325 32.2879 54.725 31.7004 57.6 30.9004L59.275 30.4379L59.6875 30.6754C59.9125 30.8129 60.45 31.1879 60.875 31.5254C61.325 31.8629 61.9375 32.2004 62.325 32.3129C62.975 32.5004 63 32.5254 63 32.9379C63 33.2879 62.95 33.3629 62.75 33.3629C62.375 33.3629 61.775 33.0254 61.0625 32.4254C60.3 31.7879 59.75 31.4879 59.3 31.4879C59.125 31.4879 58.15 31.7129 57.1375 31.9879C53.725 32.9004 49.2875 33.5879 47.6 33.4504C46.6375 33.3629 46.1875 33.1629 45.3125 32.4254C44.55 31.7879 44 31.4879 43.55 31.4879C43.375 31.4879 42.4 31.7129 41.3875 31.9879C37.975 32.9004 33.5375 33.5879 31.85 33.4504C30.8875 33.3629 30.4375 33.1629 29.5625 32.4254C28.8 31.7879 28.25 31.4879 27.8 31.4879C27.625 31.4879 26.65 31.7129 25.6375 31.9879C22.225 32.9004 17.7875 33.5879 16.1 33.4504C15.1375 33.3629 14.6875 33.1629 13.8125 32.4254C13.05 31.7879 12.5 31.4879 12.05 31.4879C11.875 31.4879 10.9 31.7129 9.8875 31.9879C7.6375 32.5879 5.3375 33.0379 3.125 33.2879C0.85 33.5504 1 33.5754 1 33.0004V32.5129L1.975 32.4254C4.6 32.2004 8.2375 31.5254 10.4375 30.8754C11.925 30.4379 12.0875 30.4254 12.5125 30.7129Z" fill="black"/>
</svg>
