<svg width="64" height="45" viewBox="0 0 64 45" fill="none" xmlns="http://www.w3.org/2000/svg">
<path d="M5.24067 1.06278C3.9152 1.48793 2.98988 2.66334 2.98988 3.91378C2.98988 4.43896 3.30249 5.28926 3.67762 5.77692C3.97773 6.16456 3.99023 6.25209 3.99023 8.06522V9.95338H2.50221C1.67692 9.95338 0.851636 10.0159 0.664071 10.0784C-0.023669 10.341 -0.19873 10.9287 0.251427 11.5039C0.501514 11.829 0.514019 11.829 2.25212 11.829H3.99023V12.8919V13.9548H2.50221C1.67692 13.9548 0.851636 14.0173 0.664071 14.0798C-0.023669 14.3424 -0.19873 14.9301 0.251427 15.5053C0.501514 15.8304 0.514019 15.8304 2.25212 15.8304H3.99023V29.4602V43.0899H2.30214C0.664071 43.0899 0.589045 43.1024 0.301444 43.4026C-0.0736864 43.7652 -0.0986951 44.2028 0.226418 44.603L0.464001 44.9031H32H63.536L63.7736 44.603C64.0987 44.2028 64.0737 43.7652 63.6986 43.4026C63.4109 43.1024 63.3359 43.0899 61.6979 43.0899H60.0098V29.4602V15.8304H61.7479C63.486 15.8304 63.4985 15.8304 63.7486 15.5053C64.1987 14.9301 64.0237 14.3424 63.3359 14.0798C63.1484 14.0173 62.3231 13.9548 61.4978 13.9548H60.0098V12.8919V11.829H61.7479C63.486 11.829 63.4985 11.829 63.7486 11.5039C64.1987 10.9287 64.0237 10.341 63.3359 10.0784C63.1484 10.0159 62.3231 9.95338 61.4978 9.95338H60.0098V8.06522C60.0098 6.25209 60.0223 6.16456 60.3224 5.77692C61.2227 4.58901 61.2102 3.15101 60.2849 2.07563C59.5096 1.15031 59.0719 1.01276 57.0712 1.01276C55.6082 1.01276 55.2456 1.05028 54.8455 1.25035C53.3449 2.00061 52.7322 3.66369 53.4325 5.1392C53.5825 5.47682 53.8076 5.83945 53.9201 5.93948C54.1077 6.07703 54.1327 6.38964 54.1327 8.02771V9.95338H44.5669H35.001V7.96519C35.001 6.2646 35.0261 5.95199 35.2136 5.81444C35.5637 5.51434 35.8889 4.60152 35.8889 3.90127C35.8889 2.77588 35.3137 1.81304 34.3258 1.28786C33.8631 1.03777 33.6256 1.01276 32 1.01276C30.3744 1.01276 30.1368 1.03777 29.6742 1.28786C28.6863 1.81304 28.1111 2.77588 28.1111 3.90127C28.1111 4.60152 28.4363 5.51434 28.7864 5.81444C28.9739 5.95199 28.999 6.2646 28.999 7.96519V9.95338H19.4331H9.86728V8.02771C9.86728 6.38964 9.89229 6.07703 10.0799 5.93948C10.1924 5.83945 10.4175 5.47682 10.5675 5.1392C11.2678 3.66369 10.6551 1.98811 9.15453 1.25035C8.7794 1.07529 8.34175 1.01276 7.11632 0.987755C6.25352 0.97525 5.41573 1.00026 5.24067 1.06278ZM8.69187 3.23854C9.0795 3.6887 9.0795 4.20138 8.67937 4.62653C8.39177 4.93913 8.32924 4.95164 6.95376 4.95164C5.70333 4.95164 5.50326 4.92663 5.26568 4.70155C4.89054 4.35143 4.79051 3.85125 5.00308 3.46362C5.30319 2.92593 5.67832 2.81339 7.09131 2.85091C8.34175 2.88842 8.40427 2.90092 8.69187 3.23854ZM33.5005 3.01346C34.1257 3.33857 34.2133 4.18887 33.6756 4.66404C33.388 4.92663 33.2379 4.95164 32 4.95164C30.7621 4.95164 30.612 4.92663 30.3244 4.66404C29.7992 4.20138 29.8743 3.33857 30.4745 3.02597C30.9496 2.76337 33.0003 2.76337 33.5005 3.01346ZM58.5092 2.98845C59.197 3.33857 59.3095 4.16386 58.7343 4.70155C58.4967 4.92663 58.2967 4.95164 57.0462 4.95164C55.6707 4.95164 55.6082 4.93913 55.3206 4.62653C54.8205 4.07633 54.9955 3.22604 55.6833 2.95094C56.0959 2.77588 58.1591 2.81339 58.5092 2.98845ZM7.99163 24.9586V43.0899H6.92876H5.86588V24.9586V6.82729H6.92876H7.99163V24.9586ZM33.1254 12.1792C33.1879 17.2434 33.2004 17.481 33.4255 17.6561C33.7131 17.8561 34.1633 17.8811 34.5009 17.7061C34.776 17.556 35.001 16.9433 35.001 16.3056V15.8304L37.5394 15.8554L40.0653 15.893L40.1028 29.4852L40.1278 43.0899H37.5644H35.001L34.976 31.8485C34.9385 20.9947 34.926 20.5946 34.7009 20.3445C34.3883 20.0069 33.6256 19.9819 33.338 20.307C33.1504 20.5196 33.1254 21.5324 33.1004 31.786L33.0629 43.0274H32H30.9371L30.8996 25.0837C30.8871 15.2177 30.8996 7.06488 30.9371 6.97734C30.9746 6.86481 31.2747 6.82729 32.025 6.8523L33.0629 6.88981L33.1254 12.1792ZM58.1341 24.9586V43.0899H57.0712H56.0084V24.9586V6.82729H57.0712H58.1341V24.9586ZM28.999 12.8919V13.9548H19.4331H9.86728V12.8919V11.829H19.4331H28.999V12.8919ZM54.1327 12.8919V13.9548H44.5669H35.001V12.8919V11.829H44.5669H54.1327V12.8919ZM15.0191 26.084L15.0566 36.3251L15.3317 36.6002C15.6568 36.9378 16.2945 36.9628 16.5946 36.6627C16.7947 36.4751 16.8072 35.6373 16.8697 26.1715L16.9322 15.893L19.4706 15.8554L21.9965 15.8304V29.4602V43.0899H19.4331H16.8697V41.3768C16.8697 39.7888 16.8447 39.6512 16.5946 39.3761C16.2695 39.026 15.7568 39.001 15.3567 39.3261C15.0691 39.5512 15.0566 39.6512 15.0191 41.3268L14.9691 43.0899H12.4182H9.86728V29.4602V15.8304H12.4307H14.9941L15.0191 26.084ZM28.999 29.4602V43.0899H26.4356H23.8722V29.5477C23.8722 22.0951 23.9097 15.9555 23.9597 15.918C23.9972 15.8679 25.1601 15.8304 26.5231 15.8304H28.999V29.4602ZM47.1303 22.1451C47.1678 25.5838 47.2303 28.4598 47.2803 28.5474C47.4554 28.81 48.0806 28.9475 48.3932 28.785C48.9934 28.4848 49.0059 28.4223 49.0059 21.9201V15.8304H51.5693H54.1327V29.4602V43.0899H51.5693H49.0184L48.9809 37.3504C48.9434 31.911 48.9309 31.5984 48.7058 31.3483C48.3807 30.9982 47.718 30.9982 47.3804 31.3609C47.1303 31.6234 47.1303 31.7735 47.1303 37.3629V43.0899H44.5669H42.0035V29.4602V15.8304L44.5419 15.8554L47.0678 15.893L47.1303 22.1451Z" fill="black"/>
</svg>
