<svg width="64" height="61" viewBox="0 0 64 61" fill="none" xmlns="http://www.w3.org/2000/svg">
<path d="M32 0L47.5 13.5H16.5L32 0Z" fill="#F37833"/>
<rect x="16" y="36" width="32" height="4" fill="#F37833"/>
<path d="M31.4127 0.0685577C31.1877 0.131054 28.7752 1.85605 26.0377 3.89354C23.3002 5.93103 19.8127 8.53102 18.2877 9.66851C15.1502 12.006 14.9377 12.2435 15.0252 13.3685C15.1252 14.506 15.9377 15.306 17.0002 15.306H17.5002V17.7435C17.5002 20.031 17.4877 20.181 17.2502 20.306C16.6377 20.631 11.2127 21.931 10.4503 21.931C10.3503 21.931 10.2378 21.781 10.1878 21.581C10.0628 21.0685 9.76276 20.806 9.28776 20.806C8.73776 20.806 8.37526 21.181 8.37526 21.7435C8.37526 22.131 8.33776 22.181 7.97526 22.2435C7.15027 22.381 4.13778 22.556 2.52529 22.556C1.31279 22.556 0.762797 22.6059 0.512798 22.7434C-0.0621994 23.0309 -0.162199 23.5684 0.262799 24.1059C0.512798 24.4309 0.525298 24.4309 2.35029 24.4309C3.87528 24.4309 5.82527 24.3309 7.93776 24.1559L8.31276 24.1184V24.8684V25.6184L7.56277 25.7059C7.15027 25.7559 5.41278 25.8434 3.70028 25.9184C0.750297 26.0309 0.575298 26.0559 0.300299 26.3184C-0.199699 26.7934 -0.0496995 27.5559 0.587798 27.7809C0.937796 27.8934 5.50027 27.7934 7.41277 27.6059L8.37526 27.5184V30.0184V32.5184L7.52527 32.6059C7.06277 32.6434 5.31278 32.7434 3.62528 32.8059C0.775297 32.9309 0.550298 32.9559 0.287799 33.2059C-0.199699 33.6684 -0.0496995 34.4059 0.600298 34.6684C1.0378 34.8559 5.91277 34.6684 8.68776 34.3559C11.5627 34.0434 16.1377 33.1809 17.3127 32.7184C17.4627 32.6684 17.5002 32.8309 17.5002 33.6684V34.6809H16.8877C15.2502 34.6809 14.5127 35.5934 14.5002 37.6184C14.5002 38.9684 14.6252 39.4809 15.0877 39.9684C15.6377 40.5309 15.8502 40.6059 17.2502 40.6809L18.5627 40.7434L18.6002 50.4558L18.6252 60.1683L18.9502 60.4183C19.3877 60.7558 19.6627 60.7433 20.0877 60.3808L20.4377 60.0808L20.4752 50.3808L20.5002 40.6809H21.5627H22.6252V50.2433C22.6252 57.0683 22.6627 59.8808 22.7627 60.1058C23.0502 60.7433 24.0502 60.7933 24.3627 60.1933C24.4377 60.0558 24.5002 59.3308 24.5002 58.5683V57.1808H26.1877H27.8752V58.5433C27.8752 59.2933 27.9127 60.0058 27.9502 60.1183C28.0002 60.2183 28.2002 60.4058 28.4002 60.5058C28.7127 60.6683 28.8377 60.6683 29.1377 60.5433C29.3502 60.4683 29.5627 60.2933 29.6252 60.1683C29.7002 60.0308 29.7502 56.2433 29.7502 50.3183V40.6809H31.1002C32.3501 40.6809 32.4751 40.6559 32.7251 40.3934C33.0751 40.0184 33.0876 39.4184 32.7376 39.1059C32.4876 38.8809 32.1127 38.8684 24.4502 38.8059L16.4377 38.7434V37.6809V36.6184H32.0001H47.5626V37.6809V38.7434L41.8001 38.8059C36.3501 38.8684 36.0126 38.8809 35.7626 39.1059C35.4001 39.4309 35.4126 40.0559 35.7876 40.4059C36.0626 40.6559 36.2001 40.6809 37.7876 40.6809H39.5001V50.3183C39.5001 56.8683 39.5376 60.0308 39.6376 60.1933C39.9501 60.7933 40.9501 60.7433 41.2376 60.1058C41.3376 59.8808 41.3751 57.0683 41.3751 50.2433V40.6809H42.4376H43.5001L43.5251 50.3808L43.5626 60.0808L43.9126 60.3808C44.3376 60.7433 44.6126 60.7558 45.0501 60.4183L45.3751 60.1683L45.4001 50.4558L45.4376 40.7434L46.7501 40.6809C48.1501 40.6059 48.3751 40.5309 48.8876 39.9684C49.3626 39.4684 49.5001 38.9184 49.5001 37.6309C49.4876 35.5934 48.7501 34.6809 47.1126 34.6809H46.5001V33.8059C46.5001 33.3184 46.5251 32.9309 46.5376 32.9309C46.5626 32.9309 47.3501 33.1184 48.2876 33.3559C51.9001 34.2684 55.95 34.7809 60.45 34.8934L63.45 34.9684L63.725 34.6184C64.0625 34.1934 64.075 33.7559 63.75 33.4309C63.4125 33.0934 63.3125 33.0809 60.125 32.9934C58.575 32.9434 56.95 32.8684 56.5 32.8309L55.6875 32.7434L55.65 30.2559L55.625 27.7684L56.5875 27.8559C57.125 27.8934 58.8875 27.9684 60.5125 28.0059L63.45 28.0934L63.725 27.7434C64.0625 27.3184 64.075 26.8809 63.75 26.5559C63.4125 26.2184 63.3125 26.2059 60.125 26.1184C58.575 26.0684 56.95 25.9934 56.5 25.9434L55.6875 25.8684L55.65 25.0684L55.6125 24.2809L56.2125 24.3559C57.3125 24.5059 60.4125 24.6809 61.9125 24.6809C63.3125 24.6809 63.4 24.6684 63.6875 24.3684C63.8625 24.2059 64 23.9184 64 23.7434C64 23.5684 63.8625 23.2809 63.6875 23.1184C63.4 22.8184 63.3 22.8059 61.975 22.8059C60.5375 22.8059 57.3 22.6185 56.225 22.4809L55.625 22.4059V21.856C55.625 21.1685 55.3 20.806 54.7125 20.806C54.2 20.806 53.8875 21.1185 53.7875 21.731C53.7125 22.181 53.7 22.181 53.2626 22.1059C51.2501 21.781 47.9001 20.981 46.8501 20.5685L46.5001 20.431V17.8685V15.306H47.0001C48.0626 15.306 48.8751 14.506 48.9751 13.3685C49.0751 12.2185 48.9001 12.031 45.1501 9.24351C42.8126 7.49352 41.7001 6.73103 41.4126 6.70602C40.5501 6.60603 40.1626 7.69352 40.8501 8.33102C41.0376 8.50602 42.5251 9.64351 44.1626 10.856C45.7876 12.0685 47.1251 13.1435 47.1251 13.2435C47.1251 13.406 45.8751 13.431 36.9876 13.456L26.8502 13.4935L26.6127 13.7935C26.3002 14.1685 26.3127 14.7435 26.6252 15.056C26.8752 15.306 27.0377 15.306 35.7501 15.306H44.6251V24.9934V34.6809H32.0001H19.3752V24.9934V15.306H21.3752C23.2127 15.306 23.4002 15.281 23.6252 15.056C23.9377 14.7435 23.9502 14.1685 23.6377 13.7935C23.4002 13.4935 23.3877 13.4935 20.1377 13.456C17.4252 13.431 16.8752 13.3935 16.8752 13.2435C16.8752 13.1435 17.6252 12.506 18.5377 11.831C22.2752 9.04351 31.7002 2.01855 31.8377 1.90605C31.9501 1.81855 32.8126 2.39354 34.7751 3.85604C36.4751 5.11853 37.6751 5.93103 37.8501 5.93103C38.5376 5.93103 38.9751 5.28103 38.7001 4.64354C38.6126 4.43103 37.6251 3.60604 35.9376 2.35604C34.5001 1.28105 33.1751 0.331055 33.0001 0.243553C32.5376 0.00605774 31.8752 -0.068943 31.4127 0.0685577ZM17.4127 23.8059C17.1377 24.0434 12.8377 25.0434 10.7253 25.3434L10.2503 25.4184V24.6309V23.8559L11.6377 23.6309C12.9377 23.4309 16.4377 22.5934 17.1252 22.331C17.4377 22.2185 17.4377 22.2185 17.4752 22.9684C17.5002 23.3809 17.4627 23.7559 17.4127 23.8059ZM47.1376 22.6309C48.2626 23.0309 52.9375 24.0559 53.6375 24.0559C53.7 24.0559 53.75 24.3934 53.75 24.8059C53.75 25.5184 53.7375 25.5559 53.4501 25.5559C52.7001 25.5559 49.1376 24.8184 47.3501 24.2934L46.5001 24.0434V23.2434C46.5001 22.7934 46.5251 22.431 46.5501 22.431C46.5751 22.431 46.8376 22.5184 47.1376 22.6309ZM17.5002 28.2309C17.5002 29.5684 17.4502 30.6934 17.3877 30.7309C16.9877 30.9809 13.6002 31.7309 10.6003 32.2434L10.2503 32.2934V29.8059V27.3184L10.6628 27.2559C12.4752 26.9559 14.7877 26.4934 15.9377 26.1934C16.7002 25.9934 17.3502 25.8309 17.4127 25.8184C17.4627 25.8059 17.5002 26.8934 17.5002 28.2309ZM47.3251 26.2434C48.3626 26.5434 50.2251 26.9434 52.0001 27.2309L53.6875 27.5059L53.725 30.0184C53.75 32.3684 53.7375 32.5309 53.5375 32.4809C53.4125 32.4559 52.7751 32.3434 52.1251 32.2434C50.6376 31.9934 48.5751 31.5309 47.4001 31.1934L46.5001 30.9184V28.4934C46.5001 27.1559 46.5501 26.0559 46.6001 26.0559C46.6626 26.0559 46.9876 26.1434 47.3251 26.2434ZM27.8752 41.6809V42.6809H26.1877H24.5002V41.6809V40.6809H26.1877H27.8752V41.6809ZM27.8752 45.7433V46.9308H26.1877H24.5002V45.7433V44.5558H26.1877H27.8752V45.7433ZM27.8752 49.9933V51.1933L26.2252 51.1558L24.5627 51.1183L24.5252 49.9558L24.4877 48.8058H26.1877H27.8752V49.9933ZM27.8752 54.1808V55.3058H26.1877H24.5002V54.1808V53.0558H26.1877H27.8752V54.1808Z" fill="black"/>
<path d="M33.8752 17.106C31.0252 17.906 29.1502 20.7559 29.6127 23.6059C30.0752 26.5059 32.4627 28.5559 35.3752 28.5559C38.2752 28.5559 40.6252 26.5559 41.1377 23.6559C41.6502 20.8059 39.7252 17.881 36.8377 17.106C36.0502 16.8935 34.6377 16.8935 33.8752 17.106ZM36.7877 19.056C37.7377 19.4185 38.4127 20.0434 38.9002 21.0309C39.2627 21.7559 39.3127 21.9809 39.3002 22.8059C39.2877 24.2934 38.5627 25.5184 37.2377 26.2434C36.6252 26.5809 36.4627 26.6184 35.3752 26.6184C34.3002 26.6184 34.1252 26.5809 33.5252 26.2559C32.2127 25.5184 31.4502 24.2309 31.4502 22.7184C31.4502 21.9434 31.5002 21.7184 31.8752 20.9809C32.3502 20.0434 33.1502 19.331 34.0627 19.006C34.8002 18.7435 36.0002 18.756 36.7877 19.056Z" fill="black"/>
<path d="M25.4377 25.3434C24.3127 25.7184 23.6377 26.2934 23.1127 27.3059C22.7127 28.0934 22.7127 29.4934 23.1127 30.3434C23.4877 31.0934 24.4502 31.9684 25.2127 32.2309C27.9627 33.1684 30.6502 30.5809 29.8252 27.7809C29.3127 25.9934 27.1252 24.7934 25.4377 25.3434ZM27.3752 27.4059C27.7752 27.6934 28.1252 28.3809 28.1252 28.8684C28.1252 29.3684 27.7252 29.9934 27.2252 30.3059C25.8877 31.1184 24.2502 29.7559 24.7502 28.2559C24.9002 27.8059 25.4752 27.2684 25.9377 27.1434C26.3502 27.0309 27.0377 27.1559 27.3752 27.4059Z" fill="black"/>
</svg>
