<svg width="64" height="41" viewBox="0 0 64 41" fill="none" xmlns="http://www.w3.org/2000/svg">
<rect x="11" y="6" width="42" height="4" fill="#F37833"/>
<path d="M2.03858 3.5H5.03858L6.53858 15.5L3.03858 16.5L2.03858 3.5Z" fill="#F37833"/>
<path d="M62.5 3H59.5L58 15L61.5 16L62.5 3Z" fill="#F37833"/>
<path d="M0.509521 0.221069C-0.229323 0.596752 -0.254368 0.145931 1.03548 10.4021C2.2001 19.694 2.22514 19.8317 2.62587 20.6457C2.8638 21.1216 3.22696 21.6225 3.48994 21.8479C3.7404 22.0483 4.07851 22.3238 4.22879 22.4365L4.50429 22.6619L2.96398 30.8643C1.74928 37.301 1.44873 39.1419 1.53639 39.4174C1.74928 40.031 2.04982 40.1312 3.60265 40.1312C4.87997 40.1312 5.03024 40.1061 5.31827 39.8557C5.60629 39.5802 6.62064 36.4495 10.5528 23.7514L10.7907 22.9624L12.4312 23L14.0717 23.0376L14.4724 24.3525L14.8731 25.6674L13.7461 28.4224C13.1325 29.9376 11.9303 32.893 11.0787 34.9843C10.2272 37.0756 9.52592 38.9165 9.52592 39.0792C9.52592 40.0185 9.87656 40.1312 12.7818 40.1312H15.1862L15.5243 39.7805C15.7247 39.5676 16.2131 38.5783 16.7891 37.1382C17.4779 35.4101 17.7409 34.8966 17.8035 35.072C17.8661 35.1972 18.2167 36.3117 18.6049 37.5264C19.1184 39.1669 19.3688 39.793 19.5692 39.9433C19.9699 40.2188 22.4995 40.2188 22.9002 39.9308C23.5013 39.5175 23.4888 39.48 22.2491 32.868L21.0719 26.6191L24.165 19.0052L27.2707 11.3914H31.9417H36.6127L39.7183 19.0052L42.8115 26.6191L41.6343 32.868C40.3946 39.48 40.382 39.5175 40.9831 39.9308C41.3839 40.2188 43.9135 40.2188 44.3142 39.9433C44.5146 39.793 44.765 39.1669 45.2784 37.5264C45.6667 36.3117 46.0173 35.1972 46.0799 35.072C46.1425 34.8966 46.4055 35.4101 47.0942 37.1382C47.6703 38.5783 48.1587 39.5676 48.3591 39.7805L48.6972 40.1312H51.1015C54.0068 40.1312 54.3575 40.0185 54.3575 39.0792C54.3575 38.9165 53.6562 37.0756 52.8046 34.9843C51.9531 32.893 50.7509 29.9376 50.1373 28.4224L49.0102 25.6674L49.411 24.3525L49.8117 23.0376L51.4522 23L53.0927 22.9624L53.3306 23.7514C57.2627 36.4495 58.2771 39.5802 58.5651 39.8557C58.8531 40.1061 59.0034 40.1312 60.2807 40.1312C61.8336 40.1312 62.1341 40.031 62.347 39.4174C62.4347 39.1419 62.1466 37.3636 60.982 31.1774C60.168 26.832 59.4793 23.1378 59.4417 22.9499C59.3791 22.6619 59.4668 22.5492 60.0052 22.161C60.719 21.6475 61.2951 20.8085 61.5581 19.9069C61.7083 19.3934 64 1.63614 64 1.01C64 0.909821 63.8622 0.67189 63.6995 0.484047C63.474 0.221069 63.2987 0.133408 62.9356 0.133408C62.2969 0.133408 61.9337 0.571705 61.821 1.47335L61.7334 2.14958L61.0321 2.17462C59.3415 2.21219 57.5382 3.71492 57.1876 5.38045C57.15 5.58082 56.8871 7.42167 56.6241 9.46288C56.1106 13.4201 56.0981 13.8959 56.5865 14.9979C56.7243 15.311 57.0373 15.7869 57.3003 16.0624C57.7762 16.5883 59.0785 17.3397 59.5294 17.3397C59.7673 17.3397 59.7673 17.4023 59.6922 18.2413C59.5419 19.9319 58.9158 20.7209 57.676 20.821L57.0248 20.8711L56.8119 20.2826C56.3611 18.9551 55.2967 17.753 54.0569 17.1644C52.9925 16.6635 52.0533 16.5633 48.5594 16.6134C46.4932 16.6384 45.3285 16.6009 45.291 16.5257C45.2659 16.4506 44.7901 15.286 44.2265 13.921C43.663 12.556 43.2122 11.4164 43.2122 11.3789C43.2122 11.3538 45.2534 11.3288 47.758 11.3288C50.4879 11.3288 52.479 11.2787 52.7545 11.2035C53.3556 11.0282 53.9693 10.5148 54.1821 9.98883C54.4201 9.43783 54.4201 6.70787 54.1821 6.15686C53.9693 5.63091 53.3556 5.11747 52.7545 4.94215C52.1159 4.76684 11.7675 4.76684 11.1288 4.94215C10.5277 5.11747 9.91413 5.63091 9.70124 6.15686C9.46331 6.70787 9.46331 9.43783 9.70124 9.98883C9.91413 10.5148 10.5277 11.0282 11.1288 11.2035C11.4043 11.2787 13.3955 11.3288 16.1379 11.3288C18.63 11.3288 20.6712 11.3538 20.6712 11.3789C20.6712 11.4164 20.2204 12.556 19.6568 13.921C19.0933 15.286 18.6175 16.4506 18.5924 16.5257C18.5548 16.6009 17.3652 16.6384 15.2488 16.6134C11.7174 16.5633 10.9285 16.651 9.82647 17.1644C8.58671 17.753 7.50975 18.9551 7.07146 20.2826L6.85857 20.8711L6.20738 20.821C4.96763 20.7209 4.34149 19.9319 4.19122 18.2413C4.11608 17.4023 4.11608 17.3397 4.35401 17.3397C4.49176 17.3397 4.94258 17.1644 5.36836 16.9515C6.78343 16.2502 7.6475 14.8602 7.66003 13.2823C7.66003 12.5936 6.87109 6.09425 6.68325 5.31784C6.29504 3.67736 4.50429 2.21219 2.85128 2.17462L2.15 2.14958L2.06235 1.47335C1.93712 0.396389 1.23584 -0.154613 0.509521 0.221069ZM3.50246 4.50386C3.90319 4.70422 4.46672 5.31784 4.5669 5.65595C4.69213 6.08173 5.51863 12.5685 5.51863 13.1696C5.51863 13.9085 5.20556 14.5471 4.64204 14.9228C4.19122 15.2359 3.76544 15.2985 3.76544 15.048C3.76544 14.8477 2.53821 5.11747 2.46307 4.65413C2.40046 4.34106 2.42551 4.31602 2.77614 4.31602C2.97651 4.31602 3.31462 4.40368 3.50246 4.50386ZM61.4328 4.59152C61.3702 4.90459 60.1179 14.8226 60.1179 15.0606C60.1179 15.4989 59.1161 15.0105 58.6778 14.3718C58.4399 14.0086 58.3647 13.7457 58.3647 13.2322C58.3647 12.3556 59.2038 5.98154 59.3791 5.55577C59.6421 4.90459 60.4435 4.32854 61.0947 4.31602C61.4454 4.31602 61.4954 4.35358 61.4328 4.59152ZM52.2286 8.07285V9.1999H31.9417H11.6548V8.07285V6.9458H31.9417H52.2286V8.07285ZM24.9289 11.4039C24.9289 11.4415 22.4995 17.4399 19.5191 24.7407L14.1218 38.0023H13.145C12.1807 38.0023 12.1682 38.0023 12.2684 37.7143C12.569 36.9504 22.9503 11.5166 23.0004 11.429C23.0756 11.3162 24.9289 11.2912 24.9289 11.4039ZM46.1175 24.2272C48.9977 31.2901 51.4271 37.276 51.5398 37.5264L51.7277 38.0023H50.7384H49.7616L44.3643 24.7407C41.3839 17.4399 38.9544 11.429 38.9544 11.3914C38.9544 11.3538 39.3927 11.3288 39.9187 11.3538L40.883 11.3914L46.1175 24.2272ZM17.6407 18.8174C17.6282 18.88 17.4403 19.3559 17.2274 19.8818L16.8517 20.8461H13.0073C10.7406 20.8461 9.15024 20.796 9.15024 20.7334C9.15024 20.6708 9.33808 20.3702 9.56349 20.0697C9.98926 19.5187 10.7782 18.9927 11.4544 18.8299C11.9929 18.7047 17.6908 18.6922 17.6407 18.8174ZM53.2304 19.1555C53.844 19.4936 54.7331 20.4203 54.7331 20.7334C54.7331 20.796 53.1427 20.8461 50.8761 20.8461H47.0316L46.656 19.8818C46.4431 19.3559 46.2552 18.8675 46.2302 18.8174C46.2051 18.7423 47.5075 18.7172 49.3609 18.7423L52.5417 18.7798L53.2304 19.1555ZM8.46148 23.2505C8.2486 24.0644 3.90319 37.7894 3.89067 37.6517C3.89067 37.4889 6.49541 23.4133 6.58307 23.1252C6.62064 23.025 6.93371 22.975 7.58489 22.975C8.49905 22.975 8.5241 22.9875 8.46148 23.2505ZM58.6403 30.2382C59.3791 34.1954 59.9802 37.5264 59.9802 37.6266C59.9802 37.7894 55.6473 24.1145 55.4219 23.2505C55.3468 22.9624 55.3593 22.9624 56.311 23L57.2753 23.0376L58.6403 30.2382ZM20.8841 37.4889C20.8716 37.5765 20.4458 36.3242 19.9449 34.6963C19.3313 32.7427 19.0558 31.6532 19.1058 31.4654C19.1559 31.3276 19.2812 31.0021 19.3939 30.7516C19.5817 30.3008 19.5817 30.3133 20.2454 33.8072C20.6211 35.7357 20.9091 37.3887 20.8841 37.4889ZM44.6523 31.1398L44.8652 31.7159L43.951 34.6712C43.4501 36.2867 43.0118 37.589 42.9868 37.564C42.9617 37.5389 43.2372 35.911 43.6004 33.9449C43.9761 31.9788 44.3142 30.4135 44.3518 30.4636C44.4019 30.5137 44.5271 30.8142 44.6523 31.1398Z" fill="black"/>
</svg>
