<svg width="70" height="44" viewBox="0 0 70 44" fill="none" xmlns="http://www.w3.org/2000/svg">
<path d="M0 20.5375V17.6718C0 16.3982 0.151624 15.261 0.454873 14.2603C0.758122 13.2595 1.16751 12.4408 1.68303 11.8039C2.19855 11.1671 2.83538 10.6516 3.5935 10.2574C4.38194 9.83283 5.20072 9.54474 6.04981 9.39312C6.92923 9.21117 7.91479 9.10503 9.00649 9.07471C11.3112 9.01406 13.6917 9.1202 16.148 9.39312C18.6043 9.66604 20.5148 9.99961 21.8794 10.3938V15.3974C18.4224 15.0942 14.7076 14.9426 10.735 14.9426C9.12779 14.9122 7.9906 15.0942 7.32346 15.4884C6.68664 15.8523 6.36822 16.7469 6.36822 18.1722V19.8097C6.36822 21.0834 6.62598 21.9325 7.14151 22.357C7.65703 22.7815 8.58194 22.9938 9.91623 22.9938H15.1928C15.9812 22.9938 16.709 23.0696 17.3762 23.2213C18.0736 23.3729 18.665 23.5852 19.1502 23.8581C19.6657 24.131 20.1206 24.4494 20.5148 24.8133C20.9393 25.1772 21.2881 25.5866 21.561 26.0415C21.8642 26.4963 22.1068 26.9664 22.2888 27.4516C22.5011 27.9065 22.6527 28.3917 22.7437 28.9072C22.865 29.4227 22.9408 29.9231 22.9711 30.4083C23.0317 30.8631 23.0621 31.3332 23.0621 31.8184V34.0472C23.0621 35.5028 22.8801 36.7765 22.5162 37.8682C22.1523 38.9599 21.6823 39.8241 21.1061 40.461C20.5603 41.0978 19.8628 41.6133 19.0137 42.0075C18.1949 42.4017 17.3762 42.6595 16.5574 42.7808C15.7386 42.9324 14.844 43.0082 13.8736 43.0082C8.38483 43.0082 4.09386 42.5534 1.00072 41.6436V36.64C4.33646 36.9736 8.20288 37.1404 12.6 37.1404C13.1762 37.1404 13.6614 37.1101 14.0556 37.0494C14.4801 36.9888 14.9047 36.8675 15.3292 36.6855C15.7841 36.5036 16.1177 36.2155 16.3299 35.8212C16.5725 35.3967 16.6938 34.8812 16.6938 34.2747V32.5007C16.6938 31.4393 16.4816 30.6509 16.057 30.1353C15.6325 29.6198 14.844 29.362 13.6917 29.362H8.5971C2.8657 29.3317 0 26.3902 0 20.5375Z" fill="#00365B"/>
<path d="M26.1481 9.34763H32.9257L40.2946 34.0472L46.299 9.34763H53.1221L50.8022 17.9447L56.0787 34.1837L62.174 9.34763H68.9062L59.7632 42.6443H52.3943L47.891 28.9981L43.9791 42.6443H36.6102L26.1481 9.34763Z" fill="#00365B"/>
<path d="M70 2.84296C70 4.41308 68.7272 5.68591 67.157 5.68591C65.5869 5.68591 64.3141 4.41308 64.3141 2.84296C64.3141 1.27284 65.5869 0 67.157 0C68.7272 0 70 1.27284 70 2.84296Z" fill="#FF5C00"/>
<path d="M54.3638 2.84296C54.3638 4.41308 53.0909 5.68591 51.5208 5.68591C49.9507 5.68591 48.6779 4.41308 48.6779 2.84296C48.6779 1.27284 49.9507 0 51.5208 0C53.0909 0 54.3638 1.27284 54.3638 2.84296Z" fill="#FF5C00"/>
</svg>
