<svg width="102" height="102" viewBox="0 0 102 102" fill="none" xmlns="http://www.w3.org/2000/svg">
<path d="M3.511 37.896V33.864C3.511 32.072 3.72433 30.472 4.151 29.064C4.57767 27.656 5.15367 26.504 5.879 25.608C6.60433 24.712 7.50033 23.9867 8.567 23.432C9.67633 22.8347 10.8283 22.4293 12.023 22.216C13.2603 21.96 14.647 21.8107 16.183 21.768C19.4257 21.6827 22.775 21.832 26.231 22.216C29.687 22.6 32.375 23.0693 34.295 23.624V30.664C29.431 30.2373 24.2043 30.024 18.615 30.024C16.3537 29.9813 14.7537 30.2373 13.815 30.792C12.919 31.304 12.471 32.5627 12.471 34.568V36.872C12.471 38.664 12.8337 39.8587 13.559 40.456C14.2843 41.0533 15.5857 41.352 17.463 41.352H24.887C25.9963 41.352 27.0203 41.4587 27.959 41.672C28.9403 41.8853 29.7723 42.184 30.455 42.568C31.1803 42.952 31.8203 43.4 32.375 43.912C32.9723 44.424 33.463 45 33.847 45.64C34.2737 46.28 34.615 46.9413 34.871 47.624C35.1697 48.264 35.383 48.9467 35.511 49.672C35.6817 50.3973 35.7883 51.1013 35.831 51.784C35.9163 52.424 35.959 53.0853 35.959 53.768V56.904C35.959 58.952 35.703 60.744 35.191 62.28C34.679 63.816 34.0177 65.032 33.207 65.928C32.439 66.824 31.4577 67.5493 30.263 68.104C29.111 68.6587 27.959 69.0213 26.807 69.192C25.655 69.4053 24.3963 69.512 23.031 69.512C15.3083 69.512 9.271 68.872 4.919 67.592V60.552C9.61233 61.0213 15.0523 61.256 21.239 61.256C22.0497 61.256 22.7323 61.2133 23.287 61.128C23.8843 61.0427 24.4817 60.872 25.079 60.616C25.719 60.36 26.1883 59.9547 26.487 59.4C26.8283 58.8027 26.999 58.0773 26.999 57.224V54.728C26.999 53.2347 26.7003 52.1253 26.103 51.4C25.5057 50.6747 24.3963 50.312 22.775 50.312H15.607C7.543 50.2693 3.511 46.1307 3.511 37.896ZM40.301 22.152H49.837L60.205 56.904L68.653 22.152H78.253L74.989 34.248L82.413 57.096L90.989 22.152H100.461L87.597 69H77.229L70.893 49.8L65.389 69H55.021L40.301 22.152Z" fill="white"/>
<path d="M102 13C102 15.2091 100.209 17 98 17C95.7909 17 94 15.2091 94 13C94 10.7909 95.7909 9 98 9C100.209 9 102 10.7909 102 13Z" fill="white"/>
<path d="M80 13C80 15.2091 78.2091 17 76 17C73.7909 17 72 15.2091 72 13C72 10.7909 73.7909 9 76 9C78.2091 9 80 10.7909 80 13Z" fill="white"/>
</svg>
