<svg width="64" height="43" viewBox="0 0 64 43" fill="none" xmlns="http://www.w3.org/2000/svg">
<rect x="54" y="28" width="4" height="14" fill="#F37833"/>
<rect x="5" y="28" width="4" height="14" fill="#F37833"/>
<rect x="6" y="2" width="52" height="5" fill="#F37833"/>
<path d="M5.625 0.275043C4.975 0.612541 4.65 1.02504 4.5 1.70004C4.325 2.40004 4.35 6.41254 4.5125 7.08754C4.7 7.82504 5.325 8.45004 6.0625 8.63754L6.625 8.77504V9.95004V11.125H6.3C5.775 11.125 5.05 11.6125 4.7375 12.175C4.45 12.675 4.4375 12.775 4.4375 15.4375C4.4375 17.8 4.4625 18.2375 4.65 18.575C4.9625 19.15 5.575 19.6125 6.1375 19.7L6.625 19.7875V20.95V22.125H4.2C1.6125 22.125 1.2875 22.1875 0.7 22.725C0.1125 23.275 0 23.7125 0 25.375C0 27.0375 0.1125 27.475 0.7 28.025C1.2375 28.525 1.6375 28.625 3.075 28.625H4.375V34.75V40.875L4.0375 41.0125C3.8625 41.075 3.6375 41.225 3.55 41.35C3.3125 41.6625 3.3375 42.3 3.6125 42.6375L3.85 42.9375L7.4 42.975C9.3375 43 11.0625 42.975 11.2125 42.9375C11.6375 42.8375 12 42.375 12 41.9375C12 41.5125 11.6375 41.0875 11.1625 40.9375L10.875 40.8625V34.7375V28.625H32H53.125V34.7375V40.8625L52.85 40.9375C52.3625 41.0875 52 41.5125 52 41.9375C52 42.375 52.3625 42.8375 52.7875 42.9375C52.9375 42.975 54.6625 43 56.6 42.975L60.15 42.9375L60.3875 42.6375C60.6625 42.3 60.6875 41.6625 60.45 41.35C60.3625 41.225 60.1375 41.075 59.9625 41.0125L59.625 40.875V34.75V28.625H60.925C62.3625 28.625 62.7625 28.525 63.3 28.025C63.8875 27.475 64 27.0375 64 25.375C64 23.7125 63.8875 23.275 63.3 22.725C62.7125 22.1875 62.3875 22.125 59.8 22.125H57.375V20.95V19.7875L57.8625 19.7C58.425 19.6125 59.0375 19.15 59.35 18.575C59.5375 18.2375 59.5625 17.8 59.5625 15.4375C59.5625 12.775 59.55 12.675 59.2625 12.175C58.95 11.6125 58.225 11.125 57.7 11.125H57.375V9.95004V8.77504L57.9375 8.63754C58.675 8.45004 59.3 7.82504 59.4875 7.08754C59.65 6.41254 59.675 2.40004 59.5 1.70004C59.35 1.02504 59.025 0.612541 58.375 0.275043L57.825 4.19617e-05H32H6.175L5.625 0.275043ZM57.5 4.37504V6.62504H32H6.5V4.37504V2.12504H32H57.5V4.37504ZM11 9.87504V11H9.875H8.75V9.87504V8.75004H9.875H11V9.87504ZM50.875 9.87504V11H32H13.125V9.87504V8.75004H32H50.875V9.87504ZM55.25 9.87504V11H54.125H53V9.87504V8.75004H54.125H55.25V9.87504ZM57.475 15.4L57.4375 17.6875H32H6.5625L6.525 15.4L6.5 13.125H32H57.5L57.475 15.4ZM11 20.9375V22.125H9.875H8.75V20.9375V19.75H9.875H11V20.9375ZM50.875 20.9375V22.125H32H13.125V20.9375V19.75H32H50.875V20.9375ZM55.25 20.9375V22.125H54.125H53V20.9375V19.75H54.125H55.25V20.9375ZM61.875 25.375V26.5H32H2.125V25.375V24.25H32H61.875V25.375ZM8.875 34.75V40.875H7.6875H6.5V34.75V28.625H7.6875H8.875V34.75ZM57.5 34.75V40.875H56.3125H55.125V34.75V28.625H56.3125H57.5V34.75Z" fill="black"/>
<path d="M8.06245 3.6875C7.66245 4.075 7.66245 4.6125 8.06245 5.05C8.33745 5.35 8.44995 5.375 9.31245 5.375C10.15 5.375 10.3 5.3375 10.5625 5.0625C10.975 4.6625 10.9875 4.025 10.5875 3.65C10.3375 3.4125 10.15 3.375 9.32495 3.375C8.47495 3.375 8.32495 3.4125 8.06245 3.6875Z" fill="black"/>
<path d="M53.4001 3.6625C53.0251 4.0625 53.0376 4.675 53.4376 5.0625C53.7001 5.3375 53.8501 5.375 54.6876 5.375C55.5501 5.375 55.6626 5.35 55.9376 5.05C56.3376 4.6125 56.3376 4.075 55.9376 3.6875C55.6751 3.4125 55.5251 3.375 54.6501 3.375C53.7876 3.375 53.6376 3.4125 53.4001 3.6625Z" fill="black"/>
<path d="M8.3 14.525C8 14.6625 7.75 15.125 7.75 15.5C7.75 15.9375 8.2625 16.375 8.9 16.45C10.075 16.6125 10.875 16.2125 10.875 15.4875C10.875 14.975 10.7625 14.7625 10.3625 14.5625C9.9625 14.35 8.7 14.325 8.3 14.525Z" fill="black"/>
<path d="M53.6874 14.525C53.0749 14.85 52.9249 15.6125 53.3749 16.1C53.8874 16.65 55.4749 16.625 55.9749 16.0625C56.4124 15.55 56.2624 14.7875 55.6624 14.5125C55.2749 14.3375 54.0124 14.3375 53.6874 14.525Z" fill="black"/>
</svg>
