<svg width="69" height="39" viewBox="0 0 69 39" fill="none" xmlns="http://www.w3.org/2000/svg">
<path d="M22.4489 17.7538H20.9372C20.1088 17.7538 19.4373 18.425 19.4373 19.253V31.5699C19.4373 32.3979 20.1088 33.0691 20.9372 33.0691H22.4489C23.2773 33.0691 23.9489 32.3979 23.9489 31.5699V19.253C23.9489 18.425 23.2773 17.7538 22.4489 17.7538Z" fill="white" stroke="#1D1D1B" stroke-miterlimit="10"/>
<path d="M11.7678 24.7408H10.2245C9.40483 24.7408 8.74036 25.4049 8.74036 26.2242V36.0556C8.74036 36.8749 9.40483 37.539 10.2245 37.539H11.7678C12.5875 37.539 13.252 36.8749 13.252 36.0556V26.2242C13.252 25.4049 12.5875 24.7408 11.7678 24.7408Z" fill="white" stroke="#1D1D1B" stroke-miterlimit="10"/>
<path d="M59.0431 24.7408H57.4761C56.663 24.7408 56.0038 25.3996 56.0038 26.2123V36.0674C56.0038 36.8802 56.663 37.539 57.4761 37.539H59.0431C59.8562 37.539 60.5154 36.8802 60.5154 36.0674V26.2123C60.5154 25.3996 59.8562 24.7408 59.0431 24.7408Z" fill="white" stroke="#1D1D1B" stroke-miterlimit="10"/>
<path d="M46.6806 17.7538H45.1452C44.3233 17.7538 43.6571 18.4198 43.6571 19.2412V31.5818C43.6571 32.4032 44.3233 33.0691 45.1452 33.0691H46.6806C47.5025 33.0691 48.1687 32.4032 48.1687 31.5818V19.2412C48.1687 18.4198 47.5025 17.7538 46.6806 17.7538Z" fill="white" stroke="#1D1D1B" stroke-miterlimit="10"/>
<path d="M14.3858 1H12.6142C11.7227 1 11 1.52202 11 2.16597V18.834C11 19.478 11.7227 20 12.6142 20H14.3858C15.2773 20 16 19.478 16 18.834V2.16597C16 1.52202 15.2773 1 14.3858 1Z" fill="white" stroke="#1D1D1B" stroke-miterlimit="10"/>
<path d="M56.6772 1H55.3228C54.5923 1 54 1.53476 54 2.19441V18.8056C54 19.4652 54.5923 20 55.3228 20H56.6772C57.4077 20 58 19.4652 58 18.8056V2.19441C58 1.53476 57.4077 1 56.6772 1Z" fill="white" stroke="#1D1D1B" stroke-miterlimit="10"/>
<path d="M62.3353 3H7V6.9886H62.3353V3Z" fill="white" stroke="#1D1D1B" stroke-miterlimit="10"/>
<path d="M62.2956 9.29926H6.96021V13.2879H62.2956V9.29926Z" fill="white" stroke="#1D1D1B" stroke-miterlimit="10"/>
<path d="M1.09078 27.9443H68.019C68.0703 27.9443 68.1195 27.9647 68.1557 28.0009C68.192 28.0372 68.2124 28.0863 68.2124 28.1376V31.0018C68.2124 31.0138 68.21 31.0255 68.2055 31.0366C68.2009 31.0476 68.1942 31.0576 68.1858 31.066C68.1774 31.0744 68.1674 31.0811 68.1563 31.0857C68.1453 31.0902 68.1335 31.0926 68.1216 31.0926H1.09078C1.07886 31.0926 1.06706 31.0902 1.05604 31.0857C1.04503 31.0811 1.03502 31.0744 1.02659 31.066C1.01816 31.0576 1.01147 31.0476 1.00691 31.0366C1.00235 31.0255 1 31.0138 1 31.0018V28.039C1 28.0149 1.00956 27.9918 1.02659 27.9748C1.04362 27.9578 1.06671 27.9483 1.09078 27.9483V27.9443Z" fill="white" stroke="#1D1D1B" stroke-miterlimit="10"/>
<path d="M62.0707 17.4619C62.0651 17.4594 62.0591 17.4581 62.053 17.4581C62.0468 17.4581 62.0408 17.4594 62.0352 17.4619H7.3748C7.36921 17.4594 7.36316 17.4581 7.35704 17.4581C7.35091 17.4581 7.34486 17.4594 7.33927 17.4619L1.04749 27.9009C1.04749 27.9009 1.04749 27.9443 1.08301 27.9443H68.1849C68.2125 27.9443 68.2322 27.9206 68.2204 27.8969L62.0707 17.4619Z" fill="white" stroke="#1D1D1B" stroke-miterlimit="10"/>
</svg>
