<svg width="38" height="55" viewBox="0 0 38 55" fill="none" xmlns="http://www.w3.org/2000/svg">
<rect x="8" y="4" width="7" height="9" fill="#F37833"/>
<rect x="1" y="4" width="7" height="9" fill="#F37833"/>
<rect x="22" y="4" width="7" height="9" fill="#F37833"/>
<rect x="15" y="4" width="7" height="9" fill="#F37833"/>
<rect x="29" y="4" width="7" height="9" fill="#F37833"/>
<rect x="26" y="1" width="7" height="9" fill="#F37833"/>
<rect x="4" y="1" width="8" height="9" fill="#F37833"/>
<rect x="22" y="22" width="7" height="28" fill="#F37833"/>
<rect x="8" y="22" width="7" height="28" fill="#F37833"/>
<path d="M4.12768 0.214844C3.37573 0.59082 3.0105 1.31055 3.0105 2.43848V3.00781H2.323C1.50659 3.00781 1.14136 3.12598 0.722412 3.52344C0.00268555 4.2002 0.0563965 2.77148 0.0241699 20.625C0.0134277 29.5195 0.0241699 36.9531 0.0563965 37.1465C0.185303 37.8555 0.937256 38.167 1.39917 37.7051C1.61401 37.4902 1.61401 37.3506 1.61401 25.835V14.1797H3.07495H4.52515L5.86792 16.9297L7.19995 19.6904L7.17847 34.5791L7.14624 49.4678H4.48218C2.23706 49.4678 1.80737 49.4463 1.72144 49.3066C1.65698 49.21 1.61401 47.3516 1.61401 44.8164C1.61401 40.6377 1.60327 40.4873 1.39917 40.2832C0.990967 39.875 0.324951 40.0469 0.12085 40.6162C-0.0402832 41.0889 -0.0402832 48.7695 0.12085 49.5322C0.335693 50.542 1.22729 51.1328 2.5271 51.1328C2.86011 51.1328 2.90308 51.165 2.94604 51.4766C2.97827 51.6699 3.08569 52.2607 3.17163 52.7871C3.36499 53.9365 3.65503 54.4521 4.32104 54.7744L4.7937 55H18.7048C32.1326 55 32.616 54.9893 33.0564 54.7959C33.7117 54.4951 34.0232 53.9473 34.2165 52.7871C34.3025 52.2607 34.4099 51.6699 34.4421 51.4766C34.4851 51.165 34.5281 51.1328 34.8611 51.1328C35.6667 51.1328 36.322 50.9072 36.741 50.4883C37.0417 50.1875 37.1814 49.9297 37.2673 49.5322C37.4285 48.748 37.4285 31.8613 37.2673 31.3779C37.0632 30.8086 36.3972 30.6367 35.989 31.0449C35.7742 31.2598 35.7742 31.3994 35.7742 40.1973C35.7742 45.6436 35.7312 49.21 35.6667 49.3066C35.5808 49.4463 35.1511 49.4678 32.906 49.4678H30.2419L30.2097 34.5791L30.1882 19.6904L31.5203 16.9297L32.863 14.1797H34.3132H35.7742V21.2158C35.7742 28.1123 35.7742 28.252 35.989 28.4668C36.4509 28.9287 37.2029 28.6172 37.3318 27.9082C37.364 27.7148 37.3855 22.3545 37.364 16.0059C37.3318 3.27637 37.3747 4.2002 36.6658 3.52344C36.2468 3.12598 35.8816 3.00781 35.0652 3.00781H34.3777V2.43848C34.3777 1.31055 34.0124 0.580078 33.2497 0.214844C32.8308 0.0107422 32.5837 0 29.533 0C26.5896 0 26.2244 0.0214844 25.8376 0.204102C25.0535 0.558594 24.7097 1.20312 24.7097 2.30957V3.00781H18.6941H12.6785V2.27734C12.6785 1.51465 12.4421 0.848633 12.0769 0.515625C11.5291 0.0322266 11.239 0 7.823 0C4.77222 0 4.53589 0.0107422 4.12768 0.214844ZM10.9382 1.74023C11.0134 1.81543 11.0671 2.12695 11.0671 2.43848V3.00781H7.84448H4.62183V2.43848C4.62183 2.12695 4.67554 1.81543 4.75073 1.74023C4.93335 1.55762 10.7556 1.55762 10.9382 1.74023ZM32.6374 1.74023C32.7126 1.81543 32.7664 2.12695 32.7664 2.43848V3.00781H29.5437H26.321V2.48145C26.321 1.54688 26.074 1.61133 29.4792 1.61133C31.6921 1.61133 32.5408 1.64355 32.6374 1.74023ZM7.19995 8.59375V12.5684L4.43921 12.5469L1.66772 12.5146L1.6355 8.77637C1.62476 6.32715 1.64624 4.96289 1.72144 4.83398C1.82886 4.62988 1.96851 4.61914 4.5144 4.61914H7.19995V8.59375ZM14.2898 8.59375V12.5684H11.5505H8.81128V8.59375V4.61914H11.5505H14.2898V8.59375ZM21.4871 8.59375V12.5684H18.6941H15.9011V8.59375V4.61914H18.6941H21.4871V8.59375ZM28.5769 8.59375V12.5684H25.8376H23.0984V8.59375V4.61914H25.8376H28.5769V8.59375ZM35.6667 4.83398C35.7419 4.96289 35.7634 6.32715 35.7527 8.77637L35.7205 12.5146L32.9597 12.5469L30.1882 12.5684V8.59375V4.61914H32.8738C35.4197 4.61914 35.5593 4.62988 35.6667 4.83398ZM30.8972 14.5234C30.8113 14.7168 30.1667 16.0596 29.4578 17.5098C28.2976 19.8945 28.1257 20.1953 27.6101 20.6572C26.654 21.5273 26.9656 21.4951 18.4685 21.4629L11.0134 21.4307L10.53 21.1836C9.55249 20.6787 9.30542 20.3135 7.93042 17.5098C7.22143 16.0596 6.5769 14.7168 6.49097 14.5234L6.34058 14.1797H18.6941H31.0476L30.8972 14.5234ZM10.5193 22.8809C11.0564 23.0527 11.5076 23.0957 12.7429 23.0957H14.279L14.3113 26.8447C14.3435 30.3574 14.3542 30.6045 14.5476 30.8193C14.8162 31.1094 15.3962 31.1201 15.6863 30.8301C15.8904 30.626 15.9011 30.4756 15.9011 26.8555V23.0957H18.6941H21.4871L21.4656 36.2764L21.4333 49.4678H18.6941H15.9548L15.9011 41.4863C15.8474 33.7305 15.8367 33.4941 15.6433 33.3438C15.2888 33.0967 14.7624 33.1504 14.5154 33.4727C14.2898 33.752 14.2898 33.8271 14.2898 41.6367V49.5215H11.5505H8.81128V35.7715V22.0215L9.3269 22.3545C9.6062 22.5264 10.1433 22.7734 10.5193 22.8809ZM28.5769 35.7715V49.5215H25.8376H23.0984V36.3086V23.0957H24.6453C26.3855 23.0957 27.1804 22.9238 28.0398 22.3545C28.3083 22.1826 28.5339 22.0322 28.5554 22.0322C28.5662 22.0215 28.5769 28.209 28.5769 35.7715ZM32.8201 51.3691C32.7878 51.5088 32.7126 51.9492 32.6589 52.3682C32.5945 52.7764 32.4871 53.1738 32.4226 53.249C32.2507 53.4531 5.13745 53.4531 4.96558 53.249C4.90112 53.1738 4.7937 52.7764 4.72925 52.3682C4.67554 51.9492 4.60034 51.5088 4.56811 51.3691L4.5144 51.1328H18.6941H32.8738L32.8201 51.3691Z" fill="black"/>
<path d="M4.10616 7.33691C3.61202 7.86328 3.95577 8.63672 4.6755 8.63672C4.96554 8.63672 5.13742 8.57227 5.27707 8.38965C5.91086 7.60547 4.79367 6.60645 4.10616 7.33691Z" fill="black"/>
<path d="M11.1208 7.35842C10.9705 7.49807 10.8523 7.69143 10.8523 7.77736C10.8523 8.07814 11.0886 8.46486 11.3572 8.58303C11.7224 8.7549 11.8621 8.73342 12.1843 8.4756C12.3884 8.31447 12.4636 8.15334 12.4636 7.88478C12.4636 7.14357 11.6472 6.82131 11.1208 7.35842Z" fill="black"/>
<path d="M18.1569 7.30471C17.8347 7.62697 17.8669 8.19631 18.2214 8.4756C18.5866 8.76564 18.8337 8.7549 19.1667 8.45412C19.736 7.94924 19.4353 7.08986 18.694 7.08986C18.5114 7.08986 18.2751 7.18654 18.1569 7.30471Z" fill="black"/>
<path d="M25.1394 7.30474C24.8386 7.60552 24.8601 8.11041 25.1931 8.43267C25.4831 8.73345 25.6443 8.75494 26.031 8.58306C26.2995 8.4649 26.5359 8.07818 26.5359 7.7774C26.5359 7.69146 26.4177 7.4981 26.2673 7.35845C25.9451 7.02544 25.4402 7.00396 25.1394 7.30474Z" fill="black"/>
<path d="M32.1326 7.36914C31.6814 7.94922 31.9929 8.63672 32.7126 8.63672C33.4431 8.63672 33.7869 7.80957 33.2712 7.32617C32.9167 6.99317 32.4119 7.01465 32.1326 7.36914Z" fill="black"/>
<path d="M11.1853 45.9444C11.0671 46.0518 10.9275 46.2881 10.8952 46.4815C10.7556 47.2012 11.7224 47.6631 12.2273 47.126C12.5603 46.7715 12.5388 46.2666 12.1843 45.9873C11.8298 45.708 11.4861 45.6973 11.1853 45.9444Z" fill="black"/>
<path d="M18.2214 45.9873C17.6628 46.4277 17.9743 47.373 18.6941 47.373C19.4353 47.373 19.7361 46.5137 19.1667 45.9981C18.8337 45.708 18.5866 45.6973 18.2214 45.9873Z" fill="black"/>
<path d="M25.2039 45.9873C24.8386 46.2774 24.8171 46.8145 25.1716 47.1367C25.5047 47.459 25.9451 47.4375 26.2888 47.0938C26.5037 46.8789 26.5466 46.7608 26.4929 46.4815C26.364 45.8155 25.741 45.5684 25.2039 45.9873Z" fill="black"/>
<path d="M4.13843 46.0303C3.98804 46.1699 3.86987 46.417 3.86987 46.5674C3.86987 46.9219 4.32104 47.373 4.67554 47.373C5.03003 47.373 5.4812 46.9219 5.4812 46.5674C5.4812 46.2129 5.03003 45.7617 4.67554 45.7617C4.52515 45.7617 4.27808 45.8799 4.13843 46.0303Z" fill="black"/>
<path d="M32.1755 46.0303C32.0251 46.1699 31.907 46.417 31.907 46.5674C31.907 46.9434 32.3582 47.373 32.7556 47.373C33.1316 47.373 33.5183 46.9541 33.5183 46.5459C33.5183 46.2021 33.0671 45.7617 32.7126 45.7617C32.5623 45.7617 32.3152 45.8799 32.1755 46.0303Z" fill="black"/>
</svg>
