<svg width="20" height="27" viewBox="0 0 20 27" fill="none" xmlns="http://www.w3.org/2000/svg">
<path d="M4.99833 9.17194C4.99833 8.951 5.0861 8.73911 5.24233 8.58288C5.39856 8.42666 5.61045 8.33889 5.83139 8.33889H7.98067L8.34888 6.50283C8.39759 6.29149 8.5268 6.10747 8.70905 5.9899C8.89129 5.87232 9.11221 5.83045 9.32484 5.8732C9.53747 5.91594 9.72504 6.03992 9.8477 6.21879C9.97036 6.39766 10.0184 6.61731 9.98167 6.83106L9.68177 8.33889H11.3146L11.6811 6.5045C11.7315 6.29525 11.8608 6.11361 12.0421 5.99763C12.2234 5.88165 12.4425 5.84033 12.6536 5.88233C12.8647 5.92433 13.0513 6.04639 13.1744 6.22294C13.2975 6.39948 13.3475 6.61681 13.3139 6.82939L13.014 8.33889H14.5801C14.8011 8.33889 15.013 8.42666 15.1692 8.58288C15.3254 8.73911 15.4132 8.951 15.4132 9.17194C15.4132 9.39288 15.3254 9.60477 15.1692 9.761C15.013 9.91723 14.8011 10.005 14.5801 10.005H12.6808L12.3476 11.6711H14.1636C14.3846 11.6711 14.5964 11.7589 14.7527 11.9151C14.9089 12.0713 14.9967 12.2832 14.9967 12.5042C14.9967 12.7251 14.9089 12.937 14.7527 13.0932C14.5964 13.2495 14.3846 13.3372 14.1636 13.3372H12.016L11.6528 15.1583C11.6032 15.3685 11.4738 15.5512 11.2921 15.6679C11.1104 15.7846 10.8904 15.8261 10.6786 15.7838C10.4669 15.7414 10.2798 15.6185 10.1569 15.4408C10.034 15.2632 9.98495 15.0448 10.02 14.8317L10.3166 13.3372H8.68044L8.31556 15.1583C8.29742 15.2686 8.25725 15.3742 8.19746 15.4686C8.13766 15.5631 8.05945 15.6446 7.9675 15.7082C7.87555 15.7718 7.77173 15.8163 7.66224 15.8389C7.55274 15.8615 7.43981 15.8619 7.33017 15.84C7.22053 15.8181 7.11643 15.7743 7.02406 15.7113C6.9317 15.6483 6.85296 15.5673 6.79255 15.4732C6.73214 15.3791 6.69129 15.2738 6.67243 15.1636C6.65357 15.0534 6.65708 14.9405 6.68277 14.8317L6.98267 13.3372H5.41986C5.19892 13.3372 4.98703 13.2495 4.8308 13.0932C4.67457 12.937 4.5868 12.7251 4.5868 12.5042C4.5868 12.2832 4.67457 12.0713 4.8308 11.9151C4.98703 11.7589 5.19892 11.6711 5.41986 11.6711H7.31423L7.64745 10.005H5.83139C5.61045 10.005 5.39856 9.91723 5.24233 9.761C5.0861 9.60477 4.99833 9.39288 4.99833 9.17194ZM10.6498 11.6711L10.983 10.005H9.34688L9.01366 11.6711H10.6498ZM3.33222 0H16.6678C17.5515 0 18.3991 0.351072 19.024 0.975985C19.6489 1.6009 20 2.44846 20 3.33222V22.4942C20 22.7151 19.9122 22.927 19.756 23.0832C19.5998 23.2395 19.3879 23.3272 19.1669 23.3272H1.66611C1.66655 23.7688 1.84228 24.1922 2.15469 24.5043C2.4671 24.8164 2.89063 24.9917 3.33222 24.9917H19.1669C19.3879 24.9917 19.5998 25.0794 19.756 25.2357C19.9122 25.3919 20 25.6038 20 25.8247C20 26.0457 19.9122 26.2576 19.756 26.4138C19.5998 26.57 19.3879 26.6578 19.1669 26.6578H3.33222C2.44846 26.6578 1.6009 26.3067 0.975985 25.6818C0.351072 25.0569 0 24.2093 0 23.3256V3.33222C0 2.44846 0.351072 1.6009 0.975985 0.975985C1.6009 0.351072 2.44846 0 3.33222 0ZM1.66611 21.6611H18.3339V3.33222C18.3339 2.89034 18.1584 2.46656 17.8459 2.1541C17.5334 1.84165 17.1097 1.66611 16.6678 1.66611H3.33222C2.89034 1.66611 2.46656 1.84165 2.1541 2.1541C1.84165 2.46656 1.66611 2.89034 1.66611 3.33222V21.6611Z" fill="#D4D4D4"/>
</svg>
