<svg width="35" height="35" viewBox="0 0 35 35" fill="none" xmlns="http://www.w3.org/2000/svg">
<g clip-path="url(#clip0_369_468)">
<path d="M29.4683 26.2499H24.4545V20.9194C24.4615 20.5957 24.3401 20.2824 24.1168 20.0479C24.0136 19.9333 23.8872 19.842 23.746 19.7801C23.6048 19.7182 23.4519 19.6872 23.2978 19.6892C23.1433 19.687 22.9901 19.7179 22.8486 19.7797C22.707 19.8416 22.5803 19.933 22.477 20.0479C22.2537 20.2824 22.1322 20.5957 22.1393 20.9194V26.2517H17.3827C17.2286 26.2497 17.0757 26.2807 16.9345 26.3426C16.7933 26.4045 16.6669 26.4958 16.5638 26.6104C16.3404 26.8449 16.219 27.1582 16.226 27.4819C16.219 27.8056 16.3404 28.119 16.5638 28.3534C16.6669 28.4681 16.7933 28.5594 16.9345 28.6212C17.0757 28.6831 17.2286 28.7141 17.3827 28.7122H22.1393V33.7697C22.1322 34.0934 22.2537 34.4067 22.477 34.6412C22.5803 34.756 22.707 34.8475 22.8486 34.9093C22.9901 34.9712 23.1433 35.0021 23.2978 34.9999C23.618 34.9999 23.8928 34.8809 24.1168 34.6412C24.3401 34.4067 24.4615 34.0934 24.4545 33.7697V28.7122H29.4683C29.7903 28.7122 30.0633 28.5914 30.2873 28.3534C30.5106 28.119 30.632 27.8056 30.625 27.4819C30.632 27.1582 30.5106 26.8449 30.2873 26.6104C30.1841 26.4958 30.0577 26.4045 29.9165 26.3426C29.7753 26.2807 29.6224 26.2497 29.4683 26.2517V26.2499ZM30.3713 8.79716L23.3275 0.841663L22.5575 0.003413H6.615C6.3175 0.003413 5.985 -0.014087 5.6945 0.033163C5.34596 0.0826527 5.02742 0.25748 4.7985 0.524913C4.30675 1.08141 4.3785 1.77966 4.3785 2.46391V32.5377C4.3785 33.2219 4.29975 33.9622 4.7985 34.4802C5.29725 34.9982 5.6315 34.9982 6.27375 34.9982H15.0675C15.3895 34.9982 15.6625 34.8792 15.8883 34.6394C16.1116 34.405 16.233 34.0916 16.226 33.7679C16.233 33.4442 16.1116 33.1309 15.8883 32.8964C15.7849 32.7815 15.6583 32.6901 15.5167 32.6282C15.3751 32.5664 15.222 32.5355 15.0675 32.5377H6.72875L6.71825 2.38691H19.4495V8.67466C19.4495 9.35891 19.7155 9.97491 20.1338 10.4177C20.5538 10.8604 21.1313 11.1352 21.7735 11.1352H28.3098V18.4589C28.3027 18.7826 28.4242 19.096 28.6475 19.3304C28.7506 19.4451 28.877 19.5364 29.0183 19.5982C29.1595 19.6601 29.3123 19.6911 29.4665 19.6892C29.7885 19.6892 30.0615 19.5684 30.2873 19.3304C30.51 19.0957 30.6307 18.7824 30.6233 18.4589V9.58116L30.625 9.09291L30.3713 8.79716ZM21.9065 8.49616C21.8348 8.40341 21.791 8.24066 21.7753 8.00616V2.65991L27.1285 8.67466H22.33C22.12 8.64666 21.98 8.58716 21.9065 8.49441V8.49616Z" fill="#D4D4D4"/>
</g>
<defs>
<clipPath id="clip0_369_468">
<rect width="35" height="35" fill="white"/>
</clipPath>
</defs>
</svg>
