<svg width="18" height="20" viewBox="0 0 18 20" fill="none" xmlns="http://www.w3.org/2000/svg">
<path d="M11.7408 12.2309C11.6184 12.1909 10.8454 11.8424 11.3284 10.374H11.3215C12.5808 9.07704 13.5431 6.99012 13.5431 4.9355C13.5431 1.77627 11.4423 0.120117 9.00076 0.120117C6.55768 0.120117 4.46845 1.7755 4.46845 4.9355C4.46845 6.99858 5.42537 9.09396 6.69229 10.3878C7.18614 11.6832 6.30306 12.164 6.11845 12.2317C3.56152 13.1563 0.561523 14.8417 0.561523 16.5055V17.1293C0.561523 19.3963 4.95691 19.9117 9.0246 19.9117C13.0984 19.9117 17.4384 19.3963 17.4384 17.1293V16.5055C17.4384 14.7917 14.4238 13.1193 11.7408 12.2309Z" fill="#D4D4D4"/>
</svg>
