<svg width="18" height="20" viewBox="0 0 18 20" fill="none" xmlns="http://www.w3.org/2000/svg">
<path d="M9 17.8838C6.91142 17.8838 4.90838 17.0045 3.43153 15.4394C1.95468 13.8742 1.125 11.7515 1.125 9.53802C1.125 7.32459 1.95468 5.20181 3.43153 3.63667C4.90838 2.07154 6.91142 1.19225 9 1.19225C11.0886 1.19225 13.0916 2.07154 14.5685 3.63667C16.0453 5.20181 16.875 7.32459 16.875 9.53802C16.875 11.7515 16.0453 13.8742 14.5685 15.4394C13.0916 17.0045 11.0886 17.8838 9 17.8838ZM9 19.076C11.3869 19.076 13.6761 18.0712 15.364 16.2824C17.0518 14.4937 18 12.0677 18 9.53802C18 7.00838 17.0518 4.58235 15.364 2.79362C13.6761 1.0049 11.3869 0 9 0C6.61305 0 4.32387 1.0049 2.63604 2.79362C0.948212 4.58235 0 7.00838 0 9.53802C0 12.0677 0.948212 14.4937 2.63604 16.2824C4.32387 18.0712 6.61305 19.076 9 19.076Z" fill="#464646"/>
<path d="M5.91186 6.89845C5.91032 6.93695 5.91623 6.97538 5.92922 7.01137C5.94221 7.04737 5.96202 7.08016 5.98741 7.10775C6.0128 7.13533 6.04325 7.15711 6.07689 7.17176C6.11052 7.18641 6.14663 7.19362 6.18298 7.19293H7.11111C7.26636 7.19293 7.39011 7.05821 7.41036 6.89487C7.51161 6.11276 8.01786 5.54286 8.92011 5.54286C9.69185 5.54286 10.3984 5.9518 10.3984 6.93541C10.3984 7.69248 9.9776 8.04062 9.31273 8.56998C8.55561 9.15299 7.95598 9.83376 7.99873 10.939L8.00211 11.1977C8.00329 11.2759 8.03344 11.3505 8.08606 11.4054C8.13867 11.4602 8.20954 11.491 8.28336 11.491H9.19573C9.27032 11.491 9.34186 11.4596 9.3946 11.4037C9.44735 11.3478 9.47698 11.272 9.47698 11.1929V11.0677C9.47698 10.2117 9.7841 9.96252 10.6132 9.29605C11.2984 8.74404 12.0127 8.13123 12.0127 6.8448C12.0127 5.04331 10.5772 4.17297 9.00561 4.17297C7.58023 4.17297 6.01874 4.8764 5.91186 6.89845ZM7.66348 13.7694C7.66348 14.4048 8.14161 14.8746 8.79973 14.8746C9.48485 14.8746 9.95623 14.4048 9.95623 13.7694C9.95623 13.1112 9.48373 12.6487 8.79861 12.6487C8.14161 12.6487 7.66348 13.1112 7.66348 13.7694Z" fill="#464646"/>
</svg>
